<?xml version="1.0" encoding="utf-8"?>
<!-- Generator: Adobe Illustrator 16.2.1, SVG Export Plug-In . SVG Version: 6.00 Build 0)  -->
<!DOCTYPE svg PUBLIC "-//W3C//DTD SVG 1.1//EN" "http://www.w3.org/Graphics/SVG/1.1/DTD/svg11.dtd">
<svg version="1.1" id="Layer_1" xmlns="http://www.w3.org/2000/svg" xmlns:xlink="http://www.w3.org/1999/xlink" x="0px" y="0px"
	 width="158.699px" height="83.258px" viewBox="0 0 158.699 83.258" enable-background="new 0 0 158.699 83.258"
	 xml:space="preserve">
<g>
	<path fill="#808080" d="M30.437,35.081c-0.936,0.576-2.16,1.008-3.492,1.08v-2.304c2.735-0.108,3.671-1.584,4.319-3.348h1.944
		v25.197h-2.771V35.081z"/>
</g>
<g>
	<path fill="#808080" d="M83.413,36.629c0,7.596-8.531,10.33-8.567,16.126v0.396h8.279v2.557h-11.05v-2.16
		c0-8.135,8.531-9.719,8.531-16.81c0-2.592-0.863-3.959-2.952-3.959c-2.052,0-2.952,1.476-2.952,3.708v2.232h-2.627v-2.052
		c0-3.852,1.764-6.407,5.651-6.407C81.649,30.258,83.413,32.777,83.413,36.629z"/>
</g>
<g>
	<path fill="#808080" d="M127.818,36.593v0.648c0,2.592-1.045,4.428-3.061,5.184c2.125,0.792,3.061,2.7,3.061,5.22v1.943
		c0,3.852-1.801,6.371-5.688,6.371c-3.852,0-5.651-2.52-5.651-6.371v-1.729h2.628v1.908c0,2.268,0.936,3.636,2.951,3.636
		c2.052,0,2.951-1.332,2.951-3.888v-1.943c0-2.484-1.043-3.672-3.167-3.744h-1.512v-2.519h1.655c1.872-0.072,3.023-1.26,3.023-3.456
		v-1.151c0-2.592-0.899-3.924-2.951-3.924c-2.016,0-2.951,1.404-2.951,3.671v1.296h-2.628v-1.152c0-3.852,1.8-6.335,5.651-6.335
		C126.018,30.258,127.818,32.742,127.818,36.593z"/>
</g>
</svg>
