<?xml version="1.0" encoding="utf-8"?>
<!-- Generator: Adobe Illustrator 16.2.1, SVG Export Plug-In . SVG Version: 6.00 Build 0)  -->
<!DOCTYPE svg PUBLIC "-//W3C//DTD SVG 1.1//EN" "http://www.w3.org/Graphics/SVG/1.1/DTD/svg11.dtd">
<svg version="1.1" id="Layer_1" xmlns="http://www.w3.org/2000/svg" xmlns:xlink="http://www.w3.org/1999/xlink" x="0px" y="0px"
	 width="78.27px" height="90px" viewBox="0 0 78.27 90" enable-background="new 0 0 78.27 90" xml:space="preserve">
<g>
	<g>
		<path fill-rule="evenodd" clip-rule="evenodd" fill="#FFFFFF" d="M78.27,40.234c0,8.598-17.496,2.572-39.108,2.572
			C17.547,42.807,0,48.832,0,40.234c0-8.461,4.087-26.771,37.591-27.329c0.087-0.379,0.148-0.795,0.224-1.204
			C38.382,7.669,37.155,3.491,34.744,0l5.742,1.365c1.273,3.602,1.531,7.614,0.414,11.57C74.225,13.558,78.27,31.773,78.27,40.234"
			/>
		<path fill="#FFFFFF" d="M39.161,43.556"/>
		<path fill-rule="evenodd" clip-rule="evenodd" fill="#FFFFFF" d="M71.809,49.721C71.809,74.581,48.334,90,38.869,90
			C29.433,90,6.654,73.709,6.478,49.37h0.024c7.047,0.306,18.918-2.116,32.367-2.116c13.818,0,25.984,2.541,32.939,2.059
			c-18.402,1.336-46.525,0.91-65.307,0.058c18.781,0.853,46.904,1.278,65.307-0.058V49.721z"/>
	</g>
</g>
</svg>
