<?xml version="1.0" encoding="utf-8"?>
<!-- Generator: Adobe Illustrator 16.2.1, SVG Export Plug-In . SVG Version: 6.00 Build 0)  -->
<!DOCTYPE svg PUBLIC "-//W3C//DTD SVG 1.1//EN" "http://www.w3.org/Graphics/SVG/1.1/DTD/svg11.dtd">
<svg version="1.1" id="Layer_1" xmlns="http://www.w3.org/2000/svg" xmlns:xlink="http://www.w3.org/1999/xlink" x="0px" y="0px"
	 width="158.698px" height="83.259px" viewBox="0 0 158.698 83.259" enable-background="new 0 0 158.698 83.259"
	 xml:space="preserve">
<g>
	<path fill="#666666" d="M144.488,60.394c0,1.165-0.954,2.119-2.119,2.119H44.644c-1.166,0-2.119-0.954-2.119-2.119V2.119
		C42.525,0.954,43.479,0,44.644,0h97.725c1.165,0,2.119,0.954,2.119,2.119V60.394z"/>
</g>
<rect x="46.629" y="4.234" fill="#808080" width="93.751" height="52.804"/>
<path fill="#CCCCCC" d="M104.339,62.513h-21.67c0,0-0.114,10.495-2.397,12.204h26.461C104.453,73.008,104.339,62.513,104.339,62.513
	z"/>
<path fill="#CCCCCC" d="M106.733,74.717H80.272c-2.277,1.711-5.586,3.08,2.397,3.08c7.981,0,10.834,0,10.834,0s2.851,0,10.836,0
	C112.323,77.797,109.014,76.428,106.733,74.717z"/>
<rect x="8.567" y="36.614" fill="#808080" width="66.302" height="42.226"/>
<path fill="#666666" d="M75.809,78.385V37.416c0-1.423-1.164-2.586-2.587-2.586H10.199c-1.422,0-2.588,1.163-2.588,2.586v40.969
	c0,0.7,0.282,1.336,0.738,1.803h66.724C75.528,79.721,75.809,79.085,75.809,78.385z M73.379,77.281H9.651V37.452h63.728V77.281z"/>
<polygon fill="#B3B3B3" points="75.073,80.188 8.349,80.188 0,80.188 0,81.692 83.458,81.692 83.458,80.188 "/>
<circle fill="#929497" cx="41.748" cy="36.258" r="0.355"/>
<path fill="#999999" d="M41.71,80.188h-0.182h-5.797c0,0,0.17,1.018,1.104,1.018c0.807,0,3.86,0,4.68,0c0.131,0,0.207,0,0.207,0
	c0.823,0,3.875,0,4.679,0c0.936,0,1.104-1.018,1.104-1.018H41.71z"/>
<path fill="#E6E6E6" d="M0,81.692c0,0,0.507,1.104,4.829,1.104c4.32,0,36.686,0,36.686,0h0.427c0,0,32.365,0,36.687,0
	s4.828-1.104,4.828-1.104"/>
<g>
	<path fill="#666666" d="M149.333,42.405c0-1.74-1.423-3.163-3.163-3.163h-21.674c-1.74,0-3.163,1.423-3.163,3.163v35.131
		c0,1.74,1.423,3.163,3.163,3.163h21.674c1.74,0,3.163-1.423,3.163-3.163V42.405z"/>
</g>
<rect x="122.708" y="43.295" fill="#808080" width="25.25" height="33.352"/>
<ellipse fill="#929497" cx="135.333" cy="41.34" rx="0.276" ry="0.293"/>
<circle fill="#4D4D4D" cx="135.332" cy="78.79" r="1.062"/>
<g>
	<path fill="#666666" d="M148.577,83.259c-2.249,0-4.089-1.84-4.089-4.089V57.522c0-2.249,1.84-4.089,4.089-4.089h6.032
		c2.249,0,4.089,1.84,4.089,4.089V79.17c0,2.249-1.84,4.089-4.089,4.089H148.577z"/>
</g>
<rect x="145.518" y="57.65" fill="#808080" width="12.151" height="21.54"/>
<circle fill="#404041" stroke="#F1F1F2" stroke-width="0.1803" stroke-miterlimit="10" cx="151.594" cy="81.35" r="1.105"/>
<path fill="#929497" d="M152.575,56.245c0.12,0,0.218-0.09,0.218-0.201l0,0c0-0.111-0.098-0.2-0.218-0.2h-1.963
	c-0.12,0-0.218,0.089-0.218,0.2l0,0c0,0.111,0.098,0.201,0.218,0.201H152.575z"/>
<circle fill="#929497" cx="151.594" cy="54.915" r="0.276"/>
<rect x="153.821" y="53.259" fill="#404041" width="2.271" height="0.349"/>
</svg>
