<?xml version="1.0" encoding="utf-8"?>
<!-- Generator: Adobe Illustrator 16.2.1, SVG Export Plug-In . SVG Version: 6.00 Build 0)  -->
<!DOCTYPE svg PUBLIC "-//W3C//DTD SVG 1.1//EN" "http://www.w3.org/Graphics/SVG/1.1/DTD/svg11.dtd">
<svg version="1.1" id="Layer_1" xmlns="http://www.w3.org/2000/svg" xmlns:xlink="http://www.w3.org/1999/xlink" x="0px" y="0px"
	 width="158.699px" height="83.258px" viewBox="0 0 158.699 83.258" enable-background="new 0 0 158.699 83.258"
	 xml:space="preserve">
<circle fill="#808080" stroke="#666666" stroke-width="3" stroke-miterlimit="10" cx="53.349" cy="41.629" r="20"/>
<path fill="#808080" d="M142.43,31.654c0,0.69-0.952,1.25-2.126,1.25H84.658c-1.173,0-2.125-0.56-2.125-1.25l0,0
	c0-0.691,0.952-1.25,2.125-1.25h55.646C141.478,30.404,142.43,30.963,142.43,31.654L142.43,31.654z"/>
<path fill="#808080" d="M123.849,40.854c0,0.691-0.655,1.25-1.466,1.25H83.998c-0.81,0-1.465-0.559-1.465-1.25l0,0
	c0-0.69,0.655-1.25,1.465-1.25h38.386C123.194,39.604,123.849,40.164,123.849,40.854L123.849,40.854z"/>
<path fill="#808080" d="M112.482,50.667c0,0.69-0.477,1.25-1.064,1.25H83.594c-0.587,0-1.062-0.56-1.062-1.25l0,0
	c0-0.69,0.475-1.25,1.062-1.25h27.823C112.005,49.417,112.482,49.976,112.482,50.667L112.482,50.667z"/>
</svg>
