<?xml version="1.0" encoding="UTF-8" standalone="no"?>
<svg width="13px" height="12px" viewBox="0 0 13 12" version="1.1" xmlns="http://www.w3.org/2000/svg" xmlns:xlink="http://www.w3.org/1999/xlink" xmlns:sketch="http://www.bohemiancoding.com/sketch/ns">
    <!-- Generator: Sketch 3.1.1 (8761) - http://www.bohemiancoding.com/sketch -->
    <title>Shape</title>
    <desc>Created with Sketch.</desc>
    <defs></defs>
    <g id="Page-1" stroke="none" stroke-width="1" fill="none" fill-rule="evenodd" sketch:type="MSPage">
        <g id="Artboard-1" sketch:type="MSArtboardGroup" transform="translate(-78.000000, -64.000000)" fill="#FFFFFF">
            <g id="Group" sketch:type="MSLayerGroup" transform="translate(79.000000, 64.000000)">
                <path d="M11.074,5.819 L1.246,5.641 L6.039,1.016 C6.203,0.86 6.207,0.599 6.051,0.438 C5.895,0.275 5.633,0.271 5.471,0.427 L-0.33,6.021 L-0.047,6.316 C-0.045,6.316 -0.045,6.318 -0.045,6.318 L5.266,11.826 C5.346,11.908 5.454,11.95 5.561,11.95 C5.663,11.95 5.766,11.913 5.846,11.835 C6.008,11.678 6.012,11.418 5.856,11.256 L1.231,6.461 L11.059,6.639 L11.067,6.639 C11.29,6.639 11.471,6.46 11.477,6.238 C11.48,6.01 11.301,5.823 11.074,5.819 L11.074,5.819 Z" id="Shape" sketch:type="MSShapeGroup"></path>
            </g>
        </g>
    </g>
</svg>