<?xml version="1.0" encoding="UTF-8"?>
<svg width="110px" height="110px" viewBox="0 0 110 110" version="1.1" xmlns="http://www.w3.org/2000/svg" xmlns:xlink="http://www.w3.org/1999/xlink">
    <!-- Generator: Sketch 49 (51002) - http://www.bohemiancoding.com/sketch -->
    <title>bluebirdicon</title>
    <desc>Created with Sketch.</desc>
    <defs></defs>
    <g id="Page-1" stroke="none" stroke-width="1" fill="none" fill-rule="evenodd">
        <g id="bluebirdicon" transform="translate(1.000000, 1.000000)">
            <path d="M53.8867925,108 C83.6476461,108 107.773585,83.8233765 107.773585,54 C107.773585,24.1766235 83.6476461,0 53.8867925,0 C24.1259388,0 0,24.1766235 0,54 C0,83.8233765 24.1259388,108 53.8867925,108 Z" id="Oval-2" stroke="#FFFFFF" stroke-width="2" fill-rule="nonzero"></path>
            <path d="M67.1293438,22.9573182 C69.9749489,21.0628182 90.3239489,9.79181825 79.3317917,29.2828182 C79.3317917,29.2828182 69.1596617,49.5433182 57.1231153,53.6998182 L64.1083571,53.4658182 C64.1083571,53.4658182 51.667327,72.1438182 33.4782061,81.0358182 L31.4384081,83.9293182 L29.2658889,87.5023182 L26,90.7018182 L30.4587994,81.6058182 C30.4587994,81.6058182 29.847334,68.2393182 41.2234346,50.4718182 L41.4367365,55.5568182 C41.4367365,55.5568182 41.9297009,50.4553182 44.2428413,46.0618182 C47.6746317,39.5428182 54.3675709,33.6823182 61.9216177,27.2173182 C60.8424682,30.0403182 59.7159182,33.6913182 60.3021034,35.4358182 C60.3021034,35.4358182 62.0116785,28.2058182 65.6567708,24.1378182 C66.0738944,23.6713182 66.592139,23.3143182 67.1293438,22.9573182 Z M34.473577,76.6950082 L36.371716,74.9283303 L57.3961631,43.1516282 C53.7214866,46.66149 34.473577,76.6950082 34.473577,76.6950082 Z" id="Combined-Shape" fill="#FFFFFF"></path>
        </g>
    </g>
</svg>