<?xml version="1.0" encoding="utf-8"?>
<!-- Generator: Adobe Illustrator 16.2.1, SVG Export Plug-In . SVG Version: 6.00 Build 0)  -->
<!DOCTYPE svg PUBLIC "-//W3C//DTD SVG 1.1//EN" "http://www.w3.org/Graphics/SVG/1.1/DTD/svg11.dtd">
<svg version="1.1" id="Layer_1" xmlns="http://www.w3.org/2000/svg" xmlns:xlink="http://www.w3.org/1999/xlink" x="0px" y="0px"
	 width="158.699px" height="83.258px" viewBox="0 0 158.699 83.258" enable-background="new 0 0 158.699 83.258"
	 xml:space="preserve">
<path fill="#808080" stroke="#666666" stroke-width="3" stroke-miterlimit="10" d="M114.221,6.634
	c-0.394,0.036-0.9,0.262-1.367,0.621l-41.598,31.98c-0.746,0.573-1.583,1.769-1.881,2.662l-2.308,6.869
	c2.981,0.914,5.373,2.899,6.851,5.412l5.821-2.911c0.841-0.421,2.007-1.355,2.591-2.094l31.961-40.498
	c0.584-0.739,0.793-1.585,0.479-1.899C114.653,6.658,114.457,6.612,114.221,6.634z M63.287,52.774
	c-3.12,0.08-5.963,2.104-6.974,5.165l-0.107,0.372c-1.922,6.951-6.427,12.841-12.422,16.593c0.927,0.414,1.888,0.762,2.875,1.03
	c10.25,2.788,20.864-3.068,23.958-13.098l0.16-0.585c1.099-3.989-1.287-8.117-5.306-9.211C64.74,52.843,64.007,52.757,63.287,52.774
	z"/>
</svg>
