<?xml version="1.0" encoding="utf-8"?>
<!-- Generator: Adobe Illustrator 16.2.1, SVG Export Plug-In . SVG Version: 6.00 Build 0)  -->
<!DOCTYPE svg PUBLIC "-//W3C//DTD SVG 1.1//EN" "http://www.w3.org/Graphics/SVG/1.1/DTD/svg11.dtd">
<svg version="1.1" id="Layer_1" xmlns="http://www.w3.org/2000/svg" xmlns:xlink="http://www.w3.org/1999/xlink" x="0px" y="0px"
	 width="110px" height="31.566px" viewBox="5 48.217 110 31.566" enable-background="new 5 48.217 110 31.566" xml:space="preserve"
	>
<path fill="#808080" d="M113.882,67.012c0,0,0.799-4.799,0.719-6.078c-0.08-1.28-11.195-2.079-18.711-2.72
	c-4.13-0.351-7.484-0.315-9.673-0.214c0.028,0.015,0.057,0.033,0.077,0.043c0.04,0.007,0.07,0.015,0.08,0.028
	c0.011,0.015-0.017,0.005-0.08-0.028c-0.128-0.023-0.397-0.023-0.764-0.005c-1.361,0.082-2.114,0.176-2.114,0.176l-0.022-0.01
	c-2.016,0.191-4.312,0.468-4.312,0.468l-10.998-7.558l0.271-0.651l-1.25-0.644c0,0-2.72-1.679-11.354-1.599
	c-8.638,0.08-15.033,2.159-15.033,2.159s-22.15,7.518-22.39,7.678c-0.241,0.16-11.995,1.28-11.995,1.28s-3.838,9.594,1.52,13.352
	l11.594,1.2l1.1,0.074c-0.115-0.572-0.177-1.163-0.177-1.769c0-4.902,3.975-8.877,8.875-8.877c4.903,0,8.875,3.975,8.875,8.877
	c0,1.021-0.181,1.997-0.498,2.911l2.136,0.142l47.417-0.406c0,0,1.002-0.041,2.572-0.107c-0.242-0.804-0.374-1.656-0.374-2.539
	c0-4.902,3.974-8.877,8.875-8.877c4.902,0,8.875,3.975,8.875,8.877c0,0.542-0.056,1.068-0.147,1.585
	c0.182-0.018,0.354-0.033,0.509-0.051c4.317-0.48,5.996-1.839,5.996-1.839V69.25L115,69.09v-2.002L113.882,67.012z M29.247,57.662
	v-0.64l1.887-0.57l0.193,1.21H29.247z M33.124,57.796l-0.311-1.851l1.391-0.421l0.328,2.272H33.124z M64.225,50.858l10.155,7.916
	H46.873l-2-6.396C44.873,52.377,54.708,49.739,64.225,50.858z M40.362,53.663l1.44,4.319l-2.142-0.056l-0.936-3.769L40.362,53.663z
	 M35.724,55.063l1.576-0.476l0.663,3.295l-1.602-0.041L35.724,55.063z M71.86,71.311l-10.275,0.133
	c-1.712,0.018-3.425,0.051-5.137,0.051l-5.138,0.021l-10.276,0.043l-0.454,0.003l-0.019-0.479c-0.01-0.265-0.011-0.526-0.029-0.789
	c-0.029-0.26-0.038-0.523-0.084-0.781c-0.035-0.259-0.076-0.516-0.137-0.771c-0.048-0.257-0.13-0.504-0.196-0.756
	c-0.086-0.244-0.166-0.491-0.271-0.729c-0.095-0.239-0.211-0.471-0.334-0.697c-0.121-0.227-0.258-0.445-0.405-0.651
	c-0.072-0.104-0.148-0.206-0.229-0.303c-0.074-0.092-0.167-0.196-0.231-0.26l-0.793-0.788l1.099-0.008l9.456-0.082l4.729-0.035
	h4.729l4.727-0.002c1.577,0.002,3.152-0.008,4.729,0.01c3.152,0.031,6.305,0.035,9.459,0.092c-3.152,0.135-6.303,0.219-9.454,0.328
	c-1.574,0.056-3.15,0.089-4.727,0.129l-4.728,0.117l-4.727,0.117l-4.729,0.087l-8.503,0.14c0.15,0.214,0.29,0.433,0.412,0.659
	c0.141,0.254,0.272,0.514,0.382,0.78c0.12,0.265,0.211,0.537,0.308,0.81c0.079,0.277,0.169,0.552,0.224,0.832
	c0.071,0.279,0.117,0.564,0.159,0.847c0.052,0.283,0.058,0.57,0.088,0.853c0.008,0.127,0.008,0.255,0.01,0.382l9.815,0.041
	l5.137,0.02c1.712,0,3.425,0.033,5.138,0.051l10.274,0.133c3.427,0.076,6.852,0.122,10.275,0.227
	C78.71,71.188,75.285,71.234,71.86,71.311z"/>
<path fill="#666666" d="M29.122,64.593c-4.197,0-7.597,3.4-7.597,7.596s3.4,7.595,7.597,7.595c4.195,0,7.595-3.399,7.595-7.595
	S33.317,64.593,29.122,64.593z M29.122,75.382c-1.768,0-3.201-1.431-3.201-3.198c0-1.766,1.433-3.198,3.201-3.198
	c1.766,0,3.198,1.433,3.198,3.198C32.32,73.951,30.888,75.382,29.122,75.382z"/>
<path fill="#666666" d="M98.129,64.593c-4.195,0-7.597,3.4-7.597,7.596s3.401,7.595,7.597,7.595s7.597-3.399,7.597-7.595
	S102.324,64.593,98.129,64.593z M98.129,75.387c-1.766,0-3.198-1.433-3.198-3.198c0-1.769,1.433-3.2,3.198-3.2
	c1.767,0,3.198,1.432,3.198,3.2C101.327,73.954,99.895,75.387,98.129,75.387z"/>
</svg>
