<?xml version="1.0" encoding="UTF-8"?>
<svg width="130px" height="120px" viewBox="0 0 130 120" version="1.1" xmlns="http://www.w3.org/2000/svg" xmlns:xlink="http://www.w3.org/1999/xlink">
    <!-- Generator: Sketch 49 (51002) - http://www.bohemiancoding.com/sketch -->
    <title>Shape</title>
    <desc>Created with Sketch.</desc>
    <defs></defs>
    <g id="Page-1" stroke="none" stroke-width="1" fill="none" fill-rule="evenodd">
        <g id="home-lg" transform="translate(1.000000, 1.000000)" fill="#808080" fill-rule="nonzero" stroke="#666666" stroke-width="2">
            <path d="M63.688,0.594 C63.386,0.645 63.11,0.796 62.875,1 L1.125,55 C0.501,55.546 0.672,56 1.5,56 L10.5,56 C11.328,56 12.524,55.566 13.156,55.031 L62.844,12.968 C63.476,12.433 64.524,12.433 65.157,12.968 L114.845,55.031 C115.477,55.566 116.673,56 117.501,56 L126.501,56 C127.329,56 127.5,55.545 126.876,55 L65.126,1 C64.736,0.659 64.192,0.509 63.688,0.594 Z M64.001,16.563 C63.688,16.563 63.366,16.633 63.095,16.782 C63.005,16.832 62.925,16.903 62.845,16.97 L40.001,36.001 L17.157,55.032 C17.146,55.041 17.136,55.054 17.126,55.063 C16.512,55.596 16.01,56.659 16.001,57.469 C16.001,57.479 16.001,57.491 16.001,57.5 L16.251,118 L54.001,118 L54.001,94 L74.001,94 L74.001,118 L112.001,118 L112.001,57.5 C112.001,56.685 111.498,55.602 110.876,55.062 L88.001,35.999 L65.157,16.968 C65.078,16.902 64.997,16.83 64.907,16.78 C64.636,16.631 64.314,16.561 64.001,16.561 L64.001,16.563 Z" id="Shape"></path>
        </g>
    </g>
</svg>