<?xml version="1.0" encoding="utf-8"?>
<!-- Generator: Adobe Illustrator 16.2.1, SVG Export Plug-In . SVG Version: 6.00 Build 0)  -->
<!DOCTYPE svg PUBLIC "-//W3C//DTD SVG 1.1//EN" "http://www.w3.org/Graphics/SVG/1.1/DTD/svg11.dtd">
<svg version="1.1" id="Layer_1" xmlns="http://www.w3.org/2000/svg" xmlns:xlink="http://www.w3.org/1999/xlink" x="0px" y="0px"
	 width="158.699px" height="83.258px" viewBox="0 0 158.699 83.258" enable-background="new 0 0 158.699 83.258"
	 xml:space="preserve">
<g transform="translate(0 16)">
	<path fill="#808080" d="M32.683-9.371v70h93.333v-70H32.683z M35.6-6.454h87.5v64.166H35.6V-6.454z M51.596,15.968
		c-0.255,0-0.502,0.1-0.684,0.319l-13.854,17.34v22.627H84.34L52.302,16.286c-0.183-0.219-0.452-0.32-0.707-0.32L51.596,15.968z
		 M80.762,21.801c-0.254,0-0.5,0.101-0.684,0.319L70.006,34.721l17.228,21.533h21.602L81.469,22.12
		C81.287,21.901,81.018,21.8,80.762,21.801L80.762,21.801z M99.768,22.712c-4.268,0-7.992,2.301-10.027,5.72l13.65,17.044
		c4.666-1.524,8.043-5.92,8.043-11.097C111.434,27.936,106.211,22.712,99.768,22.712z"/>
</g>
</svg>
