<?xml version="1.0" encoding="utf-8"?>
<!-- Generator: Adobe Illustrator 16.2.1, SVG Export Plug-In . SVG Version: 6.00 Build 0)  -->
<!DOCTYPE svg PUBLIC "-//W3C//DTD SVG 1.1//EN" "http://www.w3.org/Graphics/SVG/1.1/DTD/svg11.dtd">
<svg version="1.1" id="Layer_1" xmlns="http://www.w3.org/2000/svg" xmlns:xlink="http://www.w3.org/1999/xlink" x="0px" y="0px"
	 width="158.699px" height="83.258px" viewBox="0 0 158.699 83.258" enable-background="new 0 0 158.699 83.258"
	 xml:space="preserve">
<rect x="26.094" y="42.604" fill="#808080" stroke="#666666" stroke-width="3" stroke-miterlimit="10" width="8.333" height="30.333"/>
<rect x="45.094" y="23.938" fill="#808080" stroke="#666666" stroke-width="3" stroke-miterlimit="10" width="8.334" height="49"/>
<rect x="64.095" y="8.271" fill="#808080" stroke="#666666" stroke-width="3" stroke-miterlimit="10" width="8.333" height="64.667"/>
<rect x="83.428" y="29.604" fill="#808080" stroke="#666666" stroke-width="3" stroke-miterlimit="10" width="8.334" height="43.333"/>
<g>
	<path fill="#B3B3B3" d="M100.579,48.912c-0.284,0.128-0.609,0.161-0.929,0.079c-0.749-0.194-1.195-0.962-0.997-1.709
		c2.059-7.831,7.45-14.215,14.793-17.517c7.346-3.302,15.7-3.097,22.917,0.562c0.691,0.348,0.967,1.191,0.617,1.878
		c-0.348,0.688-1.191,0.967-1.88,0.617c-6.463-3.273-13.938-3.46-20.508-0.507c-6.568,2.951-11.392,8.668-13.235,15.676
		C101.248,48.417,100.951,48.744,100.579,48.912"/>
	<path fill="#B3B3B3" d="M107.055,63.315c-0.706,0.317-1.533,0.001-1.85-0.702c-4.745-10.554-0.018-22.999,10.537-27.744
		c10.552-4.742,22.997-0.018,27.74,10.535c0.316,0.703,0.002,1.534-0.701,1.848c-0.705,0.316-1.533,0-1.85-0.7
		c-4.109-9.148-14.899-13.243-24.042-9.132c-9.147,4.111-13.244,14.896-9.134,24.043C108.072,62.17,107.756,63,107.055,63.315"/>
	<path fill="#B3B3B3" d="M127.182,60.386C119.504,63.839,116.447,54,116.447,54s-0.019-3.545,5.213-5.894
		c5.233-2.354,7.926-0.012,7.926-0.012S134.855,56.937,127.182,60.386 M120.328,45.077c-8.02,3.606-7.095,11.902,0.549,28.904
		l0.344,0.766c3.853,0.583,7.908,0.121,11.728-1.597c3.819-1.717,6.858-4.441,8.979-7.711l-0.345-0.768
		C133.941,47.67,128.348,41.474,120.328,45.077"/>
</g>
</svg>
