<?xml version="1.0" encoding="utf-8"?>
<!-- Generator: Adobe Illustrator 16.2.1, SVG Export Plug-In . SVG Version: 6.00 Build 0)  -->
<!DOCTYPE svg PUBLIC "-//W3C//DTD SVG 1.1//EN" "http://www.w3.org/Graphics/SVG/1.1/DTD/svg11.dtd">
<svg version="1.1" id="Layer_1" xmlns="http://www.w3.org/2000/svg" xmlns:xlink="http://www.w3.org/1999/xlink" x="0px" y="0px"
	 width="49px" height="49px" viewBox="0 0 49 49" enable-background="new 0 0 49 49" xml:space="preserve">
<circle fill="none" stroke="#FFFFFF" stroke-width="3" stroke-miterlimit="10" cx="24.5" cy="24.5" r="23"/>
<g>
	<path fill="#7EC582" d="M13.862,20.812h4.561v14.67h-4.561V20.812z M16.144,13.519c1.457,0,2.642,1.185,2.642,2.643
		c0,1.46-1.185,2.645-2.642,2.645c-1.463,0-2.644-1.185-2.644-2.645C13.5,14.703,14.681,13.519,16.144,13.519"/>
	<path fill="#7EC582" d="M21.283,20.812h4.374v2.004h0.062c0.61-1.153,2.098-2.37,4.315-2.37c4.613,0,5.466,3.038,5.466,6.989v8.047
		h-4.554v-7.134c0-1.702-0.033-3.891-2.371-3.891c-2.372,0-2.734,1.854-2.734,3.768v7.257h-4.558V20.812z"/>
</g>
</svg>
