<?xml version="1.0" encoding="UTF-8"?>
<svg width="130px" height="91px" viewBox="0 0 130 91" version="1.1" xmlns="http://www.w3.org/2000/svg" xmlns:xlink="http://www.w3.org/1999/xlink">
    <!-- Generator: Sketch 49 (51002) - http://www.bohemiancoding.com/sketch -->
    <title>Shape</title>
    <desc>Created with Sketch.</desc>
    <defs></defs>
    <g id="Page-1" stroke="none" stroke-width="1" fill="none" fill-rule="evenodd">
        <g id="audio-lg" transform="translate(1.000000, 0.000000)" fill="#808080" fill-rule="nonzero" stroke="#666666">
            <path d="M18.75,8.8817842e-16 C7.172,11.576 0,27.601 0,45.25 C0,62.899 7.173,78.923 18.75,90.5 L24.406,84.844 C14.267,74.705 8,60.737 8,45.25 C8,29.763 14.268,15.794 24.406,5.656 L18.75,8.8817842e-16 Z M109.25,0 L103.594,5.656 C113.733,15.795 120,29.763 120,45.25 C120,60.737 113.732,74.706 103.594,84.844 L109.25,90.5 C120.828,78.924 128,62.899 128,45.25 C128,27.601 120.827,11.577 109.25,0 Z M38.187,19.438 C31.587,26.038 27.499,35.195 27.499,45.251 C27.499,55.307 31.586,64.463 38.187,71.064 L43.843,65.408 C38.681,60.246 35.499,53.146 35.499,45.252 C35.499,37.358 38.681,30.257 43.843,25.096 L38.187,19.44 L38.187,19.438 Z M89.812,19.438 L84.156,25.094 C89.318,30.256 92.5,37.356 92.5,45.25 C92.5,53.144 89.318,60.245 84.156,65.406 L89.812,71.062 C96.412,64.462 100.5,55.305 100.5,45.249 C100.5,35.193 96.413,26.037 89.812,19.436 L89.812,19.438 Z M63.999,35.251 C58.476,35.251 53.999,39.728 53.999,45.251 C53.999,50.774 58.476,55.251 63.999,55.251 C69.522,55.251 73.999,50.774 73.999,45.251 C73.999,39.728 69.522,35.251 63.999,35.251 Z" id="Shape"></path>
        </g>
    </g>
</svg>