<?xml version="1.0" encoding="utf-8"?>
<!-- Generator: Adobe Illustrator 16.2.1, SVG Export Plug-In . SVG Version: 6.00 Build 0)  -->
<!DOCTYPE svg PUBLIC "-//W3C//DTD SVG 1.1//EN" "http://www.w3.org/Graphics/SVG/1.1/DTD/svg11.dtd">
<svg version="1.1" id="Layer_1" xmlns="http://www.w3.org/2000/svg" xmlns:xlink="http://www.w3.org/1999/xlink" x="0px" y="0px"
	 width="713.413px" height="154.236px" viewBox="0 0 713.413 154.236" enable-background="new 0 0 713.413 154.236"
	 xml:space="preserve">
<linearGradient id="SVGID_1_" gradientUnits="userSpaceOnUse" x1="447.4546" y1="2.1318" x2="447.4546" y2="157.6422">
	<stop  offset="0" style="stop-color:#000000"/>
	<stop  offset="1" style="stop-color:#FFFFFF"/>
</linearGradient>
<rect x="446.939" fill-rule="evenodd" clip-rule="evenodd" fill="url(#SVGID_1_)" width="1.032" height="154.236"/>
<g>
	<polygon fill-rule="evenodd" clip-rule="evenodd" fill="#4D4D4F" points="43.944,55.872 22.766,92.548 1.588,55.872 0,55.872 
		0,94.048 1.573,94.048 1.573,58.853 21.897,94.048 21.9,94.048 23.633,94.048 23.635,94.048 44.105,58.598 44.105,94.048 
		45.678,94.048 45.678,55.872 44.105,55.872 	"/>
	<polygon fill-rule="evenodd" clip-rule="evenodd" fill="#4D4D4F" points="347.583,55.872 326.404,92.548 305.227,55.872 
		303.639,55.872 303.639,94.048 305.212,94.048 305.212,58.853 325.536,94.048 325.539,94.048 327.272,94.048 327.275,94.048 
		347.744,58.6 347.744,94.048 349.318,94.048 349.318,55.872 347.744,55.872 	"/>
	<polygon fill-rule="evenodd" clip-rule="evenodd" fill="#4D4D4F" points="222.352,93.275 224.094,93.275 243.511,59.651 
		262.932,93.275 264.668,93.275 264.67,93.275 243.51,56.645 	"/>
	<polygon fill-rule="evenodd" clip-rule="evenodd" fill="#4D4D4F" points="80.949,93.275 82.691,93.275 102.107,59.651 
		121.529,93.275 123.265,93.275 123.268,93.275 102.105,56.645 	"/>
	<polygon fill-rule="evenodd" clip-rule="evenodd" fill="#4D4D4F" points="393.987,55.872 392.414,55.872 392.414,55.872 
		392.414,57.444 392.414,72.686 392.414,74.259 392.414,94.048 392.414,94.05 392.991,94.05 393.987,94.05 415.796,94.05 
		415.796,92.477 393.987,92.477 393.987,75.832 415.796,75.832 415.796,75.747 415.796,74.259 415.796,74.175 393.987,74.175 
		393.987,72.686 393.987,57.444 395.559,57.444 415.796,57.444 415.796,55.872 395.559,55.872 	"/>
	<polygon fill-rule="evenodd" clip-rule="evenodd" fill="#4D4D4F" points="523.111,55.874 501.933,92.55 480.755,55.874 
		479.167,55.874 479.167,94.05 480.742,94.05 480.742,58.854 501.063,94.05 501.067,94.05 502.801,94.05 523.272,58.597 
		523.272,94.05 524.845,94.05 524.845,55.874 523.272,55.874 	"/>
	<polygon fill-rule="evenodd" clip-rule="evenodd" fill="#4D4D4F" points="691.601,57.445 693.173,57.445 705.687,57.445 
		713.413,57.445 713.413,55.874 705.687,55.874 693.173,55.874 691.601,55.874 690.03,55.874 690.03,57.445 690.03,72.687 
		690.03,74.26 690.03,94.05 690.606,94.05 691.601,94.05 713.413,94.05 713.413,92.479 691.601,92.479 691.601,75.833 
		713.413,75.833 713.413,74.26 691.601,74.26 691.601,72.687 	"/>
	<path fill-rule="evenodd" clip-rule="evenodd" fill="#4D4D4F" d="M651.082,55.816c0.002,0.04,0.008,0.08,0.008,0.12v29.282
		c0,4.064-3.312,7.378-7.377,7.378h-0.076h-7.58h-0.077c-4.061,0-7.376-3.313-7.376-7.378h-1.512c0,4.896,3.992,8.889,8.888,8.889
		h0.077h6.07h1.51h0.076c4.897,0,8.889-3.992,8.889-8.889V55.937c0-0.04-0.002-0.08-0.006-0.12H651.082z"/>
	<path fill-rule="evenodd" clip-rule="evenodd" fill="#4D4D4F" d="M578.452,55.546c-10.69,0-19.415,8.721-19.415,19.415
		c0,10.696,8.725,19.416,19.415,19.416c10.696,0,19.416-8.72,19.416-19.416C597.868,64.267,589.148,55.546,578.452,55.546z
		 M578.452,92.843c-9.845,0-17.877-8.032-17.877-17.882c0-9.848,8.032-17.881,17.877-17.881c9.849,0,17.883,8.033,17.883,17.881
		C596.334,84.811,588.3,92.843,578.452,92.843z"/>
	<path fill-rule="evenodd" clip-rule="evenodd" fill="#4D4D4F" d="M158.902,94.041V55.868h13.068
		c10.515,0,19.091,8.575,19.091,19.09c0,10.516-8.577,19.092-19.091,19.092L158.902,94.041L158.902,94.041z M171.971,92.458
		c9.639,0,17.499-7.86,17.499-17.5c0-9.637-7.86-17.498-17.499-17.498l-11.496-0.018v35.024L171.971,92.458L171.971,92.458z"/>
</g>
</svg>
