<?xml version="1.0" encoding="UTF-8"?>
<svg width="131px" height="131px" viewBox="0 0 131 131" version="1.1" xmlns="http://www.w3.org/2000/svg" xmlns:xlink="http://www.w3.org/1999/xlink">
    <!-- Generator: Sketch 49 (51002) - http://www.bohemiancoding.com/sketch -->
    <title>Shape</title>
    <desc>Created with Sketch.</desc>
    <defs></defs>
    <g id="Page-1" stroke="none" stroke-width="1" fill="none" fill-rule="evenodd">
        <g id="magnifying-glass-lg" transform="translate(2.000000, 2.000000)" fill="#808080" fill-rule="nonzero" stroke="#666666" stroke-width="3">
            <path d="M46,0 C20.642,0 0,20.642 0,46 C0,71.358 20.642,92 46,92 C57.238,92 67.563,87.942 75.563,81.219 L81.157,86.844 L79.063,88.938 C78.477,89.523 78.477,90.477 79.063,91.063 L114.938,126.938 C115.523,127.524 116.477,127.524 117.063,126.938 L126.938,117.063 C127.524,116.477 127.524,115.524 126.938,114.938 L95.719,83.719 L89,90.407 L87.594,89.001 L94.282,82.282 L91.063,79.063 C90.77,78.77 90.384,78.625 90,78.625 C89.616,78.625 89.231,78.769 88.937,79.063 L86.843,81.157 L81.218,75.563 C87.941,67.563 91.999,57.239 91.999,46 C91.999,20.642 71.357,0 45.999,0 L46,0 Z M46,8 C67.034,8 84,24.966 84,46 C84,67.034 67.034,84 46,84 C24.966,84 8,67.034 8,46 C8,24.966 24.966,8 46,8 Z M46,12 C27.235,12 12,27.235 12,46 C12,46.5522847 12.4477153,47 13,47 C13.5522847,47 14,46.5522847 14,46 C14,28.315 28.315,14 46,14 C46.5522847,14 47,13.5522847 47,13 C47,12.4477153 46.5522847,12 46,12 Z" id="Shape"></path>
        </g>
    </g>
</svg>