<?xml version="1.0" encoding="utf-8"?>
<!-- Generator: Adobe Illustrator 16.2.1, SVG Export Plug-In . SVG Version: 6.00 Build 0)  -->
<!DOCTYPE svg PUBLIC "-//W3C//DTD SVG 1.1//EN" "http://www.w3.org/Graphics/SVG/1.1/DTD/svg11.dtd">
<svg version="1.1" id="Layer_1" xmlns="http://www.w3.org/2000/svg" xmlns:xlink="http://www.w3.org/1999/xlink" x="0px" y="0px"
	 width="178.739px" height="46.596px" viewBox="-14.916 0.065 178.739 46.596"
	 enable-background="new -14.916 0.065 178.739 46.596" xml:space="preserve">
<g>
	<path fill="#FFFFFF" stroke="#58595B" stroke-width="0.78" stroke-miterlimit="10" d="M40.73,46.27h-8.102
		c0.536-0.795,0.884-1.698,1.043-2.712c0.099-0.597,0.148-1.44,0.148-2.534V30.115L20.655,11.771v29.255
		c0,1.033,0.05,1.848,0.149,2.442c0.178,0.993,0.506,1.927,0.982,2.801h-8.102c0.536-0.794,0.884-1.697,1.043-2.71
		c0.099-0.597,0.148-1.439,0.148-2.532V6.834c0-1.071-0.05-1.905-0.148-2.502c-0.18-1.052-0.526-1.966-1.043-2.74h9.293
		C22.78,2.128,22.68,2.685,22.68,3.26c0,0.576,0.079,1.099,0.238,1.563c0.159,0.467,0.377,0.899,0.655,1.296
		c1.231,1.787,2.521,3.624,3.872,5.511c0.417,0.576,1.668,2.313,3.753,5.212c0.874,1.213,1.747,2.424,2.621,3.635V6.834
		c0-1.071-0.05-1.905-0.148-2.502c-0.18-1.052-0.526-1.966-1.043-2.74h8.102c-0.457,0.834-0.76,1.684-0.908,2.548
		c-0.149,0.862-0.224,1.763-0.224,2.694v34.193c0,1.033,0.05,1.847,0.149,2.441C39.925,44.463,40.253,45.396,40.73,46.27z
		 M39.539,45.555c-0.258-0.615-0.432-1.32-0.521-2.114s-0.134-1.6-0.134-2.413V6.834c0-1.171,0.055-2.09,0.164-2.755
		c0.108-0.665,0.272-1.256,0.491-1.771H33.88c0.219,0.417,0.382,0.967,0.491,1.65c0.109,0.685,0.164,1.641,0.164,2.869v15.88
		c-0.656-0.91-1.312-1.831-1.969-2.762c-1.531-2.118-3.053-4.229-4.564-6.326c-1.512-2.1-3.192-4.476-5.042-7.129
		c-0.293-0.398-0.542-0.922-0.746-1.568c-0.205-0.646-0.308-1.271-0.308-1.867c0-0.18,0.02-0.429,0.06-0.747h-7.029
		c0.219,0.417,0.382,0.968,0.491,1.652c0.109,0.686,0.164,1.645,0.164,2.874v34.193c0,1.132-0.029,2.016-0.09,2.651
		c-0.059,0.636-0.248,1.261-0.565,1.876h5.659c-0.258-0.614-0.432-1.318-0.521-2.112c-0.089-0.793-0.134-1.597-0.134-2.41V9.55
		l14.595,20.284v11.195c0,1.132-0.029,2.015-0.09,2.65c-0.059,0.635-0.248,1.26-0.565,1.875L39.539,45.555L39.539,45.555z"/>
	<path fill="#FFFFFF" stroke="#58595B" stroke-width="0.78" stroke-miterlimit="10" d="M53.996,46.27h-8.102
		c0.536-0.794,0.884-1.697,1.043-2.71c0.099-0.597,0.148-1.439,0.148-2.532V6.834c0-1.071-0.05-1.905-0.148-2.502
		c-0.18-1.052-0.526-1.966-1.043-2.74h8.102c-0.457,0.834-0.76,1.684-0.908,2.548c-0.149,0.862-0.224,1.763-0.224,2.694v34.193
		c0,1.033,0.05,1.847,0.149,2.441C53.191,44.463,53.519,45.396,53.996,46.27z M52.804,45.555c-0.258-0.615-0.432-1.32-0.521-2.114
		c-0.089-0.794-0.134-1.6-0.134-2.413V6.834c0-1.171,0.055-2.09,0.164-2.755c0.108-0.665,0.272-1.256,0.491-1.771h-5.659
		c0.219,0.417,0.382,0.968,0.491,1.652c0.11,0.686,0.164,1.645,0.164,2.874v34.193c0,1.132-0.029,2.016-0.09,2.651
		c-0.059,0.636-0.248,1.261-0.565,1.876L52.804,45.555L52.804,45.555z"/>
	<path fill="#FFFFFF" stroke="#58595B" stroke-width="0.78" stroke-miterlimit="10" d="M82.69,8.979
		c-1.014-0.615-1.787-1.014-2.323-1.191C79.573,7.51,78.599,7.37,77.448,7.37H66.129v2.383h14.179v5.778H66.129v25.496
		c0,1.033,0.129,1.937,0.388,2.711c0.198,0.596,0.605,1.438,1.221,2.531H59.16c0.536-0.794,0.884-1.697,1.043-2.71
		c0.099-0.597,0.148-1.439,0.148-2.532V6.834c0-1.071-0.05-1.905-0.148-2.502c-0.18-1.052-0.526-1.966-1.043-2.74h23.53V8.979z
		 M81.976,7.787V2.307H60.411c0.219,0.417,0.382,0.968,0.491,1.652c0.109,0.686,0.164,1.645,0.164,2.874v34.193
		c0,1.033-0.04,1.887-0.119,2.562c-0.079,0.677-0.278,1.331-0.596,1.967h6.195c-0.397-0.716-0.686-1.409-0.863-2.085
		c-0.18-0.676-0.269-1.489-0.269-2.442V14.816h14.178v-4.35H65.415V6.655h12.033c1.072,0,1.931,0.09,2.576,0.269
		C80.669,7.103,81.319,7.391,81.976,7.787z"/>
	<path fill="#FFFFFF" stroke="#58595B" stroke-width="0.78" stroke-miterlimit="10" d="M113.742,0.579
		c0,1.797-0.722,3.318-2.16,4.564c-1.438,1.247-3.103,1.869-4.988,1.869h-4.766v33.989c0,1.038,0.049,1.856,0.147,2.454
		c0.178,0.998,0.506,1.936,0.982,2.812h-8.102c0.537-0.794,0.885-1.697,1.043-2.71c0.1-0.597,0.147-1.439,0.147-2.532V7.013h-5.42
		c-1.59,0-3.336,0.535-5.243,1.607V1.592h22.815c1.092,0,2.174-0.129,3.245-0.387C111.547,1.186,112.312,0.977,113.742,0.579z
		 M113.026,1.532c-1.092,0.298-1.95,0.502-2.575,0.61c-0.627,0.108-1.375,0.164-2.25,0.164H86.101V7.43
		c1.508-0.755,3.019-1.133,4.527-1.133h6.135v34.729c0,1.132-0.029,2.016-0.09,2.651c-0.059,0.636-0.248,1.261-0.564,1.876h5.658
		c-0.258-0.618-0.432-1.326-0.521-2.124c-0.088-0.799-0.134-1.605-0.134-2.425V6.298h5.48c1.588,0,3.012-0.464,4.273-1.393
		C112.129,3.978,112.849,2.854,113.026,1.532z"/>
	<path fill="#FFFFFF" stroke="#58595B" stroke-width="0.78" stroke-miterlimit="10" d="M144.813,1.592
		c-0.715,0.318-1.768,1.083-3.155,2.294c-0.834,0.734-1.748,1.6-2.74,2.592c-0.615,0.636-1.604,1.737-2.965,3.307
		c-1.359,1.568-2.22,2.571-2.576,3.008v28.236c0,1.033,0.051,1.847,0.149,2.442c0.179,0.992,0.507,1.927,0.982,2.8h-8.102
		c0.535-0.794,0.883-1.697,1.043-2.71c0.098-0.597,0.148-1.439,0.148-2.532V13.089c-0.279-0.316-1.162-1.3-2.65-2.947
		c-1.549-1.708-2.492-2.73-2.83-3.068c-0.934-1.032-1.738-1.886-2.412-2.562c-1.252-1.271-2.434-2.242-3.545-2.919h10.9
		c-0.039,0.18-0.06,0.438-0.06,0.774c0,1.033,0.377,1.966,1.131,2.8l2.205,2.502c0.179-0.218,0.524-0.649,1.043-1.296
		c0.517-0.645,0.922-1.166,1.222-1.562c0.477-0.597,0.813-1.121,1.012-1.578c0.199-0.457,0.299-1.003,0.299-1.64H144.813z
		 M142.51,2.307h-7.881c0,0.455-0.119,0.909-0.356,1.364c-0.14,0.259-0.496,0.792-1.072,1.604c-0.398,0.534-0.963,1.257-1.697,2.167
		c-0.238,0.315-0.586,0.741-1.043,1.274l-2.801-3.086c-0.477-0.533-0.834-1.088-1.072-1.662c-0.238-0.572-0.357-1.128-0.357-1.661
		h-7.76c0.617,0.535,1.363,1.278,2.238,2.229c0.615,0.694,1.242,1.379,1.879,2.053c0.438,0.438,1.521,1.606,3.252,3.511
		c0.576,0.635,1.402,1.547,2.477,2.735v28.189c0,1.133-0.028,2.017-0.09,2.651c-0.059,0.637-0.248,1.263-0.565,1.878h5.659
		c-0.258-0.615-0.432-1.32-0.521-2.114c-0.09-0.795-0.135-1.6-0.135-2.413V12.49l5.789-6.491c0.557-0.635,1.146-1.24,1.762-1.815
		C141.026,3.409,141.793,2.783,142.51,2.307z"/>
</g>
<g>
	<path fill="#58595B" d="M-11.156,21.645v5.62h-1.71v-5.62h-2v-1.46h5.71v1.46H-11.156z"/>
	<path fill="#58595B" d="M-5.366,27.264v-2.699c0-0.141-0.01-0.273-0.03-0.4s-0.059-0.238-0.115-0.335s-0.132-0.173-0.225-0.23
		s-0.213-0.085-0.36-0.085c-0.287,0-0.507,0.102-0.66,0.305c-0.153,0.203-0.23,0.454-0.23,0.755v2.689h-1.64v-7.56h1.64v3.21h0.02
		c0.113-0.2,0.293-0.378,0.54-0.535c0.247-0.157,0.543-0.235,0.89-0.235c0.34,0,0.625,0.06,0.855,0.18s0.417,0.275,0.56,0.465
		c0.143,0.19,0.247,0.409,0.31,0.655c0.063,0.247,0.095,0.493,0.095,0.739v3.08H-5.366z"/>
	<path fill="#58595B" d="M2.464,24.835c0,0.066,0,0.134,0,0.2c0,0.067-0.003,0.13-0.01,0.19h-3.61
		c0.013,0.14,0.055,0.266,0.125,0.379c0.07,0.114,0.16,0.213,0.27,0.295c0.11,0.084,0.233,0.148,0.37,0.195
		c0.136,0.047,0.278,0.07,0.425,0.07c0.26,0,0.48-0.049,0.66-0.145c0.18-0.098,0.327-0.223,0.44-0.375l1.14,0.72
		c-0.233,0.34-0.542,0.602-0.925,0.784c-0.383,0.184-0.828,0.275-1.335,0.275c-0.374,0-0.727-0.059-1.06-0.175
		s-0.625-0.286-0.875-0.51s-0.447-0.499-0.59-0.825c-0.144-0.326-0.215-0.699-0.215-1.12c0-0.406,0.07-0.774,0.21-1.105
		c0.14-0.33,0.33-0.61,0.57-0.84c0.24-0.23,0.523-0.408,0.85-0.535c0.327-0.126,0.68-0.19,1.06-0.19c0.367,0,0.703,0.062,1.01,0.185
		c0.307,0.124,0.57,0.302,0.79,0.535c0.22,0.233,0.392,0.517,0.515,0.85C2.402,24.028,2.464,24.409,2.464,24.835z M0.954,24.205
		c0-0.26-0.082-0.483-0.245-0.67c-0.164-0.187-0.409-0.28-0.735-0.28c-0.16,0-0.307,0.025-0.44,0.075
		c-0.133,0.05-0.25,0.119-0.35,0.205c-0.1,0.087-0.18,0.188-0.24,0.305s-0.093,0.239-0.1,0.365H0.954z"/>
</g>
<g>
	<path fill="#58595B" d="M153.884,27.139c-0.46,0.211-0.99,0.315-1.59,0.315c-0.547,0-1.052-0.09-1.516-0.271
		c-0.463-0.18-0.864-0.435-1.204-0.765c-0.341-0.329-0.606-0.725-0.8-1.185c-0.193-0.461-0.291-0.967-0.291-1.52
		c0-0.567,0.099-1.08,0.295-1.54c0.197-0.46,0.469-0.852,0.815-1.175c0.347-0.323,0.753-0.571,1.22-0.745s0.971-0.26,1.511-0.26
		c0.5,0,0.991,0.088,1.475,0.265s0.875,0.435,1.175,0.775l-1.16,1.16c-0.16-0.22-0.369-0.383-0.629-0.49
		c-0.261-0.106-0.527-0.16-0.801-0.16c-0.3,0-0.574,0.055-0.824,0.165c-0.25,0.11-0.466,0.262-0.646,0.455
		c-0.181,0.193-0.32,0.422-0.42,0.685c-0.101,0.264-0.15,0.552-0.15,0.865c0,0.32,0.05,0.614,0.15,0.879
		c0.1,0.268,0.238,0.496,0.415,0.686c0.176,0.189,0.389,0.338,0.635,0.445c0.246,0.106,0.517,0.16,0.811,0.16
		c0.34,0,0.637-0.067,0.89-0.201c0.253-0.133,0.456-0.307,0.61-0.52l1.189,1.12C154.73,26.645,154.344,26.93,153.884,27.139z"/>
	<path fill="#58595B" d="M160.844,24.755c0,0.406-0.073,0.775-0.22,1.105s-0.347,0.609-0.6,0.84
		c-0.254,0.23-0.547,0.408-0.881,0.535c-0.333,0.127-0.689,0.189-1.07,0.189c-0.373,0-0.729-0.062-1.064-0.189
		c-0.337-0.127-0.63-0.305-0.88-0.535s-0.448-0.51-0.595-0.84s-0.221-0.699-0.221-1.105s0.074-0.773,0.221-1.1
		c0.146-0.327,0.345-0.604,0.595-0.83s0.543-0.4,0.88-0.52c0.336-0.12,0.691-0.18,1.064-0.18c0.381,0,0.737,0.06,1.07,0.18
		c0.334,0.12,0.627,0.293,0.881,0.52c0.253,0.227,0.453,0.503,0.6,0.83C160.771,23.981,160.844,24.348,160.844,24.755z
		 M159.264,24.755c0-0.16-0.026-0.316-0.08-0.47s-0.13-0.288-0.229-0.405s-0.224-0.212-0.37-0.285
		c-0.147-0.073-0.317-0.11-0.511-0.11s-0.363,0.037-0.51,0.11s-0.268,0.168-0.365,0.285c-0.096,0.117-0.17,0.251-0.219,0.405
		c-0.051,0.153-0.076,0.31-0.076,0.47s0.025,0.316,0.076,0.471c0.049,0.152,0.125,0.291,0.225,0.414
		c0.1,0.124,0.223,0.223,0.369,0.295c0.146,0.074,0.317,0.11,0.511,0.11s0.363-0.036,0.51-0.11c0.146-0.072,0.271-0.171,0.37-0.295
		c0.1-0.123,0.175-0.262,0.225-0.414C159.239,25.071,159.264,24.915,159.264,24.755z"/>
	<path fill="#58595B" d="M163.634,26.385c0,0.279-0.098,0.513-0.295,0.699s-0.432,0.28-0.705,0.28c-0.14,0-0.271-0.024-0.395-0.075
		c-0.123-0.05-0.232-0.118-0.325-0.205c-0.093-0.086-0.167-0.188-0.22-0.305c-0.054-0.117-0.08-0.245-0.08-0.385
		c0-0.134,0.026-0.26,0.08-0.381c0.053-0.119,0.127-0.225,0.22-0.314s0.202-0.162,0.325-0.215c0.123-0.054,0.255-0.08,0.395-0.08
		c0.273,0,0.508,0.094,0.705,0.279C163.536,25.872,163.634,26.104,163.634,26.385z"/>
</g>
</svg>
