<?xml version="1.0" encoding="utf-8"?>
<!-- Generator: Adobe Illustrator 16.2.1, SVG Export Plug-In . SVG Version: 6.00 Build 0)  -->
<!DOCTYPE svg PUBLIC "-//W3C//DTD SVG 1.1//EN" "http://www.w3.org/Graphics/SVG/1.1/DTD/svg11.dtd">
<svg version="1.1" id="Layer_1" xmlns="http://www.w3.org/2000/svg" xmlns:xlink="http://www.w3.org/1999/xlink" x="0px" y="0px"
	 width="410px" height="194.253px" viewBox="0 0 410 194.253" enable-background="new 0 0 410 194.253" xml:space="preserve">
<g>
	<path fill="#FFFFFF" stroke="#7EC582" stroke-width="3" stroke-miterlimit="10" d="M90.436,165.072H66.341
		c1.594-2.364,2.628-5.051,3.102-8.065c0.293-1.771,0.441-4.284,0.441-7.537v-32.442L30.729,62.469v87.009
		c0,3.072,0.148,5.495,0.444,7.267c0.529,2.954,1.505,5.728,2.922,8.327H10c1.595-2.361,2.628-5.048,3.102-8.06
		c0.294-1.771,0.441-4.281,0.441-7.531V47.785c0-3.189-0.147-5.67-0.441-7.441c-0.534-3.128-1.565-5.847-3.102-8.15h27.639
		c-0.59,1.595-0.886,3.251-0.886,4.961c0,1.714,0.235,3.265,0.708,4.65c0.474,1.389,1.121,2.675,1.949,3.854
		c3.663,5.314,7.499,10.778,11.517,16.39c1.24,1.713,4.961,6.88,11.161,15.501c2.6,3.604,5.196,7.206,7.796,10.808V47.785
		c0-3.189-0.148-5.67-0.441-7.441c-0.534-3.128-1.565-5.847-3.102-8.15h24.095c-1.359,2.48-2.26,5.005-2.701,7.575
		c-0.444,2.567-0.665,5.242-0.665,8.017v101.696c0,3.072,0.148,5.492,0.444,7.264C88.042,159.699,89.019,162.475,90.436,165.072z
		 M86.892,162.946c-0.767-1.83-1.283-3.927-1.551-6.288c-0.264-2.361-0.397-4.755-0.397-7.177V47.785
		c0-3.482,0.162-6.216,0.487-8.193c0.323-1.979,0.811-3.735,1.461-5.271H70.061c0.651,1.239,1.136,2.875,1.461,4.911
		c0.326,2.033,0.488,4.876,0.488,8.533v47.229c-1.952-2.707-3.903-5.446-5.855-8.214c-4.554-6.3-9.079-12.574-13.575-18.815
		c-4.496-6.244-9.495-13.312-14.996-21.202c-0.871-1.186-1.611-2.742-2.219-4.665c-0.609-1.926-0.915-3.778-0.915-5.556
		c0-0.532,0.059-1.272,0.178-2.222H13.721c0.65,1.239,1.136,2.878,1.461,4.917c0.325,2.036,0.487,4.888,0.487,8.548v101.696
		c0,3.366-0.087,5.994-0.267,7.886c-0.175,1.891-0.738,3.749-1.682,5.579h16.831c-0.767-1.827-1.284-3.921-1.551-6.282
		c-0.265-2.358-0.398-4.749-0.398-7.168V55.862L72.01,116.19v33.297c0,3.366-0.087,5.991-0.268,7.883
		c-0.174,1.888-0.737,3.746-1.682,5.576H86.892z"/>
	<path fill="#FFFFFF" stroke="#7EC582" stroke-width="3" stroke-miterlimit="10" d="M129.89,165.072h-24.096
		c1.595-2.361,2.629-5.048,3.103-8.06c0.293-1.771,0.441-4.281,0.441-7.531V47.785c0-3.189-0.148-5.67-0.441-7.441
		c-0.535-3.128-1.565-5.847-3.103-8.15h24.096c-1.359,2.48-2.26,5.005-2.701,7.575c-0.444,2.567-0.665,5.242-0.665,8.017v101.696
		c0,3.072,0.148,5.492,0.444,7.264C127.496,159.699,128.473,162.475,129.89,165.072z M126.346,162.946
		c-0.767-1.83-1.283-3.927-1.551-6.288c-0.264-2.361-0.397-4.755-0.397-7.177V47.785c0-3.482,0.162-6.216,0.487-8.193
		c0.323-1.979,0.811-3.735,1.461-5.271h-16.831c0.65,1.239,1.136,2.878,1.461,4.917c0.325,2.036,0.488,4.888,0.488,8.548v101.696
		c0,3.366-0.087,5.994-0.268,7.886c-0.174,1.891-0.737,3.749-1.682,5.579H126.346z"/>
	<path fill="#FFFFFF" stroke="#7EC582" stroke-width="3" stroke-miterlimit="10" d="M215.229,54.163
		c-3.009-1.83-5.314-3.012-6.908-3.543c-2.361-0.825-5.257-1.24-8.682-1.24h-33.662v7.086h42.167v17.186h-42.167v75.83
		c0,3.072,0.383,5.76,1.153,8.062c0.589,1.771,1.801,4.281,3.63,7.528h-25.513c1.595-2.361,2.629-5.048,3.103-8.06
		c0.293-1.771,0.441-4.281,0.441-7.531V47.785c0-3.189-0.148-5.67-0.441-7.441c-0.535-3.128-1.565-5.847-3.103-8.15h69.981V54.163z
		 M213.104,50.62v-16.3h-64.135c0.65,1.239,1.136,2.878,1.461,4.917c0.325,2.036,0.488,4.888,0.488,8.548v101.696
		c0,3.072-0.119,5.611-0.354,7.618c-0.235,2.01-0.828,3.959-1.771,5.847h18.426c-1.183-2.126-2.039-4.191-2.567-6.201
		c-0.535-2.007-0.799-4.429-0.799-7.264V71.525h42.167V58.591h-42.167V47.252h35.788c3.189,0,5.742,0.268,7.662,0.799
		C209.224,48.583,211.157,49.44,213.104,50.62z"/>
	<path fill="#FFFFFF" stroke="#7EC582" stroke-width="3" stroke-miterlimit="10" d="M307.586,29.181
		c0,5.345-2.144,9.869-6.425,13.575c-4.281,3.709-9.225,5.56-14.836,5.56h-14.174v101.092c0,3.088,0.146,5.521,0.441,7.299
		c0.528,2.969,1.505,5.754,2.922,8.365h-24.096c1.598-2.361,2.632-5.048,3.103-8.06c0.296-1.771,0.441-4.281,0.441-7.531V48.316
		h-16.12c-4.729,0-9.922,1.595-15.591,4.783V32.193h67.854c3.247,0,6.466-0.383,9.654-1.149
		C301.057,30.985,303.333,30.364,307.586,29.181z M305.46,32.016c-3.248,0.886-5.804,1.493-7.662,1.815
		c-1.865,0.325-4.09,0.488-6.692,0.488h-65.728v15.236c4.484-2.242,8.975-3.366,13.465-3.366h18.246v103.291
		c0,3.366-0.087,5.994-0.268,7.886c-0.174,1.891-0.737,3.749-1.679,5.579h16.828c-0.767-1.839-1.283-3.944-1.551-6.317
		c-0.261-2.373-0.395-4.774-0.395-7.209V46.19h16.3c4.723,0,8.957-1.38,12.71-4.142C302.787,39.289,304.925,35.946,305.46,32.016z"
		/>
	<path fill="#FFFFFF" stroke="#7EC582" stroke-width="3" stroke-miterlimit="10" d="M400,32.193
		c-2.127,0.947-5.258,3.222-9.388,6.823c-2.48,2.184-5.199,4.754-8.149,7.705c-1.83,1.891-4.77,5.17-8.818,9.834
		c-4.043,4.665-6.599,7.647-7.662,8.946v83.979c0,3.072,0.151,5.492,0.447,7.264c0.528,2.954,1.505,5.73,2.922,8.327h-24.095
		c1.591-2.361,2.625-5.048,3.102-8.06c0.29-1.771,0.441-4.281,0.441-7.531V66.387c-0.831-0.944-3.456-3.866-7.883-8.769
		c-4.606-5.08-7.412-8.12-8.417-9.126c-2.776-3.069-5.17-5.608-7.174-7.618c-3.724-3.778-7.238-6.671-10.543-8.682h32.419
		c-0.116,0.532-0.174,1.302-0.174,2.304c0,3.073,1.121,5.847,3.363,8.327l6.558,7.441c0.529-0.648,1.563-1.935,3.103-3.854
		c1.533-1.917,2.742-3.468,3.631-4.65c1.417-1.771,2.422-3.334,3.009-4.693c0.593-1.359,0.889-2.982,0.889-4.874H400z
		 M393.145,34.32h-23.438c0,1.353-0.354,2.706-1.063,4.06c-0.412,0.768-1.475,2.355-3.188,4.767
		c-1.186,1.589-2.864,3.738-5.048,6.445c-0.709,0.94-1.743,2.204-3.103,3.793l-8.33-9.178c-1.417-1.589-2.479-3.236-3.188-4.943
		c-0.709-1.705-1.063-3.355-1.063-4.943h-23.078c1.835,1.594,4.055,3.805,6.656,6.634c1.83,2.064,3.695,4.101,5.589,6.104
		c1.301,1.299,4.524,4.778,9.672,10.438c1.713,1.888,4.171,4.601,7.365,8.139v83.84c0,3.369-0.087,5.997-0.268,7.889
		c-0.174,1.891-0.737,3.752-1.685,5.582h16.835c-0.767-1.83-1.284-3.927-1.552-6.288c-0.267-2.364-0.4-4.755-0.4-7.177V64.607
		l17.218-19.306c1.655-1.888,3.404-3.688,5.239-5.402C388.736,37.598,391.014,35.737,393.145,34.32z"/>
</g>
</svg>
