<?xml version="1.0" encoding="utf-8"?>
<!-- Generator: Adobe Illustrator 16.2.1, SVG Export Plug-In . SVG Version: 6.00 Build 0)  -->
<!DOCTYPE svg PUBLIC "-//W3C//DTD SVG 1.1//EN" "http://www.w3.org/Graphics/SVG/1.1/DTD/svg11.dtd">
<svg version="1.1" id="Layer_1" xmlns="http://www.w3.org/2000/svg" xmlns:xlink="http://www.w3.org/1999/xlink" x="0px" y="0px"
	 width="181px" height="181px" viewBox="0 0 181 181" enable-background="new 0 0 181 181" xml:space="preserve">
<g>
	<path fill="#58595B" stroke="#FFFFFF" stroke-miterlimit="10" d="M90.476,0.732c-49.698,0-90,40.302-90,90s40.302,90,90,90
		s90-40.302,90-90S140.174,0.732,90.476,0.732z M156.212,80.23v33.621c0,0.958,0.053,1.916,0.159,2.848s0.307,1.771,0.612,2.489
		h-6.668c0.373-0.719,0.6-1.464,0.666-2.21c0.079-0.744,0.106-1.796,0.106-3.127V80.644c-1.265-1.411-2.235-2.476-2.915-3.221
		c-2.036-2.249-3.313-3.634-3.833-4.14c-0.745-0.798-1.491-1.597-2.21-2.422c-1.037-1.118-1.916-1.997-2.635-2.622h9.144
		c0,0.625,0.133,1.277,0.412,1.956c0.279,0.68,0.706,1.331,1.265,1.957l3.302,3.634c0.531-0.626,0.945-1.132,1.225-1.504
		c0.864-1.065,1.529-1.917,2.009-2.556c0.679-0.945,1.092-1.584,1.251-1.891c0.294-0.532,0.426-1.064,0.426-1.597h9.291
		c-0.853,0.559-1.744,1.291-2.715,2.209c-0.719,0.679-1.412,1.384-2.064,2.13L156.212,80.23z M129.033,72.938h-6.455v40.901
		c0,0.957,0.054,1.902,0.16,2.848c0.093,0.944,0.306,1.77,0.612,2.502h-6.668c0.372-0.719,0.599-1.464,0.666-2.21
		c0.066-0.744,0.104-1.783,0.104-3.127V72.938h-7.227c-1.783,0-3.566,0.439-5.337,1.331v-6.029h26.033
		c1.039,0,1.917-0.067,2.649-0.2c0.746-0.133,1.757-0.373,3.035-0.719c-0.2,1.558-1.052,2.889-2.543,3.979
		C132.587,72.392,130.91,72.938,129.033,72.938z M100.031,74.694c-0.771-0.466-1.544-0.812-2.302-1.024
		c-0.759-0.214-1.771-0.307-3.035-0.307H80.52v4.485h16.704v5.124H80.52v30.879c0,1.131,0.094,2.09,0.307,2.888
		c0.213,0.785,0.559,1.61,1.024,2.449h-7.307c0.373-0.745,0.612-1.517,0.705-2.316c0.094-0.798,0.146-1.796,0.146-3.021V73.563
		c0-1.451-0.066-2.569-0.199-3.381c-0.134-0.812-0.32-1.451-0.572-1.943h25.407V74.694z M57.215,70.183
		c-0.133-0.812-0.319-1.451-0.586-1.943h6.668c-0.252,0.599-0.451,1.305-0.572,2.09c-0.133,0.771-0.199,1.862-0.199,3.234v40.288
		c0,0.958,0.053,1.916,0.16,2.848c0.106,0.932,0.306,1.771,0.611,2.489h-6.668c0.373-0.719,0.6-1.464,0.666-2.21
		c0.08-0.744,0.105-1.783,0.105-3.127V73.563C57.4,72.112,57.334,70.994,57.215,70.183z M39.42,92.276V73.563
		c0-1.451-0.066-2.582-0.199-3.381c-0.121-0.812-0.32-1.465-0.572-1.943h6.668c-0.267,0.599-0.453,1.305-0.586,2.09
		c-0.12,0.771-0.186,1.862-0.186,3.234v40.288c0,0.958,0.053,1.916,0.158,2.848c0.107,0.932,0.307,1.771,0.613,2.489h-6.668
		c0.372-0.719,0.598-1.464,0.665-2.21c0.066-0.744,0.106-1.783,0.106-3.114v-13.203L22.225,76.771v37.094
		c0,0.958,0.053,1.903,0.158,2.835c0.107,0.932,0.307,1.771,0.613,2.489h-6.668c0.372-0.719,0.599-1.464,0.665-2.21
		c0.066-0.744,0.106-1.783,0.106-3.127V73.563c0-1.451-0.066-2.569-0.199-3.381c-0.121-0.812-0.32-1.451-0.572-1.943h8.277
		c-0.039,0.372-0.066,0.665-0.066,0.878c0,0.706,0.12,1.438,0.359,2.196c0.24,0.759,0.533,1.385,0.879,1.85
		c2.183,3.128,4.166,5.924,5.937,8.398c1.783,2.477,3.58,4.952,5.377,7.454C37.876,90.106,38.648,91.198,39.42,92.276z"/>
	<g>
		<path fill="#F1F1F2" d="M84.086,52.256h-0.864v-7.728h-2.844V43.76h6.552v0.768h-2.844V52.256z"/>
		<path fill="#F1F1F2" d="M88.802,47.564c0.152-0.328,0.404-0.588,0.756-0.78c0.352-0.192,0.728-0.288,1.128-0.288
			c0.711,0,1.246,0.212,1.602,0.636c0.355,0.424,0.533,0.984,0.533,1.68v3.444h-0.815v-3.108c0-0.296-0.024-0.564-0.071-0.804
			c-0.049-0.24-0.131-0.446-0.246-0.618c-0.117-0.172-0.272-0.306-0.469-0.402c-0.196-0.096-0.442-0.144-0.738-0.144
			c-0.216,0-0.426,0.044-0.63,0.132s-0.386,0.222-0.546,0.402c-0.16,0.18-0.288,0.408-0.384,0.684S88.778,49,88.778,49.376v2.88
			h-0.816v-9.072h0.816v4.38H88.802z"/>
		<path fill="#F1F1F2" d="M100.046,49.28c0,0.056,0,0.116,0,0.18s-0.004,0.132-0.012,0.204h-4.656
			c0.008,0.28,0.064,0.544,0.168,0.792s0.248,0.464,0.432,0.648c0.185,0.184,0.4,0.33,0.648,0.438s0.516,0.162,0.805,0.162
			c0.424,0,0.789-0.098,1.098-0.294c0.308-0.196,0.541-0.422,0.701-0.678l0.612,0.48c-0.336,0.424-0.706,0.728-1.11,0.912
			c-0.403,0.184-0.838,0.276-1.301,0.276c-0.416,0-0.803-0.074-1.158-0.222c-0.356-0.148-0.662-0.354-0.918-0.618
			c-0.257-0.264-0.459-0.576-0.606-0.936c-0.147-0.36-0.222-0.752-0.222-1.176c0-0.424,0.072-0.816,0.216-1.176
			c0.144-0.36,0.344-0.672,0.6-0.936c0.257-0.264,0.556-0.47,0.9-0.618c0.344-0.148,0.716-0.222,1.116-0.222
			c0.439,0,0.828,0.074,1.164,0.222c0.336,0.148,0.615,0.348,0.84,0.6c0.224,0.252,0.394,0.546,0.51,0.882
			C99.987,48.536,100.046,48.896,100.046,49.28z M99.218,49.016c-0.023-0.528-0.193-0.966-0.51-1.314
			c-0.316-0.348-0.766-0.522-1.35-0.522c-0.272,0-0.524,0.05-0.756,0.15c-0.232,0.1-0.437,0.236-0.612,0.408
			c-0.177,0.172-0.316,0.368-0.421,0.588c-0.104,0.22-0.164,0.45-0.18,0.69H99.218z"/>
	</g>
	<g>
		<g>
			<path fill="#F1F1F2" d="M89.978,138.015c-0.144,0.216-0.318,0.42-0.522,0.612c-0.204,0.192-0.44,0.361-0.708,0.508
				s-0.564,0.262-0.888,0.348c-0.324,0.086-0.678,0.128-1.062,0.128c-0.64,0-1.232-0.112-1.776-0.336
				c-0.544-0.224-1.012-0.534-1.404-0.93s-0.698-0.866-0.918-1.41s-0.33-1.14-0.33-1.788s0.112-1.244,0.336-1.788
				c0.224-0.544,0.534-1.014,0.93-1.409c0.396-0.396,0.864-0.707,1.404-0.931s1.126-0.336,1.758-0.336
				c0.312,0,0.618,0.032,0.918,0.098c0.3,0.065,0.582,0.156,0.846,0.274c0.264,0.117,0.504,0.26,0.72,0.424
				c0.216,0.166,0.396,0.352,0.54,0.561l-0.72,0.527c-0.088-0.136-0.206-0.271-0.354-0.408c-0.148-0.136-0.322-0.256-0.522-0.359
				c-0.2-0.104-0.418-0.188-0.654-0.252c-0.236-0.064-0.49-0.096-0.762-0.096c-0.552,0-1.046,0.1-1.482,0.299
				s-0.806,0.469-1.11,0.807c-0.304,0.34-0.536,0.732-0.696,1.179c-0.16,0.446-0.24,0.917-0.24,1.411s0.082,0.965,0.246,1.412
				c0.164,0.446,0.398,0.839,0.702,1.178c0.304,0.339,0.674,0.607,1.11,0.807c0.436,0.2,0.926,0.3,1.47,0.3
				c0.488,0,0.952-0.101,1.392-0.3c0.44-0.2,0.808-0.521,1.104-0.961L89.978,138.015z"/>
			<path fill="#F1F1F2" d="M96.854,136.586c0,0.425-0.074,0.816-0.223,1.177s-0.354,0.672-0.618,0.937
				c-0.264,0.264-0.58,0.469-0.948,0.617c-0.367,0.148-0.771,0.223-1.211,0.223c-0.433,0-0.833-0.074-1.201-0.223
				c-0.367-0.148-0.684-0.354-0.947-0.617c-0.264-0.265-0.471-0.576-0.618-0.937c-0.148-0.36-0.222-0.752-0.222-1.177
				c0-0.424,0.074-0.815,0.222-1.176c0.147-0.359,0.354-0.672,0.618-0.936s0.58-0.47,0.947-0.618
				c0.368-0.147,0.769-0.222,1.201-0.222c0.439,0,0.844,0.074,1.211,0.222c0.368,0.148,0.685,0.354,0.948,0.618
				c0.265,0.264,0.47,0.576,0.618,0.936C96.78,135.771,96.854,136.162,96.854,136.586z M95.989,136.586
				c0-0.312-0.049-0.605-0.149-0.881c-0.101-0.276-0.242-0.517-0.426-0.721c-0.185-0.203-0.408-0.365-0.673-0.486
				c-0.264-0.119-0.56-0.18-0.887-0.18c-0.328,0-0.623,0.061-0.883,0.18c-0.26,0.121-0.482,0.283-0.666,0.486
				c-0.184,0.204-0.326,0.444-0.426,0.721c-0.1,0.275-0.15,0.569-0.15,0.881c0,0.312,0.051,0.606,0.15,0.883
				c0.1,0.275,0.242,0.516,0.426,0.72s0.406,0.364,0.666,0.479c0.26,0.117,0.555,0.175,0.883,0.175c0.327,0,0.623-0.058,0.887-0.175
				c0.265-0.115,0.488-0.275,0.673-0.479c0.184-0.204,0.325-0.444,0.426-0.72C95.94,137.192,95.989,136.898,95.989,136.586z"/>
			<path fill="#F1F1F2" d="M99.59,138.818c0,0.168-0.06,0.318-0.181,0.45c-0.119,0.132-0.275,0.198-0.467,0.198
				c-0.192,0-0.349-0.066-0.469-0.198c-0.119-0.132-0.18-0.282-0.18-0.45s0.061-0.318,0.18-0.449
				c0.12-0.133,0.276-0.199,0.469-0.199c0.191,0,0.348,0.066,0.467,0.199C99.53,138.5,99.59,138.65,99.59,138.818z"/>
		</g>
	</g>
</g>
</svg>
