<?xml version="1.0" encoding="utf-8"?>
<!-- Generator: Adobe Illustrator 16.2.1, SVG Export Plug-In . SVG Version: 6.00 Build 0)  -->
<!DOCTYPE svg PUBLIC "-//W3C//DTD SVG 1.1//EN" "http://www.w3.org/Graphics/SVG/1.1/DTD/svg11.dtd">
<svg version="1.1" id="Layer_1" xmlns="http://www.w3.org/2000/svg" xmlns:xlink="http://www.w3.org/1999/xlink" x="0px" y="0px"
	 width="400px" height="138.319px" viewBox="0 0 400 138.319" enable-background="new 0 0 400 138.319" xml:space="preserve">
<g>
	<path fill="#FFFFFF" d="M81.874,138.319H57.348c1.623-2.404,2.675-5.14,3.156-8.206c0.301-1.803,0.451-4.362,0.451-7.674V89.418
		L21.099,33.884v88.565c0,3.127,0.151,5.591,0.451,7.395c0.541,3.006,1.533,5.83,2.976,8.476H0c1.623-2.404,2.675-5.14,3.156-8.206
		c0.301-1.803,0.451-4.357,0.451-7.664V18.936c0-3.246-0.15-5.771-0.451-7.574C2.615,8.176,1.563,5.41,0,3.066h28.133
		c-0.602,1.622-0.902,3.305-0.902,5.049c0,1.743,0.241,3.326,0.722,4.738c0.48,1.413,1.142,2.716,1.983,3.918
		c3.727,5.41,7.634,10.971,11.722,16.682c1.263,1.743,5.05,7.004,11.362,15.779c2.645,3.667,5.29,7.334,7.935,11.001V18.936
		c0-3.246-0.15-5.771-0.451-7.574c-0.542-3.186-1.593-5.951-3.156-8.295h24.526c-1.382,2.523-2.304,5.099-2.755,7.714
		c-0.451,2.614-0.671,5.33-0.671,8.155v103.514c0,3.127,0.15,5.591,0.451,7.395C79.438,132.85,80.431,135.674,81.874,138.319z
		 M78.267,136.155c-0.782-1.862-1.312-3.997-1.583-6.401s-0.401-4.84-0.401-7.305V18.936c0-3.546,0.16-6.322,0.491-8.335
		c0.331-2.015,0.832-3.808,1.493-5.37H61.134c0.662,1.262,1.152,2.925,1.483,5c0.331,2.073,0.501,4.969,0.501,8.685v48.076
		c-1.994-2.761-3.978-5.546-5.961-8.36c-4.638-6.413-9.247-12.799-13.816-19.156c-4.578-6.352-9.668-13.546-15.268-21.58
		c-0.882-1.203-1.643-2.786-2.255-4.75c-0.621-1.953-0.931-3.842-0.931-5.65c0-0.541,0.06-1.298,0.18-2.264H3.787
		c0.662,1.262,1.152,2.935,1.483,5.01c0.331,2.073,0.501,4.969,0.501,8.695v103.514c0,3.427-0.09,6.102-0.271,8.025
		c-0.18,1.924-0.751,3.818-1.713,5.681h17.132c-0.781-1.858-1.312-3.987-1.583-6.392c-0.27-2.404-0.401-4.84-0.401-7.299V27.16
		l44.183,61.406v33.894c0,3.427-0.09,6.096-0.271,8.021c-0.18,1.924-0.751,3.812-1.713,5.675H78.267z"/>
	<path fill="#FFFFFF" d="M128.09,138.319h-24.526c1.623-2.404,2.675-5.14,3.156-8.206c0.301-1.803,0.451-4.357,0.451-7.664V18.936
		c0-3.246-0.15-5.771-0.451-7.574c-0.541-3.186-1.592-5.951-3.156-8.295h24.526c-1.382,2.523-2.304,5.099-2.755,7.714
		c-0.451,2.614-0.671,5.33-0.671,8.155v103.514c0,3.127,0.151,5.591,0.451,7.395C125.656,132.85,126.647,135.674,128.09,138.319z
		 M124.483,136.155c-0.781-1.862-1.312-3.997-1.583-6.401s-0.401-4.84-0.401-7.305V18.936c0-3.546,0.16-6.322,0.491-8.335
		c0.331-2.015,0.832-3.808,1.493-5.37h-17.132c0.661,1.262,1.152,2.935,1.482,5.01c0.331,2.073,0.501,4.969,0.501,8.695v103.514
		c0,3.427-0.09,6.102-0.271,8.025c-0.18,1.924-0.751,3.818-1.713,5.681H124.483z"/>
	<path fill="#FFFFFF" d="M221.004,25.428c-3.065-1.863-5.41-3.066-7.033-3.606c-2.404-0.841-5.35-1.263-8.836-1.263h-34.264v7.214
		h42.92v17.493h-42.92v77.184c0,3.127,0.391,5.861,1.172,8.206c0.601,1.804,1.833,4.358,3.697,7.664h-25.969
		c1.624-2.404,2.675-5.14,3.156-8.206c0.3-1.803,0.45-4.357,0.45-7.664V18.936c0-3.246-0.15-5.771-0.45-7.574
		c-0.541-3.186-1.593-5.951-3.156-8.295h71.233V25.428z M218.84,21.821V5.23h-65.282c0.661,1.262,1.162,2.935,1.493,5.01
		c0.33,2.073,0.49,4.969,0.49,8.695v103.514c0,3.127-0.12,5.711-0.36,7.755c-0.24,2.044-0.841,4.028-1.804,5.951h18.756
		c-1.203-2.164-2.074-4.269-2.615-6.312s-0.811-4.509-0.811-7.395V43.102h42.92V29.937h-42.92V18.395h36.428
		c3.246,0,5.851,0.271,7.805,0.812C214.893,19.748,216.856,20.619,218.84,21.821z"/>
	<path fill="#FFFFFF" d="M315.011,0c0,5.441-2.175,10.049-6.532,13.821c-4.358,3.772-9.397,5.655-15.108,5.655h-14.427v102.902
		c0,3.141,0.15,5.617,0.451,7.425c0.54,3.025,1.532,5.86,2.975,8.516h-24.525c1.623-2.404,2.675-5.14,3.156-8.206
		c0.3-1.803,0.45-4.357,0.45-7.664V19.477h-16.411c-4.809,0-10.099,1.623-15.869,4.869V3.066h69.068
		c3.307,0,6.583-0.391,9.829-1.172C308.368,1.834,310.683,1.202,315.011,0z M312.847,2.887c-3.307,0.9-5.901,1.521-7.795,1.852
		c-1.894,0.331-4.168,0.492-6.813,0.492h-66.904v15.508c4.568-2.283,9.137-3.426,13.705-3.426h18.575v105.137
		c0,3.427-0.091,6.102-0.271,8.025s-0.752,3.818-1.713,5.681h17.132c-0.782-1.868-1.302-4.013-1.573-6.427
		c-0.271-2.415-0.41-4.865-0.41-7.339V17.312h16.591c4.81,0,9.127-1.402,12.944-4.213C310.131,10.289,312.305,6.883,312.847,2.887z"
		/>
	<path fill="#FFFFFF" d="M400,3.066c-2.164,0.961-5.35,3.276-9.558,6.942c-2.525,2.225-5.291,4.839-8.296,7.845
		c-1.863,1.924-4.859,5.26-8.977,10.01c-4.118,4.748-6.713,7.784-7.795,9.106v85.479c0,3.127,0.15,5.591,0.451,7.395
		c0.54,3.006,1.532,5.83,2.976,8.476h-24.526c1.623-2.404,2.675-5.14,3.156-8.206c0.301-1.803,0.45-4.357,0.45-7.664V37.871
		c-0.841-0.961-3.517-3.938-8.024-8.927c-4.688-5.17-7.544-8.266-8.566-9.287c-2.825-3.126-5.26-5.711-7.304-7.755
		c-3.787-3.847-7.364-6.793-10.729-8.836h33.001c-0.12,0.541-0.18,1.322-0.18,2.344c0,3.125,1.142,5.951,3.426,8.477l6.673,7.574
		c0.541-0.662,1.593-1.965,3.156-3.918c1.562-1.953,2.795-3.536,3.696-4.738c1.443-1.804,2.465-3.397,3.066-4.779
		c0.601-1.383,0.901-3.035,0.901-4.959H400z M393.017,5.23h-23.854c0,1.383-0.36,2.755-1.082,4.138
		c-0.421,0.776-1.503,2.394-3.246,4.849c-1.202,1.618-2.915,3.808-5.14,6.562c-0.721,0.951-1.773,2.244-3.156,3.857l-8.476-9.344
		c-1.442-1.617-2.524-3.291-3.246-5.028c-0.722-1.739-1.082-3.412-1.082-5.034H320.24c1.863,1.622,4.128,3.877,6.772,6.752
		c1.864,2.104,3.768,4.178,5.691,6.217c1.322,1.317,4.608,4.864,9.838,10.625c1.753,1.924,4.248,4.684,7.504,8.285v85.34
		c0,3.427-0.09,6.102-0.271,8.025c-0.18,1.924-0.751,3.818-1.713,5.681h17.132c-0.781-1.862-1.312-3.997-1.583-6.401
		s-0.4-4.84-0.4-7.305V36.062l17.522-19.652c1.684-1.922,3.467-3.756,5.33-5.5C388.528,8.566,390.853,6.673,393.017,5.23z"/>
</g>
</svg>
