<?xml version="1.0" encoding="utf-8"?>
<!-- Generator: Adobe Illustrator 16.2.1, SVG Export Plug-In . SVG Version: 6.00 Build 0)  -->
<!DOCTYPE svg PUBLIC "-//W3C//DTD SVG 1.1//EN" "http://www.w3.org/Graphics/SVG/1.1/DTD/svg11.dtd">
<svg version="1.1" id="Layer_1" xmlns="http://www.w3.org/2000/svg" xmlns:xlink="http://www.w3.org/1999/xlink" x="0px" y="0px"
	 width="410px" height="194.253px" viewBox="0 0 410 194.253" enable-background="new 0 0 410 194.253" xml:space="preserve">
<g>
	<path fill="#FFFFFF" stroke="#7EC582" stroke-width="3" stroke-miterlimit="10" d="M90.649,162.557H66.716
		c1.584-2.349,2.609-5.019,3.08-8.013c0.293-1.76,0.439-4.255,0.439-7.484v-32.227l-38.892-54.19v86.425
		c0,3.051,0.146,5.457,0.44,7.217c0.528,2.934,1.496,5.69,2.904,8.272H10.754c1.584-2.346,2.609-5.016,3.08-8.007
		c0.293-1.76,0.44-4.253,0.44-7.479V46.058c0-3.168-0.147-5.632-0.44-7.392c-0.528-3.108-1.555-5.808-3.08-8.095h27.453
		c-0.587,1.583-0.88,3.227-0.88,4.927c0,1.702,0.234,3.242,0.704,4.62c0.469,1.379,1.113,2.654,1.936,3.827
		c3.637,5.279,7.449,10.706,11.438,16.278c1.232,1.702,4.928,6.834,11.087,15.398c2.581,3.579,5.161,7.157,7.743,10.734V46.058
		c0-3.168-0.146-5.632-0.439-7.392c-0.528-3.108-1.556-5.808-3.08-8.095h23.934c-1.351,2.463-2.244,4.971-2.684,7.522
		c-0.44,2.552-0.66,5.207-0.66,7.964V147.07c0,3.051,0.146,5.455,0.44,7.215C88.273,157.22,89.241,159.976,90.649,162.557z
		 M87.13,160.445c-0.764-1.818-1.276-3.901-1.54-6.248c-0.264-2.346-0.396-4.721-0.396-7.127V46.058c0-3.461,0.16-6.174,0.483-8.14
		c0.322-1.965,0.806-3.709,1.452-5.235H70.411c0.646,1.23,1.129,2.855,1.452,4.877c0.322,2.021,0.484,4.846,0.484,8.477v46.913
		c-1.938-2.69-3.879-5.41-5.817-8.16c-4.523-6.258-9.018-12.488-13.483-18.689c-4.465-6.2-9.43-13.221-14.894-21.06
		c-0.866-1.177-1.602-2.721-2.207-4.634c-0.605-1.912-0.907-3.752-0.907-5.517c0-0.529,0.058-1.266,0.176-2.207H14.45
		c0.645,1.231,1.128,2.859,1.452,4.884c0.322,2.023,0.484,4.854,0.484,8.491V147.07c0,3.344-0.088,5.954-0.264,7.831
		c-0.176,1.878-0.734,3.726-1.672,5.544h16.718c-0.763-1.816-1.276-3.896-1.54-6.241c-0.264-2.344-0.396-4.718-0.396-7.121V54.078
		l43.116,59.924v33.072c0,3.344-0.088,5.953-0.265,7.83c-0.176,1.877-0.733,3.723-1.672,5.541H87.13z"/>
	<path fill="#FFFFFF" stroke="#7EC582" stroke-width="3" stroke-miterlimit="10" d="M135.747,162.557h-23.934
		c1.584-2.346,2.609-5.016,3.08-8.007c0.292-1.76,0.439-4.253,0.439-7.479V46.058c0-3.168-0.147-5.632-0.439-7.392
		c-0.528-3.108-1.556-5.808-3.08-8.095h23.934c-1.351,2.463-2.244,4.971-2.684,7.522c-0.44,2.552-0.66,5.207-0.66,7.964V147.07
		c0,3.051,0.146,5.455,0.439,7.215C133.371,157.22,134.339,159.976,135.747,162.557z M132.228,160.445
		c-0.764-1.818-1.276-3.901-1.54-6.248c-0.264-2.346-0.396-4.721-0.396-7.127V46.058c0-3.461,0.16-6.174,0.483-8.14
		c0.322-1.965,0.806-3.709,1.452-5.235h-16.719c0.646,1.231,1.129,2.859,1.452,4.884c0.321,2.023,0.484,4.854,0.484,8.491V147.07
		c0,3.344-0.089,5.954-0.265,7.831c-0.176,1.878-0.734,3.726-1.672,5.544H132.228z"/>
	<path fill="#FFFFFF" stroke="#7EC582" stroke-width="3" stroke-miterlimit="10" d="M226.424,52.393
		c-2.992-1.817-5.279-2.992-6.863-3.52c-2.347-0.821-5.222-1.232-8.623-1.232h-33.437v7.04h41.884V71.75h-41.884v75.32
		c0,3.051,0.381,5.72,1.144,8.007c0.586,1.76,1.789,4.254,3.608,7.479h-25.342c1.584-2.346,2.609-5.016,3.08-8.007
		c0.292-1.76,0.439-4.253,0.439-7.479V46.058c0-3.168-0.147-5.632-0.439-7.392c-0.528-3.108-1.556-5.808-3.08-8.095h69.513V52.393z
		 M224.312,48.873v-16.19h-63.705c0.646,1.231,1.129,2.859,1.452,4.884c0.321,2.023,0.484,4.854,0.484,8.491V147.07
		c0,3.051-0.118,5.573-0.353,7.567c-0.235,1.995-0.822,3.931-1.76,5.808h18.302c-1.174-2.112-2.023-4.165-2.552-6.16
		c-0.527-1.993-0.791-4.399-0.791-7.215V69.639h41.883V56.792H175.39V45.529h35.548c3.168,0,5.704,0.264,7.611,0.792
		C220.454,46.849,222.376,47.7,224.312,48.873z"/>
	<path fill="#FFFFFF" stroke="#7EC582" stroke-width="3" stroke-miterlimit="10" d="M318.156,27.579
		c0,5.309-2.127,9.803-6.379,13.484c-4.254,3.682-9.166,5.521-14.738,5.521H282.96v100.414c0,3.065,0.146,5.481,0.44,7.248
		c0.527,2.947,1.496,5.717,2.903,8.31H262.37c1.584-2.346,2.609-5.016,3.08-8.007c0.293-1.76,0.439-4.253,0.439-7.479V46.585
		h-16.014c-4.694,0-9.855,1.584-15.486,4.752V30.571h67.4c3.226,0,6.424-0.381,9.591-1.145
		C311.674,29.369,313.933,28.753,318.156,27.579z M316.045,30.395c-3.227,0.88-5.764,1.482-7.611,1.804
		c-1.848,0.323-4.062,0.484-6.644,0.484h-65.289v15.135c4.458-2.229,8.916-3.344,13.375-3.344h18.126V147.07
		c0,3.344-0.088,5.954-0.264,7.831c-0.177,1.878-0.734,3.726-1.672,5.544h16.718c-0.763-1.826-1.275-3.919-1.54-6.275
		c-0.264-2.356-0.396-4.743-0.396-7.16V44.474h16.19c4.692,0,8.9-1.371,12.626-4.114C313.39,37.618,315.517,34.297,316.045,30.395z"
		/>
	<path fill="#FFFFFF" stroke="#7EC582" stroke-width="3" stroke-miterlimit="10" d="M401.09,30.571
		c-2.111,0.938-5.222,3.197-9.327,6.774c-2.464,2.171-5.162,4.723-8.095,7.655c-1.819,1.878-4.738,5.134-8.755,9.768
		c-4.019,4.635-6.556,7.597-7.611,8.887v83.415c0,3.051,0.146,5.455,0.439,7.215c0.528,2.935,1.496,5.69,2.904,8.271h-23.934
		c1.584-2.346,2.609-5.016,3.079-8.007c0.293-1.76,0.44-4.253,0.44-7.479V64.535c-0.822-0.938-3.432-3.841-7.831-8.711
		c-4.575-5.044-7.362-8.065-8.359-9.063c-2.758-3.049-5.134-5.572-7.127-7.566c-3.695-3.754-7.187-6.629-10.471-8.623h32.204
		c-0.118,0.527-0.176,1.291-0.176,2.287c0,3.051,1.113,5.808,3.344,8.271l6.511,7.391c0.528-0.645,1.554-1.92,3.08-3.827
		c1.524-1.905,2.728-3.445,3.607-4.619c1.408-1.76,2.405-3.313,2.992-4.664c0.585-1.349,0.88-2.961,0.88-4.839H401.09z
		 M394.28,32.683h-23.283c0,1.345-0.352,2.689-1.056,4.032c-0.411,0.761-1.467,2.339-3.168,4.735
		c-1.174,1.578-2.846,3.712-5.016,6.399c-0.703,0.936-1.73,2.192-3.079,3.771l-8.271-9.118c-1.407-1.578-2.464-3.215-3.167-4.91
		c-0.704-1.693-1.057-3.331-1.057-4.909H323.26c1.82,1.582,4.024,3.779,6.61,6.59c1.82,2.051,3.671,4.072,5.552,6.062
		c1.292,1.29,4.494,4.746,9.605,10.369c1.704,1.876,4.143,4.57,7.315,8.085v83.275c0,3.346-0.088,5.956-0.264,7.834
		s-0.734,3.728-1.672,5.547h16.719c-0.764-1.818-1.276-3.901-1.54-6.248s-0.396-4.723-0.396-7.128V62.768l17.103-19.177
		c1.644-1.877,3.378-3.665,5.201-5.366C389.901,35.938,392.164,34.091,394.28,32.683z"/>
</g>
</svg>
