<?xml version="1.0" encoding="utf-8"?>
<!-- Generator: Adobe Illustrator 16.2.1, SVG Export Plug-In . SVG Version: 6.00 Build 0)  -->
<!DOCTYPE svg PUBLIC "-//W3C//DTD SVG 1.1//EN" "http://www.w3.org/Graphics/SVG/1.1/DTD/svg11.dtd">
<svg version="1.1" id="Layer_1" xmlns="http://www.w3.org/2000/svg" xmlns:xlink="http://www.w3.org/1999/xlink" x="0px" y="0px"
	 width="400px" height="138.318px" viewBox="0 0 400 138.318" enable-background="new 0 0 400 138.318" xml:space="preserve">
<g>
	<path fill="#FFFFFF" d="M85.436,137.105H61.341c1.594-2.363,2.628-5.051,3.102-8.064c0.293-1.771,0.441-4.285,0.441-7.537V89.06
		L25.729,34.503v87.008c0,3.072,0.148,5.496,0.444,7.268c0.529,2.953,1.505,5.727,2.922,8.326H5
		c1.595-2.361,2.628-5.047,3.102-8.059c0.294-1.771,0.441-4.281,0.441-7.531V19.818c0-3.189-0.147-5.67-0.441-7.441
		C7.567,9.249,6.536,6.531,5,4.226h27.639c-0.59,1.596-0.886,3.252-0.886,4.961c0,1.715,0.235,3.266,0.708,4.65
		c0.474,1.389,1.121,2.676,1.949,3.855c3.663,5.314,7.499,10.777,11.517,16.389c1.24,1.713,4.961,6.881,11.161,15.502
		c2.6,3.604,5.196,7.205,7.796,10.807V19.818c0-3.189-0.148-5.67-0.441-7.441c-0.534-3.127-1.565-5.846-3.102-8.15h24.095
		c-1.359,2.48-2.26,5.006-2.701,7.576c-0.444,2.566-0.665,5.242-0.665,8.016v101.697c0,3.072,0.148,5.492,0.444,7.264
		C83.042,131.732,84.019,134.509,85.436,137.105z M81.892,134.98c-0.767-1.83-1.283-3.928-1.551-6.289
		c-0.264-2.361-0.397-4.754-0.397-7.176V19.818c0-3.482,0.162-6.215,0.487-8.193c0.323-1.979,0.811-3.734,1.461-5.271H65.061
		c0.651,1.24,1.136,2.875,1.461,4.912c0.326,2.033,0.488,4.875,0.488,8.533v47.229c-1.952-2.707-3.903-5.445-5.855-8.213
		c-4.554-6.301-9.079-12.574-13.575-18.816c-4.496-6.244-9.495-13.311-14.996-21.201c-0.871-1.186-1.611-2.742-2.219-4.666
		c-0.609-1.926-0.915-3.777-0.915-5.555c0-0.533,0.059-1.273,0.178-2.223H8.721c0.65,1.24,1.136,2.879,1.461,4.918
		c0.325,2.035,0.487,4.887,0.487,8.547v101.697c0,3.365-0.087,5.994-0.267,7.885c-0.175,1.891-0.738,3.75-1.682,5.58h16.831
		c-0.767-1.828-1.284-3.922-1.551-6.283c-0.265-2.357-0.398-4.748-0.398-7.168V27.896L67.01,88.224v33.297
		c0,3.365-0.087,5.99-0.268,7.883c-0.174,1.887-0.737,3.746-1.682,5.576H81.892z"/>
	<path fill="#FFFFFF" d="M124.89,137.105h-24.096c1.595-2.361,2.629-5.047,3.103-8.059c0.293-1.771,0.441-4.281,0.441-7.531V19.818
		c0-3.189-0.148-5.67-0.441-7.441c-0.535-3.127-1.565-5.846-3.103-8.15h24.096c-1.359,2.48-2.26,5.006-2.701,7.576
		c-0.444,2.566-0.665,5.242-0.665,8.016v101.697c0,3.072,0.148,5.492,0.444,7.264C122.496,131.732,123.473,134.509,124.89,137.105z
		 M121.346,134.98c-0.767-1.83-1.283-3.928-1.551-6.289c-0.264-2.361-0.397-4.754-0.397-7.176V19.818
		c0-3.482,0.162-6.215,0.487-8.193c0.323-1.979,0.811-3.734,1.461-5.271h-16.831c0.65,1.24,1.136,2.879,1.461,4.918
		c0.325,2.035,0.488,4.887,0.488,8.547v101.697c0,3.365-0.087,5.994-0.268,7.885c-0.174,1.891-0.737,3.75-1.682,5.58H121.346z"/>
	<path fill="#FFFFFF" d="M210.229,26.197c-3.009-1.83-5.314-3.012-6.908-3.543c-2.361-0.826-5.257-1.24-8.682-1.24h-33.662v7.086
		h42.167v17.186h-42.167v75.83c0,3.072,0.383,5.76,1.153,8.062c0.589,1.771,1.801,4.281,3.63,7.527h-25.513
		c1.595-2.361,2.629-5.047,3.103-8.059c0.293-1.771,0.441-4.281,0.441-7.531V19.818c0-3.189-0.148-5.67-0.441-7.441
		c-0.535-3.127-1.565-5.846-3.103-8.15h69.981V26.197z M208.104,22.654V6.353h-64.135c0.65,1.24,1.136,2.879,1.461,4.918
		c0.325,2.035,0.488,4.887,0.488,8.547v101.697c0,3.072-0.119,5.611-0.354,7.617c-0.235,2.01-0.828,3.959-1.771,5.848h18.426
		c-1.183-2.127-2.039-4.191-2.567-6.201c-0.535-2.008-0.799-4.43-0.799-7.264V43.558h42.167V30.624h-42.167V19.286h35.788
		c3.189,0,5.742,0.268,7.662,0.799C204.224,20.616,206.157,21.474,208.104,22.654z"/>
	<path fill="#FFFFFF" d="M302.586,1.214c0,5.346-2.144,9.869-6.425,13.576c-4.281,3.709-9.225,5.559-14.836,5.559h-14.174v101.092
		c0,3.088,0.146,5.521,0.441,7.299c0.528,2.969,1.505,5.754,2.922,8.365h-24.096c1.598-2.361,2.632-5.047,3.103-8.059
		c0.296-1.771,0.441-4.281,0.441-7.531V20.349h-16.12c-4.729,0-9.922,1.596-15.591,4.783V4.226h67.854
		c3.247,0,6.466-0.383,9.654-1.148C296.057,3.019,298.333,2.398,302.586,1.214z M300.46,4.05c-3.248,0.885-5.804,1.492-7.662,1.814
		c-1.865,0.326-4.09,0.488-6.692,0.488h-65.728v15.236c4.484-2.242,8.975-3.365,13.465-3.365h18.246v103.291
		c0,3.365-0.087,5.994-0.268,7.885c-0.174,1.891-0.737,3.75-1.679,5.58h16.828c-0.767-1.84-1.283-3.945-1.551-6.318
		c-0.261-2.373-0.395-4.773-0.395-7.209V18.224h16.3c4.723,0,8.957-1.381,12.71-4.143C297.787,11.322,299.925,7.98,300.46,4.05z"/>
	<path fill="#FFFFFF" d="M395,4.226c-2.127,0.947-5.258,3.223-9.388,6.824c-2.48,2.184-5.199,4.754-8.149,7.705
		c-1.83,1.891-4.77,5.17-8.818,9.834c-4.043,4.664-6.599,7.646-7.662,8.945v83.98c0,3.072,0.151,5.492,0.447,7.264
		c0.528,2.953,1.505,5.73,2.922,8.326h-24.095c1.591-2.361,2.625-5.047,3.102-8.059c0.29-1.771,0.441-4.281,0.441-7.531V38.421
		c-0.831-0.945-3.456-3.867-7.883-8.77c-4.606-5.08-7.412-8.119-8.417-9.125c-2.776-3.07-5.17-5.609-7.174-7.619
		c-3.724-3.777-7.238-6.67-10.543-8.682h32.419c-0.116,0.533-0.174,1.303-0.174,2.305c0,3.072,1.121,5.846,3.363,8.326l6.558,7.441
		c0.529-0.648,1.563-1.934,3.103-3.854c1.533-1.918,2.742-3.469,3.631-4.65c1.417-1.771,2.422-3.334,3.009-4.693
		c0.593-1.359,0.889-2.982,0.889-4.875H395z M388.145,6.353h-23.438c0,1.354-0.354,2.707-1.063,4.061
		c-0.412,0.768-1.475,2.355-3.188,4.766c-1.186,1.59-2.864,3.738-5.048,6.445c-0.709,0.941-1.743,2.205-3.103,3.793l-8.33-9.178
		c-1.417-1.588-2.479-3.236-3.188-4.943c-0.709-1.705-1.063-3.355-1.063-4.943h-23.078c1.835,1.594,4.055,3.805,6.656,6.635
		c1.83,2.064,3.695,4.1,5.589,6.104c1.301,1.299,4.524,4.779,9.672,10.439c1.713,1.887,4.171,4.6,7.365,8.139v83.84
		c0,3.369-0.087,5.996-0.268,7.889c-0.174,1.891-0.737,3.752-1.685,5.582h16.835c-0.767-1.83-1.284-3.928-1.552-6.289
		c-0.267-2.363-0.4-4.754-0.4-7.176V36.64l17.218-19.305c1.655-1.889,3.404-3.689,5.239-5.402
		C383.736,9.632,386.014,7.771,388.145,6.353z"/>
</g>
</svg>
