<?xml version="1.0" encoding="utf-8"?>
<!-- Generator: Adobe Illustrator 16.2.1, SVG Export Plug-In . SVG Version: 6.00 Build 0)  -->
<!DOCTYPE svg PUBLIC "-//W3C//DTD SVG 1.1//EN" "http://www.w3.org/Graphics/SVG/1.1/DTD/svg11.dtd">
<svg version="1.1" id="Layer_1" xmlns="http://www.w3.org/2000/svg" xmlns:xlink="http://www.w3.org/1999/xlink" x="0px" y="0px"
	 width="158.699px" height="83.258px" viewBox="0 0 158.699 83.258" enable-background="new 0 0 158.699 83.258"
	 xml:space="preserve">
<path id="rect13131-6" fill="#808080" stroke="#666666" stroke-width="3" stroke-miterlimit="10" d="M73.173,6.629
	c-4.117,0-7.766,4.145-8.236,8.235l-1.415,12.353h-6.819c-2.059,0-4.118,2.059-4.118,4.118l-4.117,41.176
	c0,2.06,2.058,4.118,4.117,4.118h53.53c2.058,0,4.116-2.058,4.116-4.118l-4.116-41.176c0-2.059-2.059-4.118-4.119-4.118h-6.818
	l-1.415-12.353c-0.469-4.091-4.118-8.235-8.237-8.235H73.173z M73.173,10.746h12.352c2.061,0,3.885,2.073,4.119,4.118l1.415,12.353
	H67.641l1.416-12.353C69.291,12.819,71.115,10.746,73.173,10.746z"/>
</svg>
