<?xml version="1.0" encoding="utf-8"?>
<!-- Generator: Adobe Illustrator 16.2.1, SVG Export Plug-In . SVG Version: 6.00 Build 0)  -->
<!DOCTYPE svg PUBLIC "-//W3C//DTD SVG 1.1//EN" "http://www.w3.org/Graphics/SVG/1.1/DTD/svg11.dtd">
<svg version="1.1" id="Layer_1" xmlns="http://www.w3.org/2000/svg" xmlns:xlink="http://www.w3.org/1999/xlink" x="0px" y="0px"
	 width="75px" height="75px" viewBox="0 0 75 75" enable-background="new 0 0 75 75" xml:space="preserve">
<circle fill="#666666" cx="37.5" cy="37.5" r="36.5"/>
<circle fill="#808080" cx="37.5" cy="37.198" r="35"/>
<path fill="#CCCCCC" d="M53,17.256c-13.583-0.452-24.709,4.559-24.709,4.559l-0.008,25.427c-1.383-0.55-3.065-0.68-4.773-0.265
	c-3.683,0.896-6.094,3.981-5.386,6.896s4.267,4.551,7.949,3.657c3.472-0.845,5.813-3.637,5.477-6.396l0,0V32.136
	c0,0,7.868-2.751,18.072-3.44v14.129l0,0c-1.367-0.523-3.018-0.643-4.694-0.234c-3.683,0.895-6.095,3.98-5.387,6.896
	c0.708,2.913,4.267,4.55,7.949,3.656c3.216-0.782,5.462-3.234,5.51-5.784L53,47.361C53,47.36,53,22.417,53,17.256z"/>
</svg>
