<?xml version="1.0" encoding="utf-8"?>
<!-- Generator: Adobe Illustrator 16.2.1, SVG Export Plug-In . SVG Version: 6.00 Build 0)  -->
<!DOCTYPE svg PUBLIC "-//W3C//DTD SVG 1.1//EN" "http://www.w3.org/Graphics/SVG/1.1/DTD/svg11.dtd">
<svg version="1.1" id="Layer_1" xmlns="http://www.w3.org/2000/svg" xmlns:xlink="http://www.w3.org/1999/xlink" x="0px" y="0px"
	 width="158.699px" height="83.258px" viewBox="0 0 158.699 83.258" enable-background="new 0 0 158.699 83.258"
	 xml:space="preserve">
<g>
	<path fill="#808080" d="M68.196,55.569c-1.541,1.54-1.541,4.039,0,5.574c1.542,1.542,4.038,1.542,5.577,0l25.091-25.09
		c3.08-3.08,8.075-3.08,11.154,0c3.077,3.079,3.077,8.073,0,11.153l-24.609,24.61c3.077,3.08,8.07,3.08,11.15,0l19.036-19.035
		c6.157-6.159,6.157-16.144,0-22.303c-6.16-6.16-16.147-6.16-22.305,0L68.196,55.569z"/>
	<path fill="#808080" d="M107.231,38.84c-1.541-1.539-4.038-1.539-5.579,0L76.561,63.934c-3.079,3.081-8.074,3.081-11.153,0
		c-1.539-1.54-4.036-1.54-5.575,0c-1.542,1.54-1.542,4.037,0,5.577c6.158,6.157,16.145,6.157,22.304,0l25.095-25.093
		C108.77,42.878,108.77,40.381,107.231,38.84z"/>
	<path fill="#808080" d="M65.408,52.779l25.093-25.091c1.54-1.539,1.54-4.037,0-5.576c-1.539-1.54-4.036-1.54-5.576,0L59.834,47.205
		c-3.082,3.08-8.074,3.08-11.152,0c-3.083-3.079-3.083-8.072,0-11.152l24.608-24.61c-3.08-3.081-8.073-3.081-11.152,0L43.104,30.477
		c-6.159,6.161-6.159,16.146,0,22.305C49.265,58.939,59.249,58.939,65.408,52.779z"/>
	<path fill="#808080" d="M51.468,44.418c1.539,1.539,4.035,1.539,5.575,0l25.096-25.092c3.078-3.08,8.069-3.08,11.149,0
		c1.541,1.54,4.038,1.54,5.576,0c1.541-1.541,1.541-4.037,0-5.577c-6.16-6.16-16.144-6.16-22.304,0L51.468,38.84
		C49.927,40.381,49.927,42.878,51.468,44.418z"/>
</g>
</svg>
