<?xml version="1.0" encoding="utf-8"?>
<!-- Generator: Adobe Illustrator 16.2.1, SVG Export Plug-In . SVG Version: 6.00 Build 0)  -->
<!DOCTYPE svg PUBLIC "-//W3C//DTD SVG 1.1//EN" "http://www.w3.org/Graphics/SVG/1.1/DTD/svg11.dtd">
<svg version="1.1" id="Layer_1" xmlns="http://www.w3.org/2000/svg" xmlns:xlink="http://www.w3.org/1999/xlink" x="0px" y="0px"
	 width="210px" height="62.966px" viewBox="0 0 210 62.966" enable-background="new 0 0 210 62.966" xml:space="preserve">
<path fill-rule="evenodd" clip-rule="evenodd" fill="#DF5826" d="M37.75,9.411c-8.425-3.802-20.655-5.539-31.175,0.637
	C1.342,12.931-1.552,26.204,7.71,30.324c3.708,1.297,6.825,2.109,11.254,2.173c2.033,0.072,2.235,3.495-1.546,3.383
	c-4.619,0.057-8.673-1.179-11.663-3.519c-2.747-2.209-8.583,6.97-4.14,10.036c7.073,4.626,15.741,5.071,27.27,3.727
	c15.899-3.619,16.205-21.418,2.799-23.863l-7.503-1.594c-2.36-0.006-2.221-3.42,0.414-3.458c3.682,0.181,5.144,1.607,7.796,3.604
	C37.95,24.949,44.074,11.939,37.75,9.411"/>
<path fill-rule="evenodd" clip-rule="evenodd" fill="#DF5826" d="M46.735,17.891h4.539c2.589,0,5.012,0.845,7.048,2.295
	c0.046,0.054,0.112,0.065,0.165,0.065c0.194,0,0.365-0.169,0.365-0.376v-0.006v-0.586c0-0.768,0.597-1.393,1.31-1.393h18.861
	c0.727,0,1.326,0.625,1.326,1.393v4.745c0,0.772-0.6,1.393-1.326,1.393h-1.154h-0.016h-0.012c-0.726,0-1.324,0.615-1.329,1.38
	v10.598v5.722v9.965c0.007,0.196,0.16,0.346,0.345,0.357h2.109c0.729,0,1.327,0.628,1.327,1.369v4.754
	c0,0.76-0.598,1.378-1.327,1.378h-22.57c-0.729,0-1.32-0.618-1.32-1.378v-4.754c0-0.741,0.592-1.369,1.32-1.369h2.122
	c0.163-0.012,0.317-0.149,0.334-0.326v-8.2c0-0.205-0.171-0.376-0.365-0.376c-0.062,0-0.13,0.02-0.188,0.067
	c-2.028,1.442-4.443,2.29-7.024,2.29h-4.539c-7.201,0-13.086-6.521-13.086-14.499C33.649,24.414,39.534,17.891,46.735,17.891
	 M53.831,28.269h1.99c1.836,0,2.971,1.856,2.971,4.13c0,2.27-1.135,4.124-2.971,4.124h-1.99c-1.825,0-2.833-1.854-2.833-4.124
	C50.998,30.125,52.005,28.269,53.831,28.269"/>
<path fill-rule="evenodd" clip-rule="evenodd" fill="#DF5826" d="M178.72,39.003h2.533c0.188-0.003,0.336-0.161,0.342-0.355
	l0.038-27.817h-2.597c-0.727,0-1.322-0.621-1.322-1.394V6.413c0-2.651,3.453-3.05,10.978-3.101h1.432h7.82
	c0.728,0,1.328,0.621,1.328,1.39v2.535v0.004v31.406c0.004,0.194,0.151,0.353,0.337,0.355h1.695c0.718,0,1.317,0.619,1.317,1.392
	v4.741c0,0.771-0.6,1.391-1.317,1.391H178.72c-0.72,0-1.318-0.62-1.318-1.391v-4.741C177.402,39.622,178,39.003,178.72,39.003"/>
<path fill-rule="evenodd" clip-rule="evenodd" fill="#DF5826" d="M89.025,17.895c0.937,0,1.169,0.605,1.489,1.379l6.458,14.483
	c0,0,0.003,0.007,0.003,0.01l0.002,0.006c0.055,0.104,0.18,0.212,0.315,0.212c0.129,0,0.239-0.091,0.306-0.183
	c1.638-2.575,3.087-4.853,4.603-7.205l-0.552-1.014c-0.067-0.111-0.169-0.161-0.288-0.162h-0.005h-2.859
	c-0.729,0-1.329-0.624-1.329-1.393v-3.01c0-3.137,4.312-3.126,15.183-3.128l4.618,0.004c0.953,0,1.173,0.605,1.51,1.379
	l6.447,14.483c0.047,0.115,0.176,0.228,0.33,0.228c0.118,0,0.233-0.088,0.288-0.169c1.774-2.793,3.337-5.24,4.987-7.808
	c0.035-0.071,0.07-0.146,0.07-0.209c0-0.207-0.166-0.378-0.36-0.378h-2.018c-0.71,0-1.308-0.624-1.308-1.393v-4.744
	c0-0.769,0.598-1.394,1.308-1.394h17.822c0.729,0,1.313,0.625,1.313,1.394v4.744c0,0.769-0.585,1.393-1.313,1.393h-4.005h-0.005
	h-0.002c-0.117,0.001-0.222,0.05-0.287,0.158l-12.982,20.406c-0.083,0.121-0.18,0.203-0.294,0.298
	c-0.095,0.068-0.22,0.121-0.338,0.175c-0.146,0.047-0.271,0.068-0.406,0.068h-13.739h-0.021c-0.495,0-0.927-0.286-1.146-0.692
	l-0.004-0.025c-0.005-0.016-0.019-0.028-0.025-0.036l-5.208-9.456h-0.012c-0.065-0.092-0.159-0.186-0.307-0.186
	c-0.105,0-0.211,0.058-0.271,0.157l-6.189,9.697c-0.082,0.121-0.18,0.203-0.28,0.298c-0.111,0.068-0.228,0.121-0.36,0.175
	c-0.118,0.047-0.255,0.068-0.403,0.068H86.021h-0.006c-0.49,0-0.919-0.286-1.15-0.692l-0.003-0.025
	c-0.004-0.016-0.012-0.028-0.016-0.036L73.689,25.583c-0.062-0.111-0.161-0.161-0.273-0.162h-0.007H70.54
	c-0.732,0-1.318-0.624-1.318-1.393v-3.01c0-3.137,4.307-3.126,15.164-3.128L89.025,17.895z"/>
<path fill-rule="evenodd" clip-rule="evenodd" fill="#DF5826" d="M163.815,22.097c1.039-1.377,2.533-2.531,4.362-3.212
	c4.927-1.843,16.258-2.526,16.258,5.57c0,8.852-13.422,13.854-15.729,6.486c-0.466-1.022-1.459-1.754-2.608-1.754
	c-1.59,0-2.882,1.368-2.882,3.021v0.011v0.01v6.442c0.011,0.187,0.168,0.332,0.348,0.332h2.105c0.727,0,1.326,0.619,1.326,1.392
	v4.741c0,0.772-0.6,1.391-1.326,1.391h-22.574c-0.735,0-1.317-0.618-1.317-1.391v-4.741c0-0.772,0.582-1.392,1.317-1.392h2.099
	c0.188-0.003,0.348-0.161,0.355-0.362V25.42c-0.866,0-1.736,0.002-2.601,0.002c-0.729,0-1.327-0.621-1.327-1.394v-3.01
	c0-2.784,3.418-3.094,11.831-3.123c0.072-0.009,0.145-0.014,0.208-0.014h8.241c0.729,0,1.314,0.62,1.314,1.393v2.532v0.001v0.003
	c0,0.199,0.164,0.377,0.357,0.377C163.67,22.188,163.756,22.154,163.815,22.097"/>
<polygon fill="#FFFFFF" points="86.065,49.016 86.065,50.674 84.103,50.674 84.103,54.084 85.983,54.084 85.983,55.741 
	84.103,55.741 84.103,59.342 86.091,59.342 86.091,61.014 82.5,61.014 82.5,49.016 "/>
<polygon fill="#FFFFFF" points="89.415,61.014 88.042,51.613 89.571,51.613 90.375,58.283 91.184,51.613 92.622,51.613 
	91.258,61.014 "/>
<path fill="#FFFFFF" d="M96.074,56.988v1.941c0,0.443,0.186,0.642,0.544,0.642h0.192c0.381,0,0.553-0.198,0.553-0.642V57.95h1.459
	v1.081c0,1.388-0.613,2.086-1.831,2.086h-0.578c-1.217,0-1.833-0.698-1.833-2.086V53.58c0-1.372,0.616-2.083,1.833-2.083h0.578
	c1.218,0,1.831,0.711,1.831,2.083v3.408H96.074z M96.074,55.523h1.267V53.67c0-0.434-0.18-0.642-0.555-0.642h-0.168
	c-0.358,0-0.544,0.208-0.544,0.642V55.523z"/>
<path fill="#FFFFFF" d="M101.143,51.613h1.497v1.001c0.346-0.75,0.677-1.102,1.281-1.102v1.93c-0.561,0.055-0.946,0.228-1.269,0.538
	v7.033h-1.51V51.613z"/>
<polygon fill="#FFFFFF" points="106.746,62.908 107.179,60.663 105.625,51.613 107.128,51.613 107.924,57.336 108.818,51.613 
	110.269,51.613 108.208,62.908 "/>
<polygon fill="#FFFFFF" points="114.146,61.014 112.631,61.014 112.631,53.108 112.097,53.108 112.097,51.613 112.631,51.613 
	112.631,50.058 114.146,50.058 114.146,51.613 114.935,51.613 114.935,53.108 114.146,53.108 "/>
<path fill="#FFFFFF" d="M117.037,48.84h1.51v3.396c0.383-0.398,0.8-0.739,1.427-0.739h0.068c0.872,0,1.328,0.572,1.328,1.611v7.905
	h-1.519v-7.385c0-0.365-0.137-0.546-0.493-0.546c-0.288,0-0.529,0.089-0.812,0.279v7.651h-1.51V48.84z"/>
<path fill="#FFFFFF" d="M123.713,49.146h1.582v1.676h-1.582V49.146z M123.737,51.613h1.528v9.4h-1.528V51.613z"/>
<path fill="#FFFFFF" d="M127.666,51.613h1.513v0.623c0.384-0.398,0.807-0.739,1.431-0.739h0.063c0.878,0,1.33,0.568,1.33,1.611
	v7.905h-1.52v-7.385c0-0.367-0.144-0.545-0.484-0.545c-0.298,0-0.539,0.089-0.812,0.278v7.651h-1.521V51.613z"/>
<path fill="#FFFFFF" d="M138.672,60.952c0,1.379-0.56,2.014-1.765,2.014h-0.961c-1.086,0-1.598-0.572-1.598-1.809v-0.524h1.38v0.404
	c0,0.346,0.15,0.544,0.463,0.544h0.522c0.312,0,0.471-0.198,0.471-0.544v-1.58c-0.398,0.383-0.844,0.646-1.422,0.646h-0.024
	c-0.928,0-1.42-0.661-1.42-1.768v-5.063c0-1.113,0.492-1.774,1.42-1.774h0.024c0.623,0,1.069,0.341,1.422,0.661v-0.545h1.487V60.952
	z M137.175,53.376c-0.229-0.187-0.504-0.293-0.797-0.293c-0.368,0-0.549,0.18-0.549,0.587v4.318c0,0.411,0.181,0.582,0.549,0.582
	c0.293,0,0.568-0.126,0.797-0.305V53.376z"/>
<path fill="#FFFFFF" d="M149.147,56.105v2.778c0,1.485-0.645,2.233-1.94,2.233h-0.792c-1.304,0-1.961-0.748-1.961-2.233v-7.756
	c0-1.481,0.657-2.221,1.961-2.221h0.777c1.299,0,1.925,0.724,1.925,2.21v2.453h-1.577v-2.336c0-0.479-0.19-0.722-0.591-0.722h-0.274
	c-0.424,0-0.615,0.242-0.615,0.722v7.578c0,0.468,0.191,0.686,0.615,0.686h0.3c0.406,0,0.602-0.218,0.602-0.686v-2.707H149.147z"/>
<path fill="#FFFFFF" d="M153.296,61.119c-1.215,0-1.824-0.7-1.824-2.087v-5.451c0-1.377,0.609-2.084,1.824-2.084h0.705
	c1.215,0,1.832,0.707,1.832,2.084v5.451c0,1.387-0.617,2.087-1.832,2.087H153.296z M153.525,53.071c-0.355,0-0.54,0.2-0.54,0.627
	v5.212c0,0.432,0.185,0.633,0.54,0.633h0.244c0.373,0,0.549-0.201,0.549-0.633v-5.212c0-0.427-0.176-0.627-0.549-0.627H153.525z"/>
<rect x="158.174" y="48.84" fill="#FFFFFF" width="1.517" height="12.174"/>
<rect x="162.136" y="48.84" fill="#FFFFFF" width="1.511" height="12.174"/>
<path fill="#FFFFFF" d="M167.525,56.988v1.941c0,0.443,0.179,0.642,0.538,0.642h0.192c0.373,0,0.552-0.198,0.552-0.642V57.95h1.458
	v1.081c0,1.388-0.612,2.086-1.831,2.086h-0.573c-1.223,0-1.828-0.698-1.828-2.086V53.58c0-1.372,0.605-2.083,1.828-2.083h0.573
	c1.219,0,1.831,0.711,1.831,2.083v3.408H167.525z M167.525,55.523h1.26V53.67c0-0.434-0.187-0.642-0.555-0.642h-0.167
	c-0.359,0-0.538,0.208-0.538,0.642V55.523z"/>
<path fill="#FFFFFF" d="M175.349,53.698c0-0.427-0.181-0.627-0.554-0.627h-0.179c-0.359,0-0.542,0.2-0.542,0.627v5.212
	c0,0.432,0.183,0.633,0.542,0.633h0.193c0.369,0,0.55-0.201,0.55-0.633v-1.888h1.479v2.009c0,1.388-0.612,2.087-1.824,2.087h-0.63
	c-1.216,0-1.826-0.699-1.826-2.087v-5.45c0-1.377,0.61-2.084,1.826-2.084h0.63c1.202,0,1.814,0.684,1.814,2.073v1.727h-1.48V53.698z
	"/>
<polygon fill="#FFFFFF" points="180.911,61.014 179.403,61.014 179.403,53.108 178.867,53.108 178.867,51.613 179.403,51.613 
	179.403,50.058 180.911,50.058 180.911,51.613 181.709,51.613 181.709,53.108 180.911,53.108 "/>
<path fill="#FFFFFF" d="M183.804,49.146h1.581v1.676h-1.581V49.146z M183.839,51.613h1.507v9.4h-1.507V51.613z"/>
<path fill="#FFFFFF" d="M187.757,48.841h1.515v3.405c0.351-0.382,0.799-0.749,1.425-0.749h0.011c0.913,0,1.407,0.661,1.407,1.774
	v6.07c0,1.113-0.494,1.777-1.407,1.777h-0.011c-0.626,0-1.099-0.34-1.434-0.664v0.559h-1.506V48.841z M189.272,59.234
	c0.23,0.195,0.497,0.297,0.799,0.297c0.358,0,0.54-0.161,0.54-0.571v-5.289c0-0.408-0.182-0.588-0.54-0.588
	c-0.302,0-0.568,0.106-0.799,0.293V59.234z"/>
<rect x="194.487" y="48.84" fill="#FFFFFF" width="1.508" height="12.174"/>
<path fill="#FFFFFF" d="M199.875,56.988v1.941c0,0.443,0.178,0.642,0.542,0.642h0.19c0.374,0,0.563-0.198,0.563-0.642V57.95h1.451
	v1.081c0,1.388-0.616,2.086-1.832,2.086h-0.581c-1.216,0-1.83-0.698-1.83-2.086V53.58c0-1.372,0.614-2.083,1.83-2.083h0.581
	c1.216,0,1.832,0.711,1.832,2.083v3.408H199.875z M199.875,55.523h1.264V53.67c0-0.434-0.179-0.642-0.556-0.642h-0.166
	c-0.364,0-0.542,0.208-0.542,0.642V55.523z"/>
<path fill="#DF5826" d="M202.371,0.744c-0.014,0.679-0.014,2.196,0.004,2.474c0.011,0.233,0.107,0.41,0.402,0.41h0.199v0.674
	c0,0-0.797-0.014-1.26-0.014c-0.444,0-1.249,0.014-1.249,0.014c0.002-0.141,0.002-0.562,0-0.674h0.192c0.291,0,0.4-0.167,0.421-0.41
	c0.009-0.279,0.013-1.795,0.004-2.474h-0.254c-0.354,0-0.48,0.215-0.498,0.547l-0.021,0.53c-0.146-0.01-0.572-0.01-0.712,0
	c0.015-0.432,0-1.39-0.035-1.821c0.276,0.016,0.514,0.021,1.214,0.021h1.893c0.68,0,0.991-0.005,1.207-0.021
	c-0.033,0.432-0.051,1.39-0.033,1.821c-0.139-0.01-0.564-0.01-0.705,0l-0.027-0.53c-0.015-0.332-0.142-0.547-0.491-0.547H202.371z"
	/>
<path fill="#DF5826" d="M205.396,1.551c-0.005,0.389-0.009,1.351,0.006,1.598c0.02,0.329,0.127,0.479,0.414,0.479h0.248
	c-0.002,0.114-0.002,0.534,0,0.676c0,0-0.614-0.016-0.955-0.016c-0.34,0-0.955,0.016-0.955,0.016c0.007-0.142,0.007-0.562,0-0.676
	h0.203c0.272,0,0.382-0.149,0.396-0.479c0.019-0.288,0.019-1.759,0-2.077c-0.015-0.25-0.14-0.394-0.375-0.394h-0.218V0.016
	c0.503,0.01,1.562,0.01,2.075,0c0.205,0.439,0.646,1.347,0.979,1.945c0.312-0.67,0.698-1.506,0.896-1.945
	c0.459,0.01,1.442,0.01,1.889,0c-0.005,0.143-0.005,0.55,0,0.662h-0.192c-0.23,0-0.347,0.167-0.358,0.396
	c-0.021,0.294-0.021,1.763,0,2.119c0.012,0.284,0.074,0.434,0.362,0.434H210c-0.005,0.114-0.005,0.534,0,0.676
	c0,0-0.798-0.016-1.241-0.016c-0.453,0-1.239,0.016-1.239,0.016V3.627h0.2c0.263,0,0.349-0.172,0.364-0.445
	c0.01-0.271,0.01-1.199,0.006-1.684c-0.36,0.721-0.92,1.859-1.17,2.436h-0.301C206.353,3.357,205.757,2.217,205.396,1.551"/>
</svg>
