<?xml version="1.0" encoding="utf-8"?>
<!-- Generator: Adobe Illustrator 16.2.1, SVG Export Plug-In . SVG Version: 6.00 Build 0)  -->
<!DOCTYPE svg PUBLIC "-//W3C//DTD SVG 1.1//EN" "http://www.w3.org/Graphics/SVG/1.1/DTD/svg11.dtd">
<svg version="1.1" id="Layer_1" xmlns="http://www.w3.org/2000/svg" xmlns:xlink="http://www.w3.org/1999/xlink" x="0px" y="0px"
	 width="49px" height="49px" viewBox="0 0 49 49" enable-background="new 0 0 49 49" xml:space="preserve">
<circle fill="none" stroke="#FFFFFF" stroke-width="3" stroke-miterlimit="10" cx="24.5" cy="24.5" r="23"/>
<g>
	<g>
		<g id="Livello_x0020_1_9_">
			<path fill="#7EC582" d="M38.5,15.822c-1.034,0.453-2.14,0.762-3.3,0.901c1.188-0.71,2.099-1.835,2.521-3.18
				c-1.11,0.663-2.339,1.138-3.645,1.394c-1.05-1.112-2.541-1.81-4.195-1.81c-3.17,0-5.743,2.571-5.743,5.743
				c0,0.451,0.05,0.889,0.149,1.307c-4.773-0.238-9.006-2.529-11.837-5.999c-0.496,0.847-0.778,1.83-0.778,2.886
				c0,1.988,1.017,3.75,2.559,4.781c-0.943-0.033-1.828-0.292-2.604-0.723c0,0.026,0,0.047,0,0.073c0,2.784,1.981,5.103,4.607,5.626
				c-0.479,0.135-0.991,0.199-1.514,0.199c-0.368,0-0.73-0.033-1.079-0.102c0.73,2.279,2.853,3.945,5.363,3.99
				c-1.967,1.541-4.439,2.461-7.137,2.461c-0.462,0-0.917-0.029-1.368-0.082c2.539,1.633,5.561,2.584,8.807,2.584
				c10.562,0,16.338-8.752,16.338-16.337c0-0.255,0-0.503-0.013-0.75c1.123-0.804,2.096-1.821,2.864-2.974L38.5,15.822z"/>
		</g>
	</g>
</g>
</svg>
