<?xml version="1.0" encoding="utf-8"?>
<!-- Generator: Adobe Illustrator 16.2.1, SVG Export Plug-In . SVG Version: 6.00 Build 0)  -->
<!DOCTYPE svg PUBLIC "-//W3C//DTD SVG 1.1//EN" "http://www.w3.org/Graphics/SVG/1.1/DTD/svg11.dtd">
<svg version="1.1" id="Layer_1" xmlns="http://www.w3.org/2000/svg" xmlns:xlink="http://www.w3.org/1999/xlink" x="0px" y="0px"
	 width="158.699px" height="83.258px" viewBox="0 0 158.699 83.258" enable-background="new 0 0 158.699 83.258"
	 xml:space="preserve">
<rect x="51.683" y="23.462" fill="#CCCCCC" width="55.333" height="33.333"/>
<g>
	<path fill="#808080" stroke="#666666" stroke-width="3" stroke-miterlimit="10" d="M120.998,21.323
		c-1.057-4.57-4.811-7.938-9.328-8.441c-10.698-1.191-21.526-1.934-32.309-1.928c-10.781-0.006-21.61,0.737-32.311,1.928
		c-4.517,0.503-8.269,3.871-9.324,8.441c-1.501,6.506-1.52,13.607-1.52,20.307c0,6.699,0,13.8,1.502,20.308
		c1.056,4.565,4.808,7.938,9.325,8.438c10.698,1.191,21.526,1.934,32.31,1.929c10.781,0.005,21.611-0.737,32.309-1.929
		c4.518-0.501,8.271-3.872,9.327-8.438c1.501-6.508,1.513-13.608,1.513-20.308S122.5,27.829,120.998,21.323 M94.061,43.617
		l-20.34,10.996c-2.021,1.095-3.677,0.107-3.677-2.19V30.836c0-2.299,1.654-3.286,3.677-2.192l20.34,10.998
		C96.084,40.734,96.084,42.523,94.061,43.617"/>
</g>
</svg>
