<?xml version="1.0" encoding="utf-8"?>
<!-- Generator: Adobe Illustrator 16.2.1, SVG Export Plug-In . SVG Version: 6.00 Build 0)  -->
<!DOCTYPE svg PUBLIC "-//W3C//DTD SVG 1.1//EN" "http://www.w3.org/Graphics/SVG/1.1/DTD/svg11.dtd">
<svg version="1.1" id="Layer_1" xmlns="http://www.w3.org/2000/svg" xmlns:xlink="http://www.w3.org/1999/xlink" x="0px" y="0px"
	 width="58.457px" height="115px" viewBox="0 0 58.457 115" enable-background="new 0 0 58.457 115" xml:space="preserve">
<path fill="#808080" d="M28.355,0c6.808,0,11.603,4.55,12.324,12.322l1.123,17.221H12.621l1.125-17.221
	C14.467,4.55,19.264,0,26.066,0H28.355L28.355,0z M53.991,68.28l1.452,0.828l-0.131,1.076l3.145,1.795
	c-0.404,3.381-1.438,6.237-2.826,7.987l-1.4-0.801l-0.085,0.729l-1.554-0.89c-0.365,2.034-0.772,3.958-1.213,5.754h-2.693
	l-1.588,5.386h-4.922L42.6,84.76H27.227H11.848l0.425,5.386H7.356L5.77,84.76H3.075C1.286,77.433,0.012,67.993,0,57.55v-0.118
	c0.012-10.438,1.286-19.884,3.075-27.211H5.77l1.587-5.383h4.916l-0.425,5.383h15.379H42.6l-0.422-5.383h4.918l1.586,5.383h2.691
	c0.438,1.785,0.846,3.694,1.206,5.715l1.562-0.894l0.088,0.726l1.4-0.8c1.387,1.753,2.422,4.607,2.825,7.991l-3.146,1.793
	l0.133,1.076l-1.457,0.833c0.175,2.032,0.302,4.13,0.382,6.278c0.174-0.115,0.396-0.172,0.633-0.146l0.888,0.088
	c0.592,0.059,1.068,0.585,1.068,1.18v0.059c0.424,0.64,0.713,1.9,0.713,3.352c0,1.509-0.312,2.812-0.761,3.427
	c-0.011,0.588-0.493,1.107-1.085,1.166l-0.88,0.088c-0.218,0.022-0.416-0.022-0.576-0.108C54.291,64.181,54.164,66.261,53.991,68.28
	L53.991,68.28z M27.227,36.98H7.525c-0.592,0-1.072,0.479-1.072,1.073v38.883c0,0.588,0.48,1.068,1.072,1.068h19.701h19.697
	c0.592,0,1.071-0.48,1.071-1.068V38.054c0-0.594-0.479-1.073-1.071-1.073H27.227L27.227,36.98z M36.371,42.602l-7.668,14.416
	c-0.26-0.854-1.208-1.271-1.986-0.879l-1.606-0.787l-3.854-8.66l0.334-1.972l1.688,1.071l4.049,9.1l7.092-13.33l1.758-0.949
	L36.371,42.602L36.371,42.602z M34.286,43.048L28.53,53.876c-0.071,0.129-0.021,0.291,0.108,0.358l0.44,0.236
	c0.132,0.07,0.293,0.021,0.366-0.111l5.757-10.824c0.07-0.131,0.022-0.294-0.114-0.364l-0.44-0.233
	C34.518,42.869,34.354,42.918,34.286,43.048L34.286,43.048z M22.346,47.71l3.472,7.792c0.062,0.139,0.218,0.199,0.354,0.141
	l0.455-0.203c0.137-0.062,0.196-0.224,0.139-0.357l-3.471-7.794c-0.062-0.134-0.222-0.196-0.354-0.136l-0.456,0.205
	C22.348,47.417,22.287,47.572,22.346,47.71L22.346,47.71z M28.788,71.325v-0.309h-1.45v0.693h0.336v-0.385h0.744L27.6,73.45h0.377
	L28.788,71.325L28.788,71.325z M27.159,73.45V73.14h-0.993l0.764-0.934c0.15-0.186,0.229-0.312,0.229-0.527
	c0-0.422-0.288-0.684-0.704-0.684c-0.412,0-0.708,0.273-0.708,0.688h0.349c0-0.273,0.174-0.377,0.36-0.377
	c0.226,0,0.354,0.152,0.354,0.367c0,0.125-0.035,0.214-0.131,0.326l-0.937,1.139v0.312L27.159,73.45L27.159,73.45z M25.532,70.966
	c0-0.164,0.134-0.299,0.302-0.299h2.838c0.164,0,0.299,0.135,0.299,0.299v2.717c0,0.168-0.135,0.301-0.299,0.301h-2.838
	c-0.168,0-0.302-0.133-0.302-0.301V70.966L25.532,70.966z M14.965,57.436c0,0.547,0.443,0.987,0.99,0.987
	c0.545,0,0.985-0.44,0.985-0.987c0-0.438-0.282-0.809-0.675-0.938l-0.16-4.985h-0.15h-0.15l-0.162,4.985
	C15.249,56.627,14.965,56.996,14.965,57.436L14.965,57.436z M9.676,53.208c0-1.183,0.959-2.14,2.143-2.14h8.345
	c1.185,0,2.142,0.957,2.142,2.14v0.769l-1.985-0.975l-0.987,2.324l2.975,1.105v5.075c0,1.184-0.959,2.145-2.143,2.145h-8.345
	c-1.183,0-2.142-0.961-2.142-2.145v-8.299H9.676z M39.485,57.436c0-0.438-0.285-0.809-0.679-0.938l-0.16-4.985h-0.148h-0.152
	l-0.162,4.985c-0.395,0.131-0.672,0.5-0.672,0.938c0,0.547,0.439,0.987,0.986,0.987C39.043,58.423,39.485,57.982,39.485,57.436
	L39.485,57.436z M32.146,58.553v-5.345c0-1.183,0.959-2.14,2.143-2.14h8.342c1.185,0,2.145,0.957,2.145,2.14v8.3
	c0,0.902-0.559,1.677-1.348,1.992L32.146,58.553L32.146,58.553z M29.199,59.095l0.626,1.407l-2.022,0.901l-0.652-1.467l-0.916,1.727
	l-0.977-0.523l-0.979-0.514l1.534-2.885l0.191,0.071c0.264,0.848,1.25,1.243,2.025,0.807L29.199,59.095L29.199,59.095z
	 M40.305,63.651h-6.017c-1.185,0-2.144-0.959-2.144-2.145v-1.201L40.305,63.651L40.305,63.651z M27.006,58.191
	c-0.322-0.141-0.521-0.447-0.527-0.776l-6.438-2.394l0.549-1.289l6.168,3.021c0.244-0.223,0.604-0.297,0.926-0.16
	c0.336,0.143,0.537,0.475,0.529,0.816l16.94,7.432l-0.04,0.095l-0.041,0.094l-17.114-7.024
	C27.715,58.247,27.342,58.334,27.006,58.191L27.006,58.191z M14.944,77.435l1.431-2.574c0.071-0.127,0.233-0.174,0.363-0.104
	l1.006,0.562c0.131,0.072,0.178,0.231,0.105,0.363l-0.975,1.756L14.944,77.435L14.944,77.435z M6.989,58.283v-1.686h1.022
	c0.146,0,0.269,0.119,0.269,0.269v1.151c0,0.146-0.121,0.268-0.269,0.268L6.989,58.283L6.989,58.283z M47.432,58.283H46.41
	c-0.148,0-0.268-0.119-0.268-0.268v-1.149c0-0.148,0.117-0.269,0.268-0.269h1.021V58.283L47.432,58.283z M47.432,46.546
	l-2.164,1.298c-0.127,0.077-0.291,0.035-0.365-0.092l-0.596-0.986c-0.076-0.125-0.035-0.293,0.093-0.367l3.032-1.823V46.546
	L47.432,46.546z M26.367,37.516h0.859h0.828v1.078c0,0.148-0.121,0.268-0.269,0.268h-1.151c-0.147,0-0.269-0.118-0.269-0.268
	L26.367,37.516L26.367,37.516z M14.947,37.516h1.93l0.973,1.758c0.072,0.129,0.025,0.293-0.104,0.363l-1.006,0.561
	c-0.128,0.072-0.292,0.025-0.362-0.105L14.947,37.516L14.947,37.516z M6.989,46.546v-1.971l3.034,1.823
	c0.126,0.074,0.167,0.242,0.09,0.367l-0.596,0.986c-0.072,0.126-0.238,0.169-0.363,0.092L6.989,46.546L6.989,46.546z M39.475,37.516
	l-1.428,2.575c-0.072,0.129-0.233,0.177-0.365,0.106l-1.008-0.562c-0.129-0.071-0.176-0.233-0.102-0.364l0.973-1.756H39.475
	L39.475,37.516z M6.987,68.405l2.165-1.299c0.124-0.078,0.292-0.035,0.365,0.09l0.595,0.988c0.077,0.123,0.035,0.293-0.091,0.365
	l-3.034,1.823V68.405L6.987,68.405z M28.055,77.435h-0.856h-0.831v-1.078c0-0.147,0.121-0.268,0.268-0.268h1.151
	c0.147,0,0.269,0.119,0.269,0.268V77.435L28.055,77.435z M39.473,77.435h-1.93l-0.974-1.759c-0.071-0.128-0.024-0.29,0.103-0.362
	l1.01-0.561c0.129-0.07,0.291-0.025,0.365,0.104L39.473,77.435L39.473,77.435z M47.432,68.405v1.969l-3.035-1.823
	c-0.127-0.073-0.168-0.241-0.09-0.366l0.594-0.986c0.074-0.125,0.238-0.172,0.367-0.092L47.432,68.405L47.432,68.405z M26.066,115
	c-6.805,0-11.6-4.548-12.322-12.321l-1.122-17.22h29.179l-1.121,17.22C39.956,110.452,35.162,115,28.358,115H26.066L26.066,115z"/>
</svg>
