<?xml version="1.0" encoding="utf-8"?>
<!-- Generator: Adobe Illustrator 16.2.1, SVG Export Plug-In . SVG Version: 6.00 Build 0)  -->
<!DOCTYPE svg PUBLIC "-//W3C//DTD SVG 1.1//EN" "http://www.w3.org/Graphics/SVG/1.1/DTD/svg11.dtd">
<svg version="1.1" id="Layer_1" xmlns="http://www.w3.org/2000/svg" xmlns:xlink="http://www.w3.org/1999/xlink" x="0px" y="0px"
	 width="261.847px" height="99.053px" viewBox="0 0 261.847 99.053" enable-background="new 0 0 261.847 99.053"
	 xml:space="preserve">
<g opacity="0.7">
	<path fill="#A2C8D4" d="M164.115,81.267c0.43,0.071,0.827,0.216,1.176,0.454c0.201-0.072,0.356-0.229,0.371-0.499
		c0.153-2.723-2.586-2.828-4.55-2.126c-1.211,0.294-2.385,1.063-3.397,1.665c-0.155,0.095-0.317,0.173-0.478,0.248
		c-0.022-0.02-0.053-0.032-0.075-0.038c-2.582,1.696-9.07,2.617-15.278,2.94c4.414,0.587,7.94,0.584,11.108,0.472
		c3.256-0.114,6.051-0.938,8.559-2.555C162.36,81.308,163.246,81.121,164.115,81.267z"/>
	<path fill="#A2C8D4" d="M136.598,82.974c7.922,0.032,16.833-0.99,19.775-2.739c-0.113-0.103-0.215-0.174-0.287-0.19
		c-1.623-0.552-2.299-0.462-7.267,1.693c-0.063-0.088-0.139-0.157-0.233-0.211c-2.323-1.108-8.14,0.343-8.135,0.403
		c-0.794,0.071-2.435,0.604-3.921,1.03C136.549,82.964,136.574,82.969,136.598,82.974z"/>
	<path fill="#A2C8D4" d="M164.547,85.376c-0.416,0.267-1.504,1.027-1.674,1.164c-9.129,6.971-19.47,6.389-33.789,5.999
		c-0.356-0.006-2.998-0.253-3.924-0.407c-0.151-0.025-0.253-0.049-0.298-0.069c-4.741,0.645-8.171,2.979-11.725,6.99
		c-1.221-0.204-2.434-0.569-3.617-1.093c-3.168-1.419-5.586-3.815-7.063-6.669c7.011-11.083,5.922-13.241,18.064-14.205
		c1.726-0.137,13.376-1.945,15.31-2.008c0.531-0.037,1.03-0.002,1.498,0.074c3.294,0.551,4.773,3.269,1.527,3.938
		c-3.402,0.684-3.772,1.219-5.997,1.415c-0.978,0.088-4.847,0.068-6.712,0.719c5.38,1.734,9.771,2.791,13.572,3.425
		c5.192,0.865,9.288,0.939,13.31,0.81c3.203-0.12,6.229-0.886,9.101-2.729c0.623-0.404,1.263-0.521,1.813-0.429
		C165.437,82.552,166.274,84.28,164.547,85.376z"/>
</g>
<g enable-background="new    ">
	<path fill="#A2D29A" d="M13.661,28.625h1.136l-3.281,11.204h-0.848l-2.465-8.309c-0.032-0.096-0.08-0.224-0.096-0.336
		c-0.032,0.097-0.048,0.208-0.08,0.32c-0.848,2.705-1.777,5.634-2.625,8.323H4.553L1.224,28.625h1.168l2.513,8.835
		c0.048,0.145,0.064,0.271,0.112,0.416c0.944-3.041,1.905-6.21,2.849-9.251h0.608l2.513,8.852c0.048,0.159,0.064,0.271,0.112,0.416
		C11.948,34.82,12.813,31.698,13.661,28.625z"/>
	<path fill="#A2D29A" d="M20.89,38.181l0.48,0.8c-0.96,0.688-1.969,1.041-2.977,1.041c-1.137,0-1.969-0.465-2.513-1.121
		c-0.608-0.72-0.944-1.792-0.944-3.121c0-1.231,0.4-2.24,0.992-2.929c0.576-0.673,1.441-1.217,2.609-1.217
		c1.648,0,2.545,0.977,2.913,2.289c0.128,0.479,0.192,1.023,0.192,1.616v0.465H15.96c0.048,1.376,0.56,2.417,1.537,2.865
		c0.32,0.144,0.672,0.224,1.056,0.224C19.386,39.093,20.17,38.773,20.89,38.181z M18.505,32.563c-1.504,0-2.289,1.12-2.513,2.514
		h4.626C20.538,33.651,19.93,32.563,18.505,32.563z"/>
	<path fill="#A2D29A" d="M26.345,37.748c0-0.305-0.144-0.561-0.416-0.784s-0.656-0.448-1.185-0.688
		c-0.64-0.288-1.2-0.607-1.601-1.056c-0.304-0.337-0.496-0.736-0.496-1.329c0-1.137,0.752-1.809,1.617-2.097
		c0.32-0.112,0.656-0.16,1.024-0.16c0.672,0,1.376,0.224,2.145,0.672l-0.368,0.896c-0.672-0.416-1.297-0.641-1.857-0.641
		c-0.704,0-1.201,0.305-1.425,0.769c-0.08,0.16-0.112,0.319-0.112,0.513c0,0.641,0.288,0.896,0.72,1.152
		c0.192,0.111,0.464,0.239,0.784,0.384c0.705,0.32,1.297,0.607,1.729,1.073c0.304,0.336,0.464,0.688,0.464,1.296
		c0,1.151-0.72,1.809-1.601,2.097c-0.72,0.24-1.584,0.225-2.305-0.048c-0.384-0.145-0.785-0.353-1.185-0.64l0.448-0.896
		c0.384,0.352,0.944,0.64,1.521,0.768c0.16,0.032,0.304,0.064,0.432,0.064C25.785,39.093,26.345,38.645,26.345,37.748z"/>
	<path fill="#A2D29A" d="M31.033,39.974c-1.232,0-1.857-0.736-1.857-2.192v-5.026H27.8v-0.928h1.376v-2.241h0.993v2.241h2.033v0.928
		h-2.033V37.7c0,0.849,0.176,1.359,0.96,1.359c0.256,0,0.512-0.08,0.8-0.256l0.304,0.849C31.865,39.845,31.513,39.974,31.033,39.974
		z"/>
	<path fill="#A2D29A" d="M42.233,29.425c-1.344,0-2.353,0.593-3.025,1.345c-0.705,0.816-1.185,2.001-1.185,3.489
		c0,2.193,0.896,3.745,2.417,4.418c0.512,0.224,1.072,0.352,1.697,0.352c1.024,0,1.937-0.287,2.705-0.88l0.512,0.85
		c-0.913,0.672-1.985,1.023-3.201,1.023c-1.697,0-2.961-0.655-3.794-1.585c-0.864-0.943-1.408-2.337-1.408-4.098
		c0-2.771,1.184-4.643,3.153-5.476c0.672-0.287,1.424-0.415,2.257-0.415c1.344,0,2.353,0.465,3.169,1.071l-0.56,0.881
		C44.267,29.825,43.418,29.425,42.233,29.425z"/>
	<path fill="#A2D29A" d="M47.272,38.853c-0.625-0.688-1.008-1.695-1.008-2.977c0-2.019,0.848-3.378,2.289-3.954
		c0.48-0.192,1.009-0.288,1.585-0.288c1.873,0,2.977,1.024,3.457,2.449c0.176,0.512,0.256,1.104,0.256,1.761
		c0,1.938-0.864,3.265-2.225,3.857c-0.464,0.208-0.992,0.319-1.568,0.319C48.809,40.022,47.88,39.541,47.272,38.853z M50.105,32.563
		c-1.44,0-2.273,0.832-2.625,1.938c-0.128,0.416-0.208,0.864-0.208,1.393c0,1.474,0.608,2.497,1.633,2.961
		c0.336,0.16,0.736,0.24,1.168,0.24c1.424,0,2.225-0.769,2.561-1.889c0.128-0.4,0.192-0.864,0.192-1.377
		C52.826,33.859,51.994,32.563,50.105,32.563z"/>
	<path fill="#A2D29A" d="M57.896,32.563c-0.864,0-1.648,0.319-2.385,0.977l-0.625-0.656c0.8-0.832,1.825-1.248,3.089-1.248
		c1.825,0,2.641,1.152,2.641,3.041v5.154h-0.993v-0.88c-0.448,0.446-1.12,0.8-1.825,0.976c-0.24,0.064-0.48,0.097-0.704,0.097
		c-1.185,0-1.985-0.561-2.337-1.408c-0.112-0.288-0.176-0.576-0.176-0.912c0.032-1.97,1.665-2.642,3.649-2.642
		c0.48,0,0.977,0.031,1.393,0.097C59.625,33.698,59.257,32.563,57.896,32.563z M58.329,35.94c-1.088,0-2.017,0.256-2.481,0.881
		c-0.16,0.225-0.24,0.513-0.24,0.849c0,0.913,0.641,1.425,1.569,1.425c0.688,0,1.265-0.192,1.712-0.544v0.016
		c0.208-0.159,0.368-0.319,0.48-0.464c0.112-0.145,0.208-0.271,0.24-0.385v-1.664C59.241,35.972,58.777,35.94,58.329,35.94z"/>
	<path fill="#A2D29A" d="M65.432,37.748c0-0.305-0.144-0.561-0.416-0.784s-0.656-0.448-1.185-0.688
		c-0.64-0.288-1.2-0.607-1.601-1.056c-0.304-0.337-0.496-0.736-0.496-1.329c0-1.137,0.752-1.809,1.617-2.097
		c0.32-0.112,0.656-0.16,1.024-0.16c0.672,0,1.376,0.224,2.145,0.672l-0.368,0.896c-0.672-0.416-1.297-0.641-1.857-0.641
		c-0.704,0-1.201,0.305-1.425,0.769c-0.08,0.16-0.112,0.319-0.112,0.513c0,0.641,0.288,0.896,0.72,1.152
		c0.192,0.111,0.464,0.239,0.784,0.384c0.705,0.32,1.297,0.607,1.729,1.073c0.304,0.336,0.464,0.688,0.464,1.296
		c0,1.151-0.72,1.809-1.601,2.097c-0.72,0.24-1.584,0.225-2.305-0.048c-0.384-0.145-0.785-0.353-1.185-0.64l0.448-0.896
		c0.384,0.352,0.944,0.64,1.521,0.768c0.16,0.032,0.304,0.064,0.432,0.064C64.872,39.093,65.432,38.645,65.432,37.748z"/>
	<path fill="#A2D29A" d="M70.12,39.974c-1.232,0-1.857-0.736-1.857-2.192v-5.026h-1.376v-0.928h1.376v-2.241h0.993v2.241h2.033
		v0.928h-2.033V37.7c0,0.849,0.176,1.359,0.96,1.359c0.256,0,0.512-0.08,0.8-0.256l0.304,0.849
		C70.952,39.845,70.6,39.974,70.12,39.974z"/>
</g>
<path opacity="0.7" fill="#A2C8D4" enable-background="new    " d="M157.871,10c-1.367,3.133-4.429,4.721-4.881,6.264
	c-0.455,1.543,0.426,3.162,1.969,3.617c1.543,0.453,3.162-0.428,3.617-1.971C159.028,16.368,157.319,13.374,157.871,10z
	 M156.651,19.217c0,0,1.615-1.266,1.254-3.48C158.071,16.407,158.791,18.543,156.651,19.217z"/>
<path opacity="0.7" fill="#A2C8D4" enable-background="new    " d="M193.719,0c-2.127,4.875-6.887,7.344-7.594,9.745
	c-0.709,2.4,0.662,4.921,3.063,5.629c2.399,0.708,4.918-0.665,5.629-3.065C195.522,9.907,192.86,5.25,193.719,0z M191.822,14.34
	c0,0,2.514-1.968,1.95-5.415C194.031,9.968,195.151,13.293,191.822,14.34z"/>
<path opacity="0.7" fill="#A2C8D4" enable-background="new    " d="M172.354,35.5c-1.892,4.333-6.123,6.525-6.75,8.662
	c-0.631,2.136,0.588,4.375,2.724,5.003c2.133,0.63,4.373-0.589,5.004-2.727C173.959,44.306,171.594,40.167,172.354,35.5z
	 M170.67,48.247c0,0,2.233-1.749,1.733-4.812C172.633,44.36,173.629,47.317,170.67,48.247z"/>
<g enable-background="new    ">
	<path fill="#4DB2D5" d="M5.099,70.092H2.688V44.895h7.163c3.419,0,5.795,1.514,6.803,3.96c0.324,0.828,0.504,1.729,0.504,2.735
		c0,2.952-1.368,4.932-3.275,6.048c-0.684,0.432-1.476,0.72-2.376,0.937c2.16,3.814,4.428,7.702,6.587,11.519h-2.7L9.239,59.15
		h-4.14V70.092z M9.311,47.127H5.099v9.826h3.852c2.7,0,4.536-1.079,5.363-2.987c0.288-0.647,0.396-1.404,0.396-2.195
		C14.71,48.603,12.622,47.127,9.311,47.127z"/>
	<path fill="#4DB2D5" d="M22.379,70.092h-2.628l9.539-25.197h2.087l9.395,25.197h-2.628l-2.808-7.631h-10.15
		C24.287,64.908,23.279,67.645,22.379,70.092z M30.55,49.359c-0.108-0.288-0.18-0.504-0.288-0.827
		c-1.44,4.03-2.771,7.702-4.248,11.698h8.495l-3.996-10.871H30.55z"/>
	<path fill="#4DB2D5" d="M45.563,70.092h-2.376V44.895h2.376V70.092z"/>
	<path fill="#4DB2D5" d="M48.767,70.092V44.895h1.835L65.18,64.693c0.144,0.217,0.324,0.396,0.468,0.612
		c0-0.181-0.036-0.324-0.036-0.468V44.895h2.375v25.197h-1.691L51.575,50.151c-0.144-0.18-0.288-0.432-0.432-0.611v20.554
		L48.767,70.092L48.767,70.092z"/>
	<path fill="#4DB2D5" d="M98.012,58.322H84.694v11.771h-2.412V44.895h2.412V56.09h13.318V44.895h2.376v25.197h-2.376V58.322z"/>
	<path fill="#4DB2D5" d="M105.502,70.092h-2.628l9.539-25.197h2.087l9.395,25.197h-2.628l-2.808-7.631h-10.15
		C107.41,64.908,106.402,67.645,105.502,70.092z M113.673,49.359c-0.108-0.288-0.18-0.504-0.288-0.827
		c-1.44,4.03-2.771,7.702-4.248,11.698h8.495l-3.996-10.871H113.673z"/>
	<path fill="#4DB2D5" d="M128.722,70.092h-2.412V44.895h7.163c3.419,0,5.795,1.514,6.803,3.96c0.324,0.828,0.504,1.729,0.504,2.735
		c0,2.952-1.368,4.932-3.275,6.048c-0.684,0.432-1.476,0.72-2.376,0.937c2.16,3.814,4.429,7.702,6.587,11.519h-2.699l-6.155-10.942
		h-4.14V70.092L128.722,70.092z M132.933,47.127h-4.211v9.826h3.852c2.7,0,4.536-1.079,5.363-2.987
		c0.288-0.647,0.396-1.404,0.396-2.195C138.333,48.603,136.245,47.127,132.933,47.127z"/>
	<path fill="#4DB2D5" d="M152.589,70.092l-9.252-25.197h2.664l7.164,19.942c0.107,0.396,0.252,0.756,0.359,1.15
		c0.145-0.396,0.252-0.72,0.396-1.15l7.631-19.942h2.556l-9.791,25.197H152.589z"/>
	<path fill="#4DB2D5" d="M166.521,44.895h12.131v2.232h-9.754v9.143h9.069v2.231h-9.069v9.358h10.33v2.231h-12.707V44.895z"/>
	<path fill="#4DB2D5" d="M192.044,64.08c0-1.331-0.324-2.052-1.008-2.809c-0.396-0.432-0.9-0.862-1.584-1.331
		s-1.547-0.973-2.592-1.584c-1.26-0.72-2.269-1.439-3.096-2.052c-1.691-1.296-2.771-2.664-2.771-5.256
		c0-2.052,0.936-3.6,2.124-4.643c1.296-1.152,3.239-1.908,5.614-1.908c2.16,0.071,4.104,0.828,5.867,2.23l-1.476,1.8
		c-1.513-1.224-3.06-1.836-4.606-1.836c-2.305,0-3.996,0.9-4.716,2.484c-0.252,0.504-0.36,1.044-0.36,1.655
		c0,1.332,0.289,2.052,0.973,2.808c0.359,0.396,0.9,0.828,1.584,1.296c2.303,1.548,5.65,3.204,7.271,5.256
		c0.791,0.973,1.188,1.979,1.188,3.601c0,3.419-1.908,5.327-4.572,6.189c-1.008,0.324-2.23,0.504-3.6,0.504h-0.035
		c-2.124-0.07-4.068-0.862-5.832-2.268l1.477-1.8c1.547,1.225,3.097,1.836,4.681,1.836C189.776,68.256,192.044,67.069,192.044,64.08
		z"/>
	<path fill="#4DB2D5" d="M205.472,70.092h-2.375V47.127h-7.056v-2.232h16.485v2.232h-7.055V70.092L205.472,70.092z"/>
	<path fill="#4DB2D5" d="M217.028,70.092h-2.375V44.895h2.375V70.092z"/>
	<path fill="#4DB2D5" d="M220.233,70.092V44.895h1.834l14.578,19.798c0.145,0.217,0.324,0.396,0.469,0.612
		c0-0.181-0.035-0.324-0.035-0.468V44.895h2.375v25.197h-1.691L223.04,50.151c-0.145-0.18-0.287-0.432-0.432-0.611v20.554
		L220.233,70.092L220.233,70.092z"/>
	<path fill="#4DB2D5" d="M254.251,70.524c-3.814,0-6.658-1.476-8.529-3.562c-1.945-2.123-3.168-5.255-3.168-9.215
		c0-6.228,2.663-10.438,7.09-12.312c1.513-0.646,3.205-0.936,5.076-0.936c3.023,0,5.291,1.044,7.127,2.412l-1.225,1.942
		c-1.079-0.756-2.123-1.26-3.167-1.62c-1.044-0.358-2.017-0.504-2.987-0.504c-2.916,0-5.146,1.296-6.66,2.916
		c-1.654,1.8-2.843,4.499-2.843,7.919c0,4.969,2.017,8.388,5.435,9.936c1.152,0.504,2.412,0.792,3.816,0.792
		c2.23,0,4.104-0.54,5.615-1.655v-7.199h-5.795v-2.231h8.17v10.402C260.118,69.228,257.815,70.524,254.251,70.524z"/>
</g>
</svg>
