<?xml version="1.0" encoding="utf-8"?>
<!-- Generator: Adobe Illustrator 16.2.1, SVG Export Plug-In . SVG Version: 6.00 Build 0)  -->
<!DOCTYPE svg PUBLIC "-//W3C//DTD SVG 1.1//EN" "http://www.w3.org/Graphics/SVG/1.1/DTD/svg11.dtd">
<svg version="1.1" id="Layer_1" xmlns="http://www.w3.org/2000/svg" xmlns:xlink="http://www.w3.org/1999/xlink" x="0px" y="0px"
	 width="277.877px" height="99.053px" viewBox="0 0 277.877 99.053" enable-background="new 0 0 277.877 99.053"
	 xml:space="preserve">
<g opacity="0.7">
	<path fill="#A2C8D4" d="M164.115,81.267c0.43,0.071,0.828,0.216,1.176,0.454c0.201-0.072,0.357-0.229,0.371-0.499
		c0.154-2.723-2.586-2.828-4.549-2.126c-1.211,0.294-2.385,1.063-3.398,1.665c-0.156,0.095-0.318,0.173-0.477,0.248
		c-0.023-0.02-0.053-0.032-0.076-0.038c-2.582,1.696-9.07,2.617-15.278,2.94c4.414,0.587,7.94,0.584,11.108,0.472
		c3.256-0.114,6.051-0.938,8.559-2.555C162.361,81.308,163.246,81.121,164.115,81.267z"/>
	<path fill="#A2C8D4" d="M136.598,82.974c7.922,0.032,16.832-0.99,19.775-2.739c-0.113-0.103-0.215-0.174-0.287-0.192
		c-1.623-0.552-2.299-0.462-7.266,1.695c-0.064-0.088-0.139-0.159-0.234-0.211c-2.323-1.11-8.14,0.341-8.135,0.403
		c-0.794,0.071-2.435,0.604-3.921,1.03C136.549,82.964,136.574,82.969,136.598,82.974z"/>
	<path fill="#A2C8D4" d="M164.547,85.376c-0.416,0.267-1.504,1.029-1.674,1.164c-9.129,6.971-19.47,6.389-33.789,5.999
		c-0.356-0.006-2.998-0.253-3.924-0.407c-0.151-0.025-0.253-0.049-0.298-0.069c-4.741,0.643-8.171,2.977-11.725,6.99
		c-1.221-0.204-2.434-0.569-3.617-1.093c-3.168-1.419-5.586-3.815-7.063-6.669c7.011-11.083,5.922-13.241,18.064-14.205
		c1.726-0.137,13.376-1.945,15.31-2.008c0.531-0.037,1.03-0.002,1.498,0.076c3.294,0.549,4.773,3.267,1.527,3.938
		c-3.402,0.684-3.772,1.219-5.997,1.415c-0.978,0.088-4.847,0.068-6.712,0.719c5.38,1.734,9.771,2.791,13.572,3.425
		c5.192,0.865,9.288,0.939,13.309,0.808c3.203-0.12,6.229-0.886,9.1-2.727c0.623-0.406,1.262-0.521,1.814-0.429
		C165.436,82.552,166.275,84.28,164.547,85.376z"/>
</g>
<text transform="matrix(1 0 0 1 1 39.8291)" fill="#A2D29A" font-family="'HomizioNova'" font-size="16">West Coast</text>
<path opacity="0.7" fill="#A2C8D4" d="M157.871,10c-1.367,3.133-4.428,4.721-4.881,6.264c-0.455,1.543,0.426,3.162,1.969,3.617
	c1.543,0.453,3.162-0.428,3.617-1.971C159.029,16.368,157.32,13.374,157.871,10z M156.652,19.217c0,0,1.615-1.266,1.254-3.48
	C158.072,16.407,158.791,18.543,156.652,19.217z"/>
<path opacity="0.7" fill="#A2C8D4" d="M193.719,0c-2.127,4.875-6.887,7.344-7.594,9.745c-0.709,2.402,0.662,4.921,3.064,5.629
	c2.4,0.708,4.918-0.665,5.629-3.065C195.523,9.907,192.861,5.25,193.719,0z M191.822,14.34c0,0,2.514-1.968,1.951-5.415
	C194.031,9.968,195.152,13.293,191.822,14.34z"/>
<path opacity="0.7" fill="#A2C8D4" d="M172.355,35.5c-1.891,4.333-6.123,6.527-6.75,8.662c-0.631,2.136,0.588,4.375,2.723,5.003
	c2.133,0.63,4.373-0.589,5.004-2.725C173.959,44.306,171.594,40.167,172.355,35.5z M170.67,48.247c0,0,2.234-1.749,1.734-4.812
	C172.633,44.36,173.629,47.317,170.67,48.247z"/>
<text transform="matrix(1 0 0 1 1.6797 70.0918)" fill="#4DB2D5" font-family="'HomizioNova'" font-size="36" letter-spacing="1">RAIN HARVESTING</text>
</svg>
