<?xml version="1.0" encoding="UTF-8"?>
<svg width="237px" height="36px" viewBox="0 0 237 36" version="1.1" xmlns="http://www.w3.org/2000/svg" xmlns:xlink="http://www.w3.org/1999/xlink">
    <!-- Generator: Sketch 40.3 (33839) - http://www.bohemiancoding.com/sketch -->
    <title>Logo</title>
    <desc>Created with Sketch.</desc>
    <defs></defs>
    <g id="Page-1" stroke="none" stroke-width="1" fill="none" fill-rule="evenodd">
        <g id="Logo" transform="translate(1.000000, 1.000000)">
            <path d="M0.5,34 L234.57691,34" id="Line" stroke="#DB2868" stroke-width="2" stroke-linecap="square"></path>
            <g id="wetpaint.tv" transform="translate(35.000000, 0.000000)" stroke-width="0.3" stroke="#FFFFFF" fill="#FFFFFF">
                <g id="Group">
                    <path d="M15.7467228,26.6111111 L12.72719,26.6111111 L11.005774,17.2777778 L6.01084582,26.6111111 L3.10419268,26.6111111 L0.225759467,8.55555556 C0.761938202,8.33333333 1.29811694,8.19444444 1.80607574,8.19444444 C2.42691427,8.19444444 2.90665314,8.38888889 3.18885248,8.77777778 C3.49927174,9.16666667 3.69681128,9.69444444 3.80969101,10.3611111 L5.50288702,22.8611111 L10.3002757,13.8888889 L9.28435809,8.5 C9.7923169,8.30555556 10.2720558,8.19444444 10.7517946,8.19444444 C11.4008531,8.19444444 11.880592,8.38888889 12.1910112,8.80555556 C12.5014305,9.19444444 12.69897,9.72222222 12.8118498,10.3611111 L14.815465,22.75 L19.923273,10.6111111 C20.2619122,9.77777778 20.6569913,9.16666667 21.0802903,8.80555556 C21.5035893,8.41666667 22.0679879,8.22222222 22.7452663,8.22222222 C23.0556856,8.22222222 23.3378849,8.25 23.5636444,8.30555556 C23.7894039,8.36111111 24.0151633,8.47222222 24.2127029,8.58333333 L15.7467228,26.6111111 L15.7467228,26.6111111 Z" id="Shape"></path>
                    <path d="M38.0686902,24.9722222 C37.8429307,25.1944444 37.5325114,25.4444444 37.1938722,25.6944444 C36.855233,25.9444444 36.431934,26.1666667 35.9521952,26.3611111 C35.4724563,26.5555556 34.9080576,26.7222222 34.2307792,26.8611111 C33.5817208,27 32.8197826,27.0555556 32.0014045,27.0555556 C30.9854869,27.0555556 30.0260092,26.9166667 29.1794112,26.6111111 C28.3045932,26.3055556 27.5708749,25.8611111 26.9500364,25.2777778 C26.3291979,24.6944444 25.849459,23.9166667 25.4825999,23 C25.1157407,22.0833333 24.9464211,20.9722222 24.9464211,19.7222222 C24.9464211,18 25.2286205,16.3888889 25.7647992,14.9444444 C26.3009779,13.5 27.0346962,12.25 27.965954,11.1944444 C28.8972118,10.1388889 29.9695693,9.33333333 31.1830264,8.75 C32.3964836,8.16666667 33.6946005,7.88888889 35.0491573,7.88888889 C36.6859134,7.88888889 37.9558104,8.30555556 38.8306284,9.13888889 C39.7054463,9.97222222 40.1569653,11.0555556 40.1569653,12.4166667 C40.1569653,13.6666667 39.846546,14.6944444 39.2257074,15.5833333 C38.6048689,16.4444444 37.8147108,17.1388889 36.8270131,17.6944444 C35.8393154,18.25 34.766958,18.6388889 33.5535008,18.8611111 C32.3682636,19.1111111 31.1830264,19.2222222 30.0260092,19.2222222 L29.0947514,19.2222222 C28.7561122,19.2222222 28.4456929,19.2222222 28.1634935,19.1944444 L28.1634935,19.6944444 C28.1634935,21.3055556 28.5585726,22.5 29.3205108,23.3055556 C30.082449,24.1111111 31.0983666,24.5 32.3400437,24.5 C33.3559613,24.5 34.2872191,24.2777778 35.1338171,23.8611111 C35.9804151,23.4444444 36.7141334,22.8333333 37.3631918,22.0277778 L37.8711506,22.3888889 C38.12513,22.5833333 38.3226696,22.75 38.4919892,22.9722222 C38.6330888,23.1666667 38.7177486,23.4166667 38.7177486,23.6944444 C38.7741885,24.0833333 38.548429,24.5 38.0686902,24.9722222 L38.0686902,24.9722222 Z M29.68737,16.9722222 C30.7315075,16.9722222 31.6909852,16.8611111 32.5940231,16.6666667 C33.497061,16.4722222 34.2589992,16.1666667 34.9080576,15.8055556 C35.5571161,15.4444444 36.0650749,14.9722222 36.431934,14.4444444 C36.7987932,13.9166667 36.9681128,13.3055556 36.9681128,12.6388889 C36.9681128,12.0555556 36.7987932,11.5277778 36.4883739,11.1111111 C36.1497347,10.6944444 35.5571161,10.4722222 34.7105181,10.4722222 C33.92036,10.4722222 33.1866417,10.6388889 32.5375832,10.9444444 C31.8603048,11.2777778 31.2676862,11.7222222 30.7315075,12.3055556 C30.1953288,12.8888889 29.7438098,13.5833333 29.3769507,14.3611111 C29.0100916,15.1388889 28.7278922,16 28.5585726,16.9444444 C28.7561122,16.9722222 28.9818716,16.9722222 29.1794112,16.9722222 C29.3769507,16.9722222 29.5462703,16.9722222 29.68737,16.9722222 L29.68737,16.9722222 Z" id="Shape"></path>
                    <path d="M48.7640449,8.22222222 L54.0693924,8.22222222 L53.5896536,10.8055556 L48.312526,10.8055556 L46.9861891,18.9722222 C46.9015293,19.4166667 46.8168695,19.9722222 46.7039898,20.6388889 C46.5911101,21.3055556 46.5628901,21.8888889 46.5911101,22.3333333 C46.61933,22.9166667 46.7886496,23.4166667 47.0990689,23.8333333 C47.4094881,24.25 47.9456669,24.4444444 48.7076051,24.4444444 C49.2437838,24.4444444 49.7235227,24.3055556 50.1750416,24.0277778 C50.6265605,23.75 51.0498596,23.3611111 51.4167187,22.9166667 L52.0375572,23.5 C52.3761964,23.8055556 52.545516,24.1944444 52.545516,24.6111111 C52.545516,25.1111111 52.2633167,25.5555556 51.6706981,26 C50.7958801,26.6944444 49.582423,27.0555556 47.9738868,27.0555556 C46.3371307,27.0555556 45.1236735,26.6388889 44.3335154,25.8055556 C43.5433573,24.9722222 43.1482782,23.7777778 43.1482782,22.1944444 C43.1482782,22.0277778 43.1482782,21.8055556 43.1764981,21.5277778 C43.2047181,21.2777778 43.232938,21 43.2893779,20.7222222 L46.2806908,2.69444444 C46.5346702,2.63888889 46.7886496,2.61111111 46.9861891,2.61111111 C47.8327871,2.61111111 48.3971858,2.80555556 48.735825,3.22222222 C49.0744642,3.63888889 49.2155639,4.16666667 49.2155639,4.83333333 C49.2155639,4.97222222 49.2155639,5.13888889 49.1873439,5.33333333 C49.159124,5.52777778 49.1309041,5.69444444 49.1026841,5.83333333 L48.7640449,8.22222222 L48.7640449,8.22222222 Z" id="Shape"></path>
                    <path d="M61.5194548,10.5 C62.1967333,9.72222222 63.0151113,9.08333333 63.9463691,8.61111111 C64.8776269,8.11111111 65.8653246,7.88888889 66.8812422,7.88888889 C67.9253797,7.88888889 68.8001977,8.08333333 69.5339159,8.47222222 C70.2676342,8.86111111 70.8320329,9.38888889 71.3117717,10.0277778 C71.7632907,10.6944444 72.1019299,11.4444444 72.3276893,12.3333333 C72.5252289,13.2222222 72.6381086,14.1388889 72.6381086,15.1666667 C72.6381086,16.7222222 72.3841292,18.1944444 71.9043903,19.6388889 C71.3964315,21.0833333 70.7191531,22.3333333 69.8443352,23.4166667 C68.9695173,24.5 67.9253797,25.3611111 66.7119226,26.0277778 C65.4984655,26.6944444 64.1721286,27.0277778 62.732912,27.0277778 C62.1402934,27.0277778 61.4912349,26.9444444 60.8139565,26.8055556 C60.1366781,26.6666667 59.5440595,26.4444444 59.0361007,26.1666667 L57.5686642,34.8333333 L54.266932,34.8333333 L58.7539014,8.25 C59.0078808,8.19444444 59.2618602,8.16666667 59.4593997,8.16666667 C60.8421764,8.16666667 61.5476748,8.83333333 61.5476748,10.1666667 L61.5476748,10.5 L61.5194548,10.5 Z M62.309613,24.5 C63.2126509,24.5 64.0874688,24.25 64.9340668,23.7777778 C65.7524449,23.3055556 66.4861631,22.6388889 67.1070017,21.7777778 C67.7278402,20.9166667 68.2075791,19.9166667 68.5744382,18.75 C68.9412973,17.5833333 69.1106169,16.3333333 69.1106169,14.9722222 C69.1106169,13.5833333 68.8566375,12.5 68.3204588,11.7222222 C67.7842801,10.9444444 66.9094621,10.5555556 65.696005,10.5555556 C65.272706,10.5555556 64.8211871,10.6666667 64.3132283,10.8611111 C63.8052695,11.0555556 63.2973107,11.3611111 62.8457917,11.75 C62.3660529,12.1388889 61.9709738,12.6388889 61.6041146,13.2222222 C61.2372555,13.8055556 61.011496,14.5 60.8703964,15.2777778 L59.4029598,23.8611111 C59.741599,24.0555556 60.1366781,24.2222222 60.5599771,24.3333333 C60.9832761,24.4722222 61.5758947,24.5 62.309613,24.5 L62.309613,24.5 Z" id="Shape"></path>
                    <path d="M90.0215876,22.8055556 C89.9933677,22.9722222 89.9651477,23.1111111 89.9651477,23.2222222 C89.9651477,23.3611111 89.9369278,23.4722222 89.9369278,23.6111111 C89.9369278,24 90.0215876,24.2777778 90.1626873,24.4722222 C90.3037869,24.6666667 90.6142062,24.75 91.0375052,24.75 C91.2350447,24.75 91.4890241,24.7222222 91.7712235,24.6388889 L92.0534228,26.1388889 C91.7430035,26.3333333 91.3479245,26.4722222 90.8964055,26.5555556 C90.4448866,26.6666667 90.0498075,26.7222222 89.7111683,26.7222222 C88.7799105,26.7222222 88.0461923,26.5277778 87.5382335,26.1388889 C87.0302747,25.75 86.7198554,25.1111111 86.6069757,24.25 C86.0143571,25.0277778 85.2806388,25.6666667 84.4340408,26.1944444 C83.5874428,26.7222222 82.627965,26.9722222 81.5556076,26.9722222 C80.5679099,26.9722222 79.7213119,26.8055556 79.0158136,26.4722222 C78.3103152,26.1388889 77.7459166,25.6666667 77.2943976,25.0555556 C76.8428787,24.4444444 76.5042395,23.75 76.27848,22.9444444 C76.0809405,22.1388889 75.9680608,21.2777778 75.9680608,20.3611111 C75.9680608,18.8888889 76.1938202,17.4166667 76.6735591,15.9444444 C77.153298,14.4722222 77.8305764,13.1111111 78.7053943,11.9166667 C79.5802122,10.7222222 80.6525697,9.75 81.9224667,9 C83.1923637,8.25 84.6033604,7.88888889 86.1836767,7.88888889 C86.7762953,7.88888889 87.3689139,7.94444444 87.9615325,8.05555556 C88.5541511,8.16666667 89.1185497,8.33333333 89.6265085,8.52777778 C90.1626873,8.72222222 90.6424261,8.91666667 91.0657251,9.13888889 C91.4890241,9.36111111 91.8841032,9.58333333 92.1945225,9.77777778 L90.0215876,22.8055556 L90.0215876,22.8055556 Z M85.9579172,10.4166667 C85.0548793,10.4166667 84.2082813,10.6944444 83.4181232,11.2222222 C82.627965,11.75 81.9224667,12.4722222 81.3016282,13.3611111 C80.7090096,14.2777778 80.2292707,15.3055556 79.8624116,16.5277778 C79.4955524,17.7222222 79.3262328,19 79.3262328,20.3888889 C79.3262328,23.0277778 80.3985903,24.3333333 82.5150853,24.3333333 C82.9383843,24.3333333 83.3899032,24.25 83.8696421,24.0555556 C84.349381,23.8888889 84.8291199,23.5833333 85.2524189,23.1944444 C85.7039378,22.8055556 86.0990169,22.3055556 86.4376561,21.7222222 C86.7762953,21.1388889 87.0020547,20.4166667 87.1431544,19.5833333 L88.5541511,11.0833333 C88.2155119,10.8888889 87.8486527,10.7222222 87.4817936,10.6111111 C87.1431544,10.5 86.6351956,10.4166667 85.9579172,10.4166667 L85.9579172,10.4166667 Z" id="Shape"></path>
                    <path d="M100.942702,26.1666667 C100.632283,26.3611111 100.237203,26.5 99.7856846,26.5833333 C99.3341656,26.6944444 98.9390866,26.75 98.6004474,26.75 C97.49987,26.75 96.6814919,26.4722222 96.1735331,25.9444444 C95.6655743,25.4166667 95.4115949,24.6944444 95.4398148,23.7777778 C95.4398148,23.6388889 95.4398148,23.5 95.4680347,23.3611111 C95.4680347,23.2222222 95.4962547,23.0833333 95.5244746,22.9166667 L98.0078288,8.25 C98.2618082,8.19444444 98.5157876,8.16666667 98.7133271,8.16666667 C99.5034852,8.16666667 100.067884,8.38888889 100.406523,8.83333333 C100.745162,9.27777778 100.914482,9.83333333 100.914482,10.5 C100.914482,10.6388889 100.914482,10.7777778 100.886262,10.9722222 C100.886262,11.1666667 100.858042,11.3055556 100.829822,11.4444444 L98.9108666,22.8055556 C98.8826467,22.9722222 98.8544268,23.1111111 98.8544268,23.2222222 C98.8544268,23.3611111 98.8262068,23.4722222 98.8262068,23.6111111 C98.8262068,24 98.9108666,24.2777778 99.0519663,24.4722222 C99.2212859,24.6666667 99.5034852,24.75 99.9267842,24.75 C100.124324,24.75 100.378303,24.7222222 100.660502,24.6388889 L100.942702,26.1666667 L100.942702,26.1666667 Z M100.265423,4.5 C99.6728048,4.5 99.2212859,4.30555556 98.9108666,3.91666667 C98.6004474,3.52777778 98.4593477,3.08333333 98.4593477,2.55555556 C98.4593477,1.88888889 98.6568872,1.30555556 99.0801862,0.805555556 C99.4752653,0.305555556 100.067884,0.0833333333 100.801602,0.0833333333 C101.394221,0.0833333333 101.84574,0.277777778 102.156159,0.694444444 C102.466578,1.08333333 102.607678,1.55555556 102.607678,2.05555556 C102.607678,2.72222222 102.410138,3.30555556 101.986839,3.77777778 C101.53532,4.27777778 100.970922,4.5 100.265423,4.5 L100.265423,4.5 Z" id="Shape"></path>
                    <path d="M115.080888,26.4722222 L116.886964,15.75 C116.943404,15.4166667 116.999844,15.0555556 117.056284,14.6388889 C117.112724,14.25 117.140944,13.8611111 117.140944,13.5 C117.140944,12.7222222 116.943404,12.0555556 116.548325,11.5277778 C116.153246,11 115.475968,10.7222222 114.54471,10.7222222 C113.980311,10.7222222 113.387692,10.8055556 112.823294,11 C112.258895,11.1944444 111.694496,11.4722222 111.186538,11.8611111 C110.678579,12.25 110.22706,12.7222222 109.860201,13.3055556 C109.493342,13.8888889 109.239362,14.5833333 109.126483,15.3888889 L107.235747,26.5 L103.905795,26.5 L106.981768,8.27777778 C107.235747,8.22222222 107.489726,8.19444444 107.687266,8.19444444 C109.070043,8.19444444 109.775541,8.86111111 109.775541,10.1944444 L109.775541,10.6111111 C110.452819,9.83333333 111.299417,9.19444444 112.287115,8.66666667 C113.274813,8.13888889 114.40361,7.86111111 115.673507,7.86111111 C116.576545,7.86111111 117.310263,8 117.931102,8.27777778 C118.55194,8.55555556 119.059899,8.94444444 119.454978,9.41666667 C119.850057,9.88888889 120.132257,10.4444444 120.301576,11.0555556 C120.470896,11.6666667 120.555556,12.3333333 120.555556,13 C120.555556,13.4722222 120.527336,13.9166667 120.470896,14.3888889 C120.414456,14.8611111 120.358016,15.3055556 120.273356,15.75 L118.46728,26.4722222 L115.080888,26.4722222 L115.080888,26.4722222 Z" id="Shape"></path>
                    <path d="M130.065673,8.22222222 L135.371021,8.22222222 L134.891282,10.8055556 L129.614154,10.8055556 L128.287817,18.9722222 C128.203158,19.4166667 128.118498,19.9722222 128.005618,20.6388889 C127.892738,21.3055556 127.864518,21.8888889 127.892738,22.3333333 C127.920958,22.9166667 128.090278,23.4166667 128.400697,23.8333333 C128.711116,24.25 129.247295,24.4444444 130.009233,24.4444444 C130.545412,24.4444444 131.025151,24.3055556 131.47667,24.0277778 C131.928189,23.75 132.351488,23.3611111 132.718347,22.9166667 L133.339185,23.5 C133.677825,23.8055556 133.847144,24.1944444 133.847144,24.6111111 C133.847144,25.1111111 133.564945,25.5555556 132.972326,26 C132.097508,26.6944444 130.884051,27.0555556 129.275515,27.0555556 C127.638759,27.0555556 126.425302,26.6388889 125.635144,25.8055556 C124.844985,24.9722222 124.449906,23.7777778 124.449906,22.1944444 C124.449906,22.0277778 124.449906,21.8055556 124.478126,21.5277778 C124.506346,21.2777778 124.534566,21 124.591006,20.7222222 L127.582319,2.69444444 C127.836298,2.63888889 128.090278,2.61111111 128.287817,2.61111111 C129.134415,2.61111111 129.698814,2.80555556 130.037453,3.22222222 C130.376092,3.63888889 130.517192,4.16666667 130.517192,4.83333333 C130.517192,4.97222222 130.517192,5.13888889 130.488972,5.33333333 C130.460752,5.52777778 130.432532,5.69444444 130.404312,5.83333333 L130.065673,8.22222222 L130.065673,8.22222222 Z" id="Shape"></path>
                    <path d="M138.644533,27.0555556 C137.995474,27.0555556 137.515736,26.8333333 137.177096,26.4166667 C136.838457,26 136.697357,25.5 136.697357,24.9722222 C136.697357,24.25 136.923117,23.6388889 137.374636,23.1111111 C137.826155,22.5833333 138.418773,22.3333333 139.180712,22.3333333 C139.82977,22.3333333 140.309509,22.5555556 140.648148,22.9722222 C140.958567,23.3888889 141.127887,23.8888889 141.127887,24.4166667 C141.127887,25.1388889 140.902128,25.75 140.450609,26.2777778 C139.99909,26.8055556 139.406471,27.0555556 138.644533,27.0555556 L138.644533,27.0555556 Z" id="Shape"></path>
                    <path d="M150.553345,8.22222222 L155.858692,8.22222222 L155.378953,10.8055556 L150.101826,10.8055556 L148.775489,18.9722222 C148.690829,19.4166667 148.606169,19.9722222 148.49329,20.6388889 C148.38041,21.3055556 148.35219,21.8888889 148.38041,22.3333333 C148.40863,22.9166667 148.577949,23.4166667 148.888369,23.8333333 C149.198788,24.25 149.734967,24.4444444 150.496905,24.4444444 C151.033084,24.4444444 151.512823,24.3055556 151.964341,24.0277778 C152.41586,23.75 152.839159,23.3611111 153.206019,22.9166667 L153.826857,23.5 C154.165496,23.8055556 154.334816,24.1944444 154.334816,24.6111111 C154.334816,25.1111111 154.052617,25.5555556 153.459998,26 C152.58518,26.6944444 151.371723,27.0555556 149.763187,27.0555556 C148.126431,27.0555556 146.912973,26.6388889 146.122815,25.8055556 C145.332657,24.9722222 144.937578,23.7777778 144.937578,22.1944444 C144.937578,22.0277778 144.937578,21.8055556 144.965798,21.5277778 C144.994018,21.2777778 145.022238,21 145.078678,20.7222222 L148.069991,2.69444444 C148.32397,2.63888889 148.577949,2.61111111 148.775489,2.61111111 C149.622087,2.61111111 150.186486,2.80555556 150.525125,3.22222222 C150.863764,3.63888889 151.004864,4.16666667 151.004864,4.83333333 C151.004864,4.97222222 151.004864,5.13888889 150.976644,5.33333333 C150.948424,5.52777778 150.920204,5.69444444 150.891984,5.83333333 L150.553345,8.22222222 L150.553345,8.22222222 Z" id="Shape"></path>
                    <path d="M165.509909,26.6111111 L162.010638,26.6111111 L158.906445,8.55555556 C159.216864,8.41666667 159.499064,8.33333333 159.753043,8.27777778 C160.007022,8.22222222 160.261002,8.19444444 160.571421,8.19444444 C161.361579,8.19444444 161.869538,8.44444444 162.151737,8.94444444 C162.405717,9.44444444 162.603256,10.0833333 162.716136,10.8333333 L164.409332,22.9722222 L170.335518,10.5555556 C170.702377,9.77777778 171.097456,9.19444444 171.520755,8.80555556 C171.944054,8.41666667 172.480233,8.19444444 173.157511,8.19444444 C173.75013,8.19444444 174.286309,8.33333333 174.737828,8.58333333 L165.509909,26.6111111 L165.509909,26.6111111 Z" id="Shape"></path>
                </g>
            </g>
        </g>
    </g>
</svg>