<?xml version="1.0" encoding="utf-8"?>
<!-- Generator: Adobe Illustrator 15.0.0, SVG Export Plug-In . SVG Version: 6.00 Build 0)  -->
<!DOCTYPE svg PUBLIC "-//W3C//DTD SVG 1.1//EN" "http://www.w3.org/Graphics/SVG/1.1/DTD/svg11.dtd">
<svg version="1.1" id="Layer_1" xmlns="http://www.w3.org/2000/svg" xmlns:xlink="http://www.w3.org/1999/xlink" x="0px" y="0px"
	 viewBox="0 0 609 182" enable-background="new 0 0 609 182" xml:space="preserve">
<path fill-rule="evenodd" clip-rule="evenodd" fill="#808080" d="M11.198,10.975c7.078-4.085,16.184-1.647,20.271,5.431
	c1.808,3.132,2.336,6.657,1.754,9.972l11.4,7.982l25.932-18.156c5.287-3.705,12.647-2.407,16.35,2.881l-32.046,22.44l10.325,7.228
	H44.712l-0.09-0.062l-9.939,6.958c1.65,6.307-1.027,13.211-6.931,16.621c-7.078,4.087-16.186,1.646-20.272-5.432
	c-4.087-7.078-1.646-16.186,5.432-20.273c4.63-2.671,10.126-2.551,14.518-0.168l6.961-4.873l-7.596-5.317
	c-0.246,0.161-0.499,0.321-0.755,0.47c-7.08,4.086-16.187,1.646-20.272-5.431C1.679,24.168,4.12,15.061,11.198,10.975
	 M14.418,16.552c4.006-2.312,9.158-0.932,11.473,3.076c2.312,4.005,0.932,9.159-3.074,11.473c-4.007,2.31-9.161,0.932-11.475-3.074
	C9.032,24.02,10.411,18.866,14.418,16.552 M16.132,52.145c4.005-2.313,9.161-0.933,11.475,3.076
	c2.312,4.005,0.931,9.16-3.077,11.474c-4.003,2.31-9.159,0.93-11.473-3.076C10.745,59.612,12.126,54.458,16.132,52.145"/>
<path fill-rule="evenodd" clip-rule="evenodd" fill="#D2147D" d="M263.681,137.966c-11.74,0-19.134-5.363-28.847-11.306
	l8.406-11.454c7.686,4.64,14.353,8.843,20.73,8.843c6.96,0,11.309-3.334,11.309-8.263c0-5.218-4.637-8.843-9.566-10.728
	l-10.874-4.203c-8.7-3.334-16.526-10.292-16.526-20.875c0-15.077,13.917-21.167,26.961-21.167c9.57,0,15.368,1.74,25.951,7.394
	l-6.958,12.177c-5.22-2.899-12.178-5.942-18.555-5.942c-5.946,0-9.859,2.898-9.859,6.812c0,3.335,3.189,6.379,7.537,7.828
	l10.005,3.48c11.015,3.769,19.425,11.307,19.425,24.643C292.821,131.297,279.193,137.966,263.681,137.966"/>
<polygon fill-rule="evenodd" clip-rule="evenodd" fill="#D2147D" points="342.801,135.503 317.288,94.622 317.288,135.503 
	299.02,135.503 299.02,30.402 317.288,30.402 317.288,88.969 340.047,60.989 362.806,60.989 334.538,92.013 365.704,135.503 "/>
<path fill-rule="evenodd" clip-rule="evenodd" fill="#463291" d="M407.628,135.503l-1.159-7.829
	c-5.362,4.203-12.179,8.844-20.584,8.844c-14.933,0-23.342-9.713-23.342-22.326c0-17.25,17.108-22.324,31.894-23.772l11.307-1.16
	v-5.655c0-6.958-3.477-9.856-10.583-9.856c-8.116,0-15.223,4.927-21.165,9.277l-8.986-11.017
	c8.986-7.104,16.673-11.743,31.166-11.743c15.513,0,27.835,6.958,27.835,24.065v51.173H407.628z M405.743,99.695L394,101.435
	c-8.261,1.16-13.626,5.075-13.626,12.612c0,4.494,2.901,8.698,8.843,8.698c6.814,0,11.6-3.334,16.526-6.523V99.695z"/>
<path fill-rule="evenodd" clip-rule="evenodd" fill="#A3CD39" d="M464.543,137.966c-6.233,0-12.176-2.752-16.963-6.378v32.908
	h-18.262V60.989h15.363l1.305,5.656c4.352-3.334,11.452-7.83,19.429-7.83c18.407,0,31.6,14.642,31.6,39.141
	C497.015,122.745,484.257,137.966,464.543,137.966 M463.238,72.587c-5.8,0-12.175,2.899-15.658,5.364v38.851
	c3.772,3.479,9.858,7.249,15.947,7.249c8.554,0,14.207-8.555,14.207-25.224C477.734,81.286,473.822,72.587,463.238,72.587"/>
<path fill-rule="evenodd" clip-rule="evenodd" fill="#A3CD39" d="M506.253,135.503V73.892l-7.249-0.724V60.989l25.66-0.724v75.238
	H506.253z M514.08,50.263c-6.232,0-11.45-5.218-11.45-11.453c0-6.233,5.218-11.306,11.45-11.306s11.309,5.073,11.309,11.306
	C525.389,45.044,520.312,50.263,514.08,50.263"/>
<path fill-rule="evenodd" clip-rule="evenodd" fill="#A3CD39" d="M563.481,137.966c-20.875,0-32.618-15.655-32.618-39.574
	c0-24.79,14.786-39.578,32.618-39.578c14.497,0,24.497,7.104,29.43,20.732l-14.063,5.217c-3.334-7.974-6.812-12.756-15.366-12.756
	c-7.682,0-13.918,7.392-13.918,25.514c0,16.959,5.946,26.962,13.918,26.962c9.568,0,13.337-4.202,16.96-13.48l13.482,5.073
	C589.576,129.848,580.441,137.966,563.481,137.966"/>
<path fill-rule="evenodd" clip-rule="evenodd" fill="#D2147D" d="M143.943,135.503V83.025c0-7.104-3.624-9.857-8.553-9.857
	c-5.362,0-12.031,3.333-16.381,6.958v55.376h-18.266v-51.32c0-8.262-3.624-11.015-8.553-11.015c-6.086,0-12.755,3.623-16.67,7.249
	v55.086H56.962V60.989h16.382l1.015,7.104c4.928-4.493,12.034-9.279,20.296-9.279c9.421,0,15.8,2.753,20.439,10.875
	c5.508-5.654,13.626-10.875,24.5-10.875c12.32,0,22.759,8.989,22.759,22.326v54.363H143.943z"/>
<path fill-rule="evenodd" clip-rule="evenodd" fill="#D2147D" d="M213.794,135.503l-1.159-7.829
	c-5.361,4.203-12.177,8.844-20.584,8.844c-14.931,0-23.338-9.713-23.338-22.326c0-17.25,17.106-22.324,31.894-23.772l11.305-1.16
	v-5.655c0-6.958-3.478-9.856-10.581-9.856c-8.12,0-15.221,4.927-21.168,9.277l-8.985-11.017
	c8.985-7.104,16.671-11.743,31.167-11.743c15.512,0,27.832,6.958,27.832,24.065v51.173H213.794z M211.911,99.695l-11.74,1.74
	c-8.265,1.16-13.627,5.075-13.627,12.612c0,4.494,2.898,8.698,8.841,8.698c6.815,0,11.598-3.334,16.526-6.523V99.695z"/>
<path fill="#E3B123" d="M455.036,173.158h-2.531c-0.666,0-1.206-0.54-1.206-1.205s0.54-1.205,1.206-1.205h1.326v-1.251
	c0-0.666,0.54-1.206,1.205-1.206s1.206,0.54,1.206,1.206v2.456C456.242,172.618,455.701,173.158,455.036,173.158 M447.515,173.158
	h-4.989c-0.665,0-1.205-0.54-1.205-1.205s0.54-1.205,1.205-1.205h4.989c0.666,0,1.206,0.54,1.206,1.205
	S448.181,173.158,447.515,173.158 M437.537,173.158h-4.988c-0.666,0-1.205-0.54-1.205-1.205s0.539-1.205,1.205-1.205h4.988
	c0.666,0,1.206,0.54,1.206,1.205S438.203,173.158,437.537,173.158 M427.559,173.158h-4.988c-0.665,0-1.206-0.54-1.206-1.205
	s0.541-1.205,1.206-1.205h4.988c0.666,0,1.206,0.54,1.206,1.205S428.225,173.158,427.559,173.158 M421.863,168.878
	c-0.666,0-1.206-0.54-1.206-1.206v-4.989c0-0.665,0.54-1.206,1.206-1.206c0.665,0,1.205,0.541,1.205,1.206v4.989
	C423.068,168.338,422.528,168.878,421.863,168.878 M455.036,165.713c-0.665,0-1.205-0.54-1.205-1.205v-4.99
	c0-0.664,0.54-1.205,1.205-1.205s1.206,0.541,1.206,1.205v4.99C456.242,165.173,455.701,165.713,455.036,165.713 M421.863,158.9
	c-0.666,0-1.206-0.541-1.206-1.205v-4.99c0-0.665,0.54-1.205,1.206-1.205c0.665,0,1.205,0.54,1.205,1.205v4.99
	C423.068,158.359,422.528,158.9,421.863,158.9 M455.036,155.736c-0.665,0-1.205-0.541-1.205-1.206v-4.989
	c0-0.666,0.54-1.206,1.205-1.206s1.206,0.54,1.206,1.206v4.989C456.242,155.195,455.701,155.736,455.036,155.736 M421.863,148.922
	c-0.666,0-1.206-0.541-1.206-1.206v-4.046c-0.146-0.2-0.232-0.446-0.232-0.71c0-0.666,0.541-1.207,1.206-1.207h0.232
	c0.665,0,1.205,0.541,1.205,1.207v4.756C423.068,148.381,422.528,148.922,421.863,148.922 M464.81,146.624l-0.661-0.005
	c-0.664-0.011-1.196-0.56-1.187-1.226c0.011-0.664,0.519-1.156,1.226-1.186l0.622,0.005c1.345,0,2.76-0.081,4.204-0.241
	c0.668-0.061,1.26,0.405,1.332,1.066s-0.404,1.258-1.065,1.331C467.747,146.539,466.243,146.624,464.81,146.624 M264.234,146.62
	c-0.661,0-1.2-0.533-1.205-1.196c-0.004-0.666,0.53-1.211,1.196-1.215c1.559-0.012,3.197-0.103,4.872-0.268
	c0.654-0.053,1.253,0.418,1.317,1.081c0.065,0.662-0.417,1.253-1.081,1.318c-1.748,0.173-3.46,0.267-5.089,0.279H264.234z
	 M563.579,146.586c-0.665,0-1.204-0.537-1.206-1.202c-0.001-0.666,0.536-1.207,1.202-1.209c0.383-0.001,0.763-0.005,1.142-0.012
	c1.229-0.032,2.491-0.104,3.739-0.214c0.671-0.06,1.248,0.433,1.307,1.095c0.06,0.665-0.432,1.249-1.095,1.308
	c-1.299,0.113-2.611,0.189-3.901,0.224C564.364,146.58,563.969,146.641,563.579,146.586 M259.256,146.388
	c-0.045,0-0.09-0.002-0.136-0.009c-1.822-0.203-3.475-0.473-5.048-0.82c-0.649-0.145-1.06-0.787-0.918-1.438
	c0.145-0.65,0.792-1.057,1.439-0.917c1.491,0.329,3.059,0.585,4.796,0.781c0.661,0.074,1.138,0.671,1.063,1.331
	C260.383,145.933,259.861,146.388,259.256,146.388 M558.599,146.367c-0.046,0-0.094-0.002-0.141-0.009l-0.543-0.067
	c-1.389-0.194-3.209-0.474-5.022-0.903c-0.649-0.154-1.051-0.805-0.896-1.452c0.154-0.647,0.805-1.051,1.45-0.895
	c1.718,0.408,3.467,0.675,4.798,0.861l0.492,0.062c0.662,0.078,1.135,0.677,1.058,1.337
	C559.725,145.915,559.203,146.367,558.599,146.367 M459.209,146.133c-0.077,0-0.154-0.007-0.232-0.023
	c-1.112-0.217-2.128-0.455-3.074-0.719c-0.219,0.226-0.526,0.366-0.866,0.366c-0.665,0-1.205-0.54-1.205-1.206v-0.682
	c0-0.386,0.185-0.749,0.497-0.976c0.312-0.225,0.714-0.292,1.083-0.171c1.196,0.392,2.514,0.725,4.027,1.021
	c0.654,0.128,1.081,0.762,0.953,1.415C460.278,145.733,459.774,146.133,459.209,146.133 M573.501,145.673
	c-0.561,0-1.062-0.394-1.181-0.963c-0.135-0.652,0.286-1.289,0.938-1.424c1.156-0.238,2.321-0.534,3.464-0.883
	c0.389-0.126,0.792-0.26,1.196-0.397c0.629-0.214,1.315,0.125,1.53,0.752c0.215,0.631-0.121,1.317-0.752,1.531
	c-0.418,0.142-0.837,0.28-1.255,0.414c-1.229,0.376-2.47,0.691-3.699,0.944C573.662,145.664,573.58,145.673,573.501,145.673
	 M274.147,145.62c-0.562,0-1.065-0.396-1.181-0.968c-0.129-0.653,0.292-1.288,0.947-1.419c1.705-0.342,3.248-0.729,4.717-1.184
	c0.633-0.198,1.311,0.158,1.507,0.796c0.197,0.636-0.158,1.312-0.795,1.507c-1.547,0.479-3.167,0.887-4.955,1.244
	C274.306,145.613,274.226,145.62,274.147,145.62 M474.055,145.502c-0.544,0-1.038-0.37-1.171-0.922
	c-0.156-0.648,0.241-1.3,0.888-1.456c1.517-0.365,3.046-0.814,4.68-1.373c0.623-0.221,1.313,0.119,1.529,0.75
	c0.217,0.63-0.119,1.314-0.75,1.53c-1.703,0.585-3.305,1.055-4.892,1.437C474.243,145.491,474.148,145.502,474.055,145.502
	 M385.687,145.155c-1.379,0-2.719-0.069-3.985-0.204c-0.663-0.069-1.143-0.663-1.072-1.326c0.07-0.662,0.674-1.14,1.327-1.07
	c1.516,0.159,3.168,0.217,4.822,0.174c0.648-0.029,1.22,0.507,1.238,1.173c0.018,0.664-0.508,1.22-1.173,1.237
	C386.458,145.148,386.073,145.155,385.687,145.155 M189.827,145.103c-0.017,0-0.034,0-0.049-0.001l-0.411-0.018
	c-1.554-0.09-3.138-0.294-4.723-0.612c-0.654-0.129-1.076-0.764-0.946-1.415c0.129-0.655,0.76-1.077,1.417-0.948
	c1.478,0.295,2.948,0.485,4.371,0.567l0.391,0.018c0.664,0.026,1.182,0.588,1.155,1.254
	C191.004,144.595,190.47,145.103,189.827,145.103 M194.888,145.038c-0.609,0-1.164-0.451-1.235-1.064
	c-0.075-0.656,0.35-1.245,1.005-1.33c0.017-0.002,0.115-0.012,0.133-0.013c0.32-0.034,0.665-0.075,1.01-0.118
	c1.191-0.15,2.397-0.387,3.611-0.703c0.647-0.174,1.304,0.217,1.472,0.862c0.168,0.644-0.218,1.302-0.863,1.47
	c-1.313,0.344-2.621,0.599-3.889,0.761c-0.401,0.048-0.76,0.092-1.119,0.128C194.972,145.036,194.931,145.038,194.888,145.038
	 M391.761,144.588c-0.563,0-1.066-0.394-1.182-0.967c-0.131-0.653,0.291-1.289,0.944-1.42c0.61-0.123,1.215-0.266,1.814-0.425
	c0.101-0.026,0.204-0.04,0.31-0.04h3.052c0.665,0,1.206,0.54,1.206,1.206c0,0.665-0.541,1.205-1.206,1.205h-2.895
	c-0.598,0.156-1.198,0.296-1.805,0.417C391.92,144.581,391.84,144.588,391.761,144.588 M249.55,144.182
	c-0.134,0-0.271-0.022-0.407-0.07c-0.787-0.281-1.567-0.58-2.345-0.895c-0.81-0.341-1.594-0.69-2.369-1.054
	c-0.604-0.281-0.863-1-0.58-1.602c0.283-0.604,1-0.864,1.603-0.581c0.748,0.35,1.502,0.686,2.267,1.008
	c0.733,0.298,1.481,0.581,2.238,0.854c0.627,0.224,0.953,0.914,0.728,1.542C250.509,143.874,250.045,144.182,249.55,144.182
	 M532.121,144.164h-0.87c-0.665,0-1.206-0.54-1.206-1.204c0-0.551,0.368-1.014,0.87-1.16v-2.96c0-0.666,0.54-1.206,1.206-1.206
	c0.665,0,1.205,0.54,1.205,1.206v4.12C533.326,143.624,532.786,144.164,532.121,144.164 M526.262,144.164h-4.988
	c-0.665,0-1.205-0.54-1.205-1.204c0-0.666,0.54-1.207,1.205-1.207h4.988c0.665,0,1.205,0.541,1.205,1.207
	C527.467,143.624,526.927,144.164,526.262,144.164 M516.284,144.164h-4.99c-0.664,0-1.204-0.54-1.204-1.204
	c0-0.666,0.54-1.207,1.204-1.207h4.99c0.665,0,1.206,0.541,1.206,1.207C517.49,143.624,516.949,144.164,516.284,144.164
	 M506.307,144.164h-4.989c-0.666,0-1.206-0.54-1.206-1.204c0-0.666,0.54-1.207,1.206-1.207h4.989c0.666,0,1.206,0.541,1.206,1.207
	C507.513,143.624,506.973,144.164,506.307,144.164 M416.642,144.164h-4.988c-0.666,0-1.206-0.54-1.206-1.204
	c0-0.666,0.54-1.207,1.206-1.207h4.988c0.665,0,1.205,0.541,1.205,1.207C417.847,143.624,417.307,144.164,416.642,144.164
	 M406.664,144.164h-4.989c-0.666,0-1.206-0.54-1.206-1.204c0-0.666,0.54-1.207,1.206-1.207h4.989c0.667,0,1.206,0.541,1.206,1.207
	C407.87,143.624,407.331,144.164,406.664,144.164 M376.911,144.164h-4.99c-0.664,0-1.205-0.54-1.205-1.204
	c0-0.666,0.541-1.207,1.205-1.207h4.99c0.665,0,1.205,0.541,1.205,1.207C378.116,143.624,377.576,144.164,376.911,144.164
	 M366.933,144.164h-4.988c-0.666,0-1.206-0.54-1.206-1.204c0-0.666,0.54-1.207,1.206-1.207h4.988c0.665,0,1.205,0.541,1.205,1.207
	C368.138,143.624,367.598,144.164,366.933,144.164 M356.955,144.164h-4.99c-0.664,0-1.204-0.54-1.204-1.204
	c0-0.666,0.54-1.207,1.204-1.207h4.99c0.665,0,1.205,0.541,1.205,1.207C358.16,143.624,357.62,144.164,356.955,144.164
	 M346.978,144.164h-4.99c-0.666,0-1.205-0.54-1.205-1.204c0-0.666,0.539-1.207,1.205-1.207h4.99c0.666,0,1.206,0.541,1.206,1.207
	C348.184,143.624,347.644,144.164,346.978,144.164 M324.744,144.164h-0.932c-0.666,0-1.206-0.54-1.206-1.204
	c0-0.572,0.398-1.051,0.933-1.175v-2.884c0-0.666,0.541-1.206,1.205-1.206c0.665,0,1.205,0.54,1.205,1.206v4.059
	C325.949,143.624,325.409,144.164,324.744,144.164 M318.824,144.164h-4.989c-0.665,0-1.204-0.54-1.204-1.204
	c0-0.666,0.539-1.207,1.204-1.207h4.989c0.665,0,1.205,0.541,1.205,1.207C320.029,143.624,319.489,144.164,318.824,144.164
	 M308.846,144.164h-4.988c-0.665,0-1.206-0.54-1.206-1.204c0-0.666,0.541-1.207,1.206-1.207h4.988c0.666,0,1.206,0.541,1.206,1.207
	C310.052,143.624,309.512,144.164,308.846,144.164 M298.869,144.164h-4.991c-0.665,0-1.207-0.54-1.207-1.204
	c0-0.666,0.542-1.207,1.207-1.207h4.991c0.666,0,1.205,0.541,1.205,1.207C300.074,143.624,299.535,144.164,298.869,144.164
	 M236.797,144.164h-4.989c-0.665,0-1.206-0.54-1.206-1.204c0-0.666,0.541-1.207,1.206-1.207h4.989c0.666,0,1.205,0.541,1.205,1.207
	C238.001,143.624,237.462,144.164,236.797,144.164 M226.818,144.164h-4.989c-0.666,0-1.205-0.54-1.205-1.204
	c0-0.666,0.539-1.207,1.205-1.207h4.989c0.666,0,1.205,0.541,1.205,1.207C228.023,143.624,227.484,144.164,226.818,144.164
	 M216.841,144.164h-4.99c-0.664,0-1.204-0.54-1.204-1.204c0-0.666,0.54-1.207,1.204-1.207h4.99c0.666,0,1.205,0.541,1.205,1.207
	C218.046,143.624,217.507,144.164,216.841,144.164 M50.219,144.164H49.51c-0.666,0-1.205-0.54-1.205-1.204v-4.281
	c0-0.665,0.539-1.204,1.205-1.204s1.207,0.539,1.207,1.204v3.18c0.417,0.19,0.708,0.611,0.708,1.102
	C51.425,143.624,50.886,144.164,50.219,144.164 M55.208,144.161c-0.666,0-1.206-0.538-1.206-1.204s0.54-1.206,1.206-1.206
	l4.988-0.001c0.666,0,1.207,0.539,1.207,1.205s-0.539,1.206-1.207,1.206H55.208z M65.186,144.16c-0.665,0-1.205-0.539-1.205-1.205
	s0.54-1.206,1.204-1.206l4.991-0.002c0.666,0,1.206,0.538,1.206,1.204c0.001,0.667-0.54,1.207-1.205,1.207L65.186,144.16z
	 M75.164,144.157c-0.665,0-1.206-0.539-1.206-1.206c0-0.666,0.539-1.205,1.206-1.205l4.988-0.001c0.666,0,1.207,0.539,1.207,1.205
	c0,0.665-0.539,1.205-1.206,1.205L75.164,144.157z M85.142,144.153c-0.665,0-1.206-0.539-1.206-1.206
	c0-0.665,0.541-1.206,1.206-1.206l4.988-0.001c0.665,0,1.207,0.539,1.207,1.206c0,0.666-0.539,1.206-1.207,1.206L85.142,144.153z
	 M95.12,144.151c-0.665,0-1.206-0.539-1.206-1.205c-0.001-0.667,0.541-1.207,1.205-1.207l4.991-0.002
	c0.665,0,1.205,0.539,1.205,1.205c0.001,0.666-0.54,1.207-1.204,1.207L95.12,144.151z M105.098,144.147
	c-0.665,0-1.207-0.539-1.207-1.205s0.539-1.206,1.207-1.206l4.987-0.001c0.667,0,1.207,0.539,1.207,1.206
	c0,0.665-0.54,1.205-1.205,1.205L105.098,144.147z M115.077,144.144c-0.667,0-1.207-0.539-1.207-1.204
	c0-0.666,0.539-1.206,1.206-1.206l4.988-0.001c0.666,0,1.207,0.539,1.207,1.206c0,0.664-0.539,1.204-1.207,1.204L115.077,144.144z
	 M125.056,144.142c-0.668,0-1.208-0.539-1.208-1.203c0-0.667,0.54-1.207,1.206-1.207l4.989-0.003c0.666,0,1.206,0.539,1.206,1.204
	c0.001,0.667-0.54,1.207-1.205,1.207L125.056,144.142z M135.032,144.139c-0.666,0-1.207-0.539-1.207-1.206
	c0-0.665,0.541-1.205,1.207-1.205l4.989-0.001c0.665,0,1.205,0.539,1.205,1.205s-0.539,1.206-1.205,1.206L135.032,144.139z
	 M145.011,144.136c-0.667,0-1.207-0.539-1.207-1.206c0-0.665,0.539-1.206,1.206-1.206l4.988-0.001c0.666,0,1.207,0.539,1.207,1.206
	c0,0.666-0.539,1.206-1.207,1.206L145.011,144.136z M288.921,144.135h-4.989c-0.667,0-1.206-0.54-1.206-1.206
	s0.539-1.206,1.206-1.206h4.989c0.666,0,1.206,0.54,1.206,1.206S289.586,144.135,288.921,144.135 M154.989,144.134
	c-0.667,0-1.207-0.539-1.207-1.205c0-0.667,0.539-1.207,1.204-1.207l4.99-0.002c0.666,0,1.206,0.539,1.206,1.204
	c0,0.666-0.539,1.207-1.205,1.207L154.989,144.134z M164.966,144.13c-0.666,0-1.207-0.54-1.207-1.206
	c0-0.665,0.54-1.206,1.207-1.206l4.989-0.001c0.664,0,1.205,0.539,1.205,1.206c0,0.665-0.539,1.205-1.205,1.205L164.966,144.13z
	 M174.943,144.126c-0.665,0-1.206-0.539-1.206-1.205s0.539-1.206,1.206-1.206l4.989-0.001c0.664,0,1.206,0.539,1.206,1.206
	c0,0.664-0.542,1.205-1.206,1.205L174.943,144.126z M548.413,143.924c-0.141,0-0.284-0.026-0.425-0.078
	c-1.051-0.396-1.968-0.792-2.804-1.212c-0.629-0.326-1.247-0.653-1.86-0.993c-0.582-0.322-0.793-1.056-0.471-1.639
	c0.323-0.582,1.058-0.794,1.639-0.47c0.594,0.328,1.193,0.644,1.79,0.953c0.746,0.375,1.585,0.738,2.556,1.104
	c0.623,0.236,0.938,0.932,0.702,1.554C549.359,143.625,548.899,143.924,548.413,143.924 M207.29,143.667
	c-0.588,0-1.101-0.43-1.191-1.028l-0.088-0.601c-0.39,0.169-0.751,0.319-1.111,0.467c-0.619,0.253-1.321-0.045-1.572-0.662
	c-0.251-0.617,0.045-1.321,0.662-1.571c0.355-0.145,0.708-0.293,1.062-0.445l1.402-0.658c0.345-0.161,0.747-0.151,1.083,0.028
	c0.336,0.181,0.566,0.51,0.622,0.886l0.326,2.203c0.098,0.658-0.357,1.271-1.015,1.369
	C207.409,143.662,207.35,143.667,207.29,143.667 M337.783,142.752c-0.402,0-0.795-0.202-1.023-0.568l-2.643-4.231
	c-0.353-0.564-0.181-1.308,0.385-1.661c0.566-0.352,1.309-0.181,1.661,0.385l2.644,4.231c0.353,0.564,0.18,1.309-0.386,1.661
	C338.223,142.693,338.001,142.752,337.783,142.752 M582.916,142.447c-0.444,0-0.87-0.246-1.081-0.671
	c-0.295-0.596-0.053-1.318,0.544-1.615c0.639-0.315,1.247-0.647,1.81-0.983c0.846-0.525,1.6-1.023,2.289-1.511
	c0.54-0.383,1.296-0.256,1.679,0.289c0.386,0.544,0.256,1.296-0.287,1.681c-0.728,0.515-1.521,1.037-2.425,1.599
	c-0.634,0.381-1.299,0.742-1.993,1.087C583.278,142.406,583.095,142.447,582.916,142.447 M483.365,142.002
	c-0.413,0-0.816-0.212-1.04-0.595c-0.339-0.573-0.146-1.312,0.428-1.65c1.401-0.825,2.688-1.65,3.935-2.521l0.157-0.114
	c0.538-0.391,1.293-0.272,1.685,0.263c0.394,0.537,0.275,1.292-0.26,1.684l-0.198,0.142c-1.299,0.91-2.64,1.769-4.096,2.625
	C483.784,141.949,483.573,142.002,483.365,142.002 M498.798,141.694c-0.665,0-1.206-0.54-1.206-1.205V135.5
	c0-0.664,0.541-1.204,1.206-1.204c0.666,0,1.206,0.54,1.206,1.204v4.989C500.004,141.154,499.464,141.694,498.798,141.694
	 M237.635,140.014c-0.667,0-1.206-0.541-1.206-1.206v-1.674c0-0.433,0.232-0.833,0.609-1.048c0.376-0.217,0.84-0.211,1.211,0.012
	c0.694,0.413,1.391,0.822,2.089,1.229l0.745,0.418c0.583,0.323,0.793,1.059,0.469,1.64c-0.323,0.581-1.058,0.792-1.637,0.469
	l-0.777-0.436c-0.123-0.071-0.244-0.143-0.366-0.214C238.609,139.675,238.161,140.014,237.635,140.014 M539.74,139.06
	c-0.259,0-0.522-0.084-0.743-0.256c-1.115-0.875-2.562-2.05-3.87-3.394c-0.465-0.478-0.454-1.241,0.024-1.705
	c0.475-0.464,1.24-0.455,1.704,0.024c1.207,1.241,2.573,2.348,3.629,3.175c0.524,0.41,0.618,1.168,0.206,1.692
	C540.453,138.9,540.099,139.06,539.74,139.06 M590.982,136.647c-0.309,0-0.617-0.117-0.852-0.354
	c-0.471-0.471-0.47-1.234,0.001-1.704c0.909-0.91,1.763-1.833,2.606-2.822c0.194-0.24,0.403-0.506,0.606-0.772
	c0.403-0.532,1.161-0.633,1.689-0.23c0.53,0.403,0.633,1.16,0.23,1.689c-0.22,0.29-0.444,0.575-0.675,0.857
	c-0.903,1.06-1.798,2.028-2.755,2.983C591.6,136.53,591.291,136.647,590.982,136.647 M331.217,136.601h-4.99
	c-0.665,0-1.205-0.54-1.205-1.206c0-0.665,0.54-1.205,1.205-1.205h4.99c0.665,0,1.205,0.54,1.205,1.205
	C332.422,136.061,331.882,136.601,331.217,136.601 M491.318,136.02c-0.312,0-0.621-0.118-0.855-0.356
	c-0.468-0.475-0.468-1.232,0.007-1.7l0.686-0.675c0.178-0.18,0.358-0.37,0.536-0.562c0.228-0.248,0.551-0.391,0.888-0.391h3.19
	c0.664,0,1.204,0.541,1.204,1.206c0,0.666-0.54,1.207-1.204,1.207h-2.668c-0.082,0.084-0.164,0.167-0.246,0.25l-0.683,0.674
	C491.936,135.903,491.627,136.02,491.318,136.02 M532.121,135.057c-0.666,0-1.206-0.54-1.206-1.206v-3.927
	c0-0.525,0.341-0.99,0.841-1.149c0.503-0.158,1.048,0.026,1.351,0.454c0.195,0.279,0.397,0.555,0.603,0.827
	c0.401,0.531,0.297,1.287-0.234,1.689c-0.047,0.037-0.097,0.068-0.148,0.097v2.009C533.326,134.517,532.786,135.057,532.121,135.057
	 M49.51,134.896c-0.666,0-1.205-0.54-1.205-1.206v-4.99c0-0.665,0.539-1.205,1.205-1.205s1.207,0.54,1.207,1.205v4.99
	C50.716,134.356,50.175,134.896,49.51,134.896 M597.028,128.757c-0.201,0-0.403-0.05-0.592-0.156
	c-0.58-0.327-0.784-1.062-0.457-1.643c0.745-1.319,1.46-2.747,2.187-4.36c0.273-0.606,0.983-0.879,1.597-0.605
	c0.604,0.273,0.875,0.987,0.603,1.595c-0.756,1.68-1.504,3.171-2.286,4.556C597.857,128.537,597.448,128.757,597.028,128.757
	 M49.51,124.918c-0.666,0-1.205-0.541-1.205-1.206v-4.989c0-0.665,0.539-1.205,1.205-1.205s1.207,0.54,1.207,1.205v4.989
	C50.716,124.377,50.175,124.918,49.51,124.918 M601.004,119.62c-0.129,0-0.262-0.019-0.392-0.063
	c-0.631-0.217-0.965-0.902-0.749-1.532c0.51-1.482,0.998-2.974,1.486-4.465l0.083-0.252c0.208-0.632,0.887-0.975,1.521-0.77
	c0.632,0.207,0.977,0.888,0.771,1.521l-0.083,0.251c-0.491,1.502-0.984,3.004-1.497,4.498
	C601.974,119.308,601.504,119.62,601.004,119.62 M49.51,114.94c-0.666,0-1.205-0.54-1.205-1.206v-4.989
	c0-0.666,0.539-1.206,1.205-1.206s1.207,0.541,1.207,1.206v4.989C50.716,114.4,50.175,114.94,49.51,114.94 M600.613,111.836
	c-0.141,0-0.285-0.024-0.425-0.077l-4.669-1.757c-0.623-0.234-0.938-0.93-0.703-1.554c0.235-0.622,0.928-0.933,1.553-0.704
	l4.67,1.757c0.622,0.235,0.938,0.93,0.704,1.555C601.56,111.539,601.101,111.836,600.613,111.836 M591.275,108.322
	c-0.142,0-0.285-0.025-0.426-0.077l-4.668-1.757c-0.623-0.234-0.938-0.93-0.704-1.554c0.235-0.623,0.932-0.934,1.554-0.704
	l4.67,1.757c0.622,0.234,0.937,0.93,0.703,1.554C592.222,108.026,591.763,108.322,591.275,108.322 M49.51,104.963
	c-0.666,0-1.205-0.541-1.205-1.206v-4.989c0-0.666,0.539-1.206,1.205-1.206s1.207,0.54,1.207,1.206v4.989
	C50.716,104.422,50.175,104.963,49.51,104.963 M585.395,102.415c-0.666,0-1.206-0.54-1.206-1.206v-4.988
	c0-0.665,0.54-1.206,1.206-1.206c0.665,0,1.205,0.541,1.205,1.206v4.988C586.6,101.875,586.06,102.415,585.395,102.415
	 M49.51,94.985c-0.666,0-1.205-0.541-1.205-1.207V88.79c0-0.666,0.539-1.206,1.205-1.206s1.207,0.54,1.207,1.206v4.988
	C50.716,94.444,50.175,94.985,49.51,94.985 M585.395,92.438c-0.666,0-1.206-0.541-1.206-1.206v-0.943
	c0-0.504,0.313-0.955,0.786-1.13l3.793-1.408c0.625-0.234,1.319,0.084,1.551,0.71c0.232,0.625-0.088,1.318-0.71,1.549l-3.009,1.117
	v0.104C586.6,91.897,586.06,92.438,585.395,92.438 M593.864,88.352c-0.488,0-0.949-0.3-1.13-0.786
	c-0.232-0.625,0.087-1.318,0.711-1.55l4.679-1.735c0.622-0.235,1.315,0.084,1.548,0.71c0.233,0.625-0.086,1.318-0.711,1.55
	l-4.677,1.736C594.146,88.328,594.004,88.352,593.864,88.352 M49.51,85.006c-0.666,0-1.205-0.54-1.205-1.206v-4.989
	c0-0.666,0.539-1.206,1.205-1.206s1.207,0.54,1.207,1.206v4.989C50.716,84.466,50.175,85.006,49.51,85.006 M602.287,84.455
	c-0.486,0-0.946-0.297-1.128-0.78l-0.608-1.624c-0.379-1.014-0.76-2.028-1.146-3.039c-0.238-0.623,0.072-1.319,0.692-1.558
	c0.626-0.237,1.321,0.074,1.559,0.694c0.39,1.017,0.771,2.038,1.153,3.057l0.606,1.619c0.235,0.624-0.081,1.318-0.703,1.553
	C602.572,84.43,602.428,84.455,602.287,84.455 M598.663,75.162c-0.467,0-0.911-0.271-1.108-0.725
	c-0.188-0.433-0.378-0.863-0.572-1.292c-0.467-0.996-1.008-2.02-1.602-3.033c-0.336-0.574-0.146-1.313,0.429-1.65
	c0.573-0.337,1.312-0.145,1.65,0.43c0.632,1.076,1.207,2.167,1.712,3.242c0.207,0.454,0.402,0.896,0.596,1.341
	c0.266,0.612-0.015,1.321-0.626,1.588C598.984,75.13,598.822,75.162,598.663,75.162 M49.51,75.029c-0.666,0-1.205-0.54-1.205-1.205
	v-4.99c0-0.665,0.539-1.206,1.205-1.206s1.207,0.541,1.207,1.206v4.99C50.716,74.489,50.175,75.029,49.51,75.029 M532.121,69.16
	c-0.12,0-0.239-0.018-0.358-0.055c-0.504-0.156-0.848-0.624-0.848-1.151v-3.398c0-0.666,0.54-1.206,1.206-1.206
	c0.665,0,1.205,0.54,1.205,1.206v0.938c0.169,0.039,0.332,0.112,0.477,0.227c0.525,0.411,0.618,1.168,0.207,1.693l-0.274,0.353
	c-0.205,0.275-0.415,0.569-0.62,0.869C532.886,68.97,532.51,69.16,532.121,69.16 M234.703,67.034h-2.496
	c-0.394,0-0.763-0.193-0.987-0.516l-0.095-0.138c-0.375-0.55-0.237-1.3,0.313-1.676c0.375-0.259,0.844-0.273,1.223-0.083h1.372
	c0.128-0.202,0.264-0.401,0.401-0.596c0.217-0.298,0.427-0.58,0.64-0.856c0.405-0.524,1.163-0.628,1.691-0.22
	c0.528,0.405,0.627,1.163,0.22,1.69c-0.2,0.261-0.397,0.524-0.593,0.792c-0.224,0.318-0.444,0.663-0.655,1.014
	C235.521,66.811,235.127,67.034,234.703,67.034 M593.656,66.559c-0.369,0-0.732-0.168-0.968-0.486
	c-0.243-0.327-0.492-0.65-0.743-0.97c-0.654-0.812-1.413-1.601-2.071-2.276l-0.352-0.341c-0.479-0.462-0.491-1.226-0.031-1.705
	c0.464-0.479,1.228-0.495,1.706-0.032l0.382,0.375c0.719,0.733,1.523,1.571,2.254,2.477c0.274,0.35,0.533,0.69,0.79,1.033
	c0.396,0.535,0.285,1.289-0.248,1.688C594.158,66.481,593.906,66.559,593.656,66.559 M165.358,66.451c-0.399,0-0.789-0.2-1.02-0.561
	c-0.813-1.284-1.791-2.563-2.905-3.799c-0.445-0.494-0.405-1.256,0.089-1.702c0.497-0.445,1.26-0.407,1.704,0.089
	c1.202,1.336,2.262,2.723,3.148,4.121c0.356,0.562,0.189,1.307-0.372,1.664C165.801,66.389,165.579,66.451,165.358,66.451
	 M168.906,65.582c-0.367,0-0.731-0.167-0.967-0.485c-0.398-0.533-0.287-1.289,0.246-1.687c1.468-1.095,2.81-2.054,4.101-2.932
	c0.549-0.375,1.301-0.231,1.676,0.319c0.375,0.551,0.232,1.301-0.32,1.675c-1.262,0.859-2.574,1.798-4.016,2.873
	C169.409,65.504,169.158,65.582,168.906,65.582 M49.51,65.05c-0.666,0-1.205-0.541-1.205-1.206v-4.988
	c0-0.665,0.539-1.206,1.205-1.206s1.207,0.541,1.207,1.206v4.988C50.716,64.51,50.175,65.05,49.51,65.05 M536.291,64.078
	c-0.301,0-0.604-0.113-0.838-0.341c-0.479-0.462-0.489-1.227-0.025-1.704c0.191-0.197,0.385-0.391,0.579-0.582
	c0.943-0.89,2.049-1.913,3.222-2.863c0.518-0.419,1.278-0.339,1.697,0.178c0.418,0.518,0.338,1.278-0.179,1.696
	c-1.11,0.898-2.175,1.883-3.069,2.728c-0.165,0.161-0.345,0.339-0.521,0.521C536.922,63.957,536.606,64.078,536.291,64.078
	 M326.092,63.824h-1.348c-0.664,0-1.205-0.54-1.205-1.206v-3.642c0-0.666,0.541-1.206,1.205-1.206c0.665,0,1.205,0.54,1.205,1.206
	v2.436h0.143c0.665,0,1.207,0.541,1.207,1.206C327.299,63.284,326.757,63.824,326.092,63.824 M491.551,63.143
	c-0.31,0-0.614-0.12-0.844-0.344c-0.415-0.406-0.842-0.804-1.276-1.195c-0.496-0.445-0.536-1.208-0.091-1.703
	c0.264-0.294,0.643-0.428,1.006-0.395v-0.759c0-0.666,0.54-1.206,1.205-1.206s1.205,0.54,1.205,1.206v3.189
	c0,0.485-0.29,0.924-0.738,1.111C491.868,63.113,491.709,63.143,491.551,63.143 M228.026,62.797
	c-1.123-1.083-2.325-2.036-3.725-2.96c-0.556-0.367-0.708-1.116-0.341-1.671c0.368-0.555,1.115-0.708,1.671-0.342
	c1.502,0.994,2.854,2.065,4.017,3.185l-0.785,0.921L228.026,62.797z M330.354,62.297c-0.268,0-0.535-0.088-0.761-0.271
	c-0.516-0.419-0.593-1.179-0.172-1.696l3.146-3.87c0.42-0.514,1.178-0.595,1.696-0.173c0.517,0.419,0.596,1.179,0.174,1.696
	l-3.147,3.87C331.052,62.146,330.704,62.297,330.354,62.297 M239.382,61.428c-0.329,0-0.659-0.135-0.897-0.4
	c-0.444-0.495-0.404-1.257,0.092-1.702c1.134-1.02,2.425-2.014,3.942-3.041l0.156-0.103c0.554-0.364,1.303-0.211,1.669,0.343
	c0.367,0.556,0.213,1.304-0.343,1.67l-0.145,0.095c-1.411,0.956-2.616,1.884-3.669,2.828
	C239.957,61.326,239.668,61.428,239.382,61.428 M532.121,60.772c-0.666,0-1.206-0.54-1.206-1.205v-4.99
	c0-0.666,0.54-1.206,1.206-1.206c0.665,0,1.205,0.54,1.205,1.206v4.99C533.326,60.232,532.786,60.772,532.121,60.772
	 M177.209,60.066c-0.426,0-0.839-0.227-1.058-0.627c-0.32-0.583-0.106-1.316,0.479-1.637c1.096-0.6,2.224-1.172,3.451-1.749
	c0.387-0.177,0.762-0.343,1.141-0.501c0.616-0.26,1.321,0.032,1.577,0.646c0.257,0.613-0.032,1.321-0.645,1.578
	c-0.354,0.149-0.707,0.304-1.058,0.464c-1.17,0.551-2.255,1.102-3.308,1.678C177.604,60.02,177.405,60.066,177.209,60.066
	 M116.726,59.776c-0.384,0-0.76-0.183-0.995-0.523c-0.376-0.548-0.237-1.299,0.312-1.676c1.39-0.956,2.869-1.845,4.394-2.645
	c0.591-0.308,1.319-0.082,1.628,0.508s0.081,1.318-0.508,1.627c-1.441,0.755-2.837,1.595-4.148,2.496
	C117.199,59.708,116.961,59.776,116.726,59.776 M586.574,59.575c-0.25,0-0.503-0.078-0.719-0.239
	c-0.848-0.631-1.708-1.207-2.554-1.707c-0.496-0.286-1.006-0.571-1.521-0.849c-0.585-0.317-0.803-1.048-0.485-1.634
	c0.315-0.584,1.045-0.804,1.634-0.486c0.533,0.288,1.062,0.584,1.588,0.888c0.931,0.55,1.862,1.173,2.779,1.857
	c0.533,0.397,0.644,1.153,0.246,1.686C587.306,59.407,586.942,59.575,586.574,59.575 M158.721,59.052
	c-0.267,0-0.536-0.088-0.76-0.271l-0.217-0.178l-2.24-1.558c-0.451-0.258-0.986-0.557-1.525-0.842
	c-0.589-0.312-0.814-1.041-0.501-1.63c0.31-0.587,1.039-0.812,1.63-0.501c0.568,0.301,1.132,0.616,1.694,0.942l2.682,1.897
	c0.516,0.42,0.594,1.179,0.176,1.697C159.419,58.899,159.071,59.052,158.721,59.052 M291.106,58.979c-0.178,0-0.36-0.04-0.532-0.125
	c-1.591-0.785-3.054-1.463-4.468-2.072c-0.611-0.263-0.896-0.972-0.631-1.583c0.262-0.612,0.974-0.893,1.583-0.631
	c1.455,0.625,2.955,1.321,4.584,2.126c0.598,0.294,0.842,1.018,0.545,1.614C291.979,58.733,291.551,58.979,291.106,58.979
	 M486.325,58.824c-0.23,0-0.462-0.066-0.668-0.203c-0.9-0.6-1.836-1.164-2.553-1.589c-0.513-0.297-1.054-0.578-1.604-0.841
	c-0.601-0.288-0.854-1.008-0.566-1.608c0.288-0.601,1.008-0.852,1.609-0.566c0.606,0.291,1.203,0.601,1.781,0.935
	c0.753,0.447,1.724,1.033,2.67,1.665c0.554,0.369,0.704,1.118,0.334,1.671C487.096,58.636,486.714,58.824,486.325,58.824
	 M544.09,57.896c-0.406,0-0.803-0.204-1.029-0.576c-0.348-0.568-0.169-1.311,0.398-1.658c0.973-0.594,1.861-1.083,2.715-1.492
	c0.631-0.292,1.25-0.576,1.877-0.847c0.612-0.265,1.322,0.018,1.585,0.627c0.266,0.611-0.014,1.32-0.626,1.586
	c-0.608,0.262-1.211,0.539-1.809,0.815c-0.765,0.366-1.582,0.816-2.482,1.368C544.522,57.839,544.304,57.896,544.09,57.896
	 M421.028,57.761h-4.988c-0.666,0-1.206-0.54-1.206-1.205c0-0.666,0.54-1.206,1.206-1.206h4.988c0.664,0,1.205,0.54,1.205,1.206
	C422.233,57.221,421.692,57.761,421.028,57.761 M220.62,57.599c-0.162,0-0.325-0.032-0.48-0.1c-0.894-0.388-1.788-0.747-2.657-1.071
	c-0.613-0.221-1.243-0.425-1.877-0.611c-0.639-0.188-1.005-0.857-0.818-1.496c0.188-0.639,0.859-1.002,1.496-0.818
	c0.684,0.2,1.36,0.419,2.03,0.661c0.92,0.343,1.854,0.72,2.786,1.124c0.612,0.265,0.892,0.974,0.627,1.585
	C221.528,57.327,221.084,57.599,220.62,57.599 M112.828,57.438c-0.235,0-0.471-0.067-0.679-0.211
	c-1.175-0.803-2.41-1.498-3.675-2.067l-0.473-0.198c-0.617-0.252-0.911-0.958-0.659-1.574c0.253-0.615,0.956-0.914,1.575-0.657
	l0.529,0.222c1.411,0.635,2.773,1.401,4.066,2.285c0.549,0.375,0.688,1.125,0.313,1.676
	C113.591,57.255,113.213,57.438,112.828,57.438 M411.32,56.359c-0.132,0-0.264-0.021-0.395-0.066
	c-1.424-0.495-2.947-0.909-4.661-1.264c-0.651-0.135-1.07-0.774-0.936-1.425c0.136-0.653,0.773-1.071,1.427-0.937
	c1.815,0.378,3.438,0.819,4.961,1.348c0.63,0.219,0.962,0.907,0.744,1.535C412.286,56.048,411.819,56.359,411.32,56.359
	 M186.386,56.203c-0.52,0-1-0.338-1.155-0.862c-0.191-0.638,0.172-1.309,0.811-1.5c0.682-0.202,1.366-0.391,2.055-0.571
	c0.982-0.239,1.941-0.448,2.904-0.635c0.653-0.133,1.287,0.299,1.413,0.953c0.127,0.653-0.299,1.287-0.952,1.413
	c-0.928,0.181-1.849,0.382-2.776,0.608c-0.643,0.168-1.302,0.35-1.956,0.545C186.615,56.187,186.499,56.203,186.386,56.203
	 M247.741,56.061c-0.466,0-0.91-0.271-1.107-0.728c-0.264-0.611,0.018-1.32,0.629-1.584c1.501-0.65,3.083-1.212,4.838-1.724
	c0.64-0.186,1.309,0.181,1.494,0.82c0.187,0.639-0.18,1.309-0.818,1.494c-1.658,0.483-3.148,1.014-4.557,1.622
	C248.063,56.029,247.9,56.061,247.741,56.061 M324.744,55.193c-0.664,0-1.205-0.54-1.205-1.206V49c0-0.666,0.541-1.206,1.205-1.206
	c0.665,0,1.205,0.54,1.205,1.206v4.988C325.949,54.653,325.409,55.193,324.744,55.193 M125.542,55.16
	c-0.482,0-0.94-0.293-1.125-0.772c-0.238-0.621,0.073-1.32,0.692-1.559c0.242-0.092,0.483-0.183,0.725-0.271
	c1.398-0.488,2.801-0.901,4.193-1.235c0.647-0.164,1.299,0.242,1.456,0.889c0.154,0.647-0.242,1.298-0.89,1.454
	c-1.314,0.317-2.643,0.708-3.947,1.163l-0.67,0.251C125.834,55.135,125.687,55.16,125.542,55.16 M281.933,55.075
	c-0.129,0-0.263-0.021-0.392-0.065l-0.659-0.223c-1.284-0.41-2.638-0.772-4.01-1.071c-0.649-0.142-1.063-0.785-0.921-1.436
	c0.142-0.651,0.788-1.056,1.436-0.921c1.445,0.316,2.873,0.697,4.244,1.137l0.696,0.234c0.63,0.216,0.965,0.903,0.748,1.532
	C282.901,54.761,282.434,55.075,281.933,55.075 M49.51,55.072c-0.666,0-1.205-0.54-1.205-1.205v-0.331
	c0-0.665,0.539-1.206,1.205-1.206h4.659c0.667,0,1.206,0.541,1.206,1.206c0,0.666-0.539,1.206-1.206,1.206H50.34
	C50.122,54.947,49.831,55.072,49.51,55.072 M491.551,54.958c-0.665,0-1.205-0.532-1.205-1.198v-0.016
	c0-0.653,0.519-1.187,1.172-1.206l4.971-0.141h0.035c0.649,0,1.185,0.518,1.204,1.172c0.018,0.665-0.505,1.22-1.172,1.239
	l-4.834,0.137C491.665,54.953,491.609,54.958,491.551,54.958 M577.785,54.937c-0.131,0-0.265-0.021-0.397-0.067
	c-1.131-0.395-2.317-0.75-3.627-1.087c-0.329-0.077-0.681-0.158-1.032-0.235c-0.65-0.143-1.062-0.787-0.918-1.436
	c0.144-0.651,0.783-1.062,1.438-0.919c0.363,0.08,0.726,0.164,1.089,0.25c1.398,0.358,2.649,0.733,3.846,1.151
	c0.629,0.219,0.96,0.907,0.74,1.536C578.751,54.626,578.284,54.937,577.785,54.937 M454.025,54.761h-1.109
	c-0.665,0-1.205-0.54-1.205-1.205c0-0.666,0.54-1.205,1.205-1.205h0.894c1.21-0.447,2.423-0.83,3.607-1.138
	c0.64-0.165,1.303,0.219,1.471,0.864c0.167,0.645-0.22,1.303-0.863,1.471c-1.173,0.304-2.376,0.687-3.574,1.137
	C454.313,54.735,454.17,54.761,454.025,54.761 M211.086,54.749c-0.07,0-0.143-0.006-0.215-0.019l-0.648-0.113
	c-1.325-0.211-2.732-0.367-4.169-0.462c-0.665-0.045-1.167-0.619-1.124-1.283c0.043-0.665,0.636-1.154,1.283-1.124
	c1.509,0.1,2.99,0.265,4.401,0.49l0.684,0.119c0.655,0.117,1.09,0.744,0.974,1.4C212.166,54.339,211.658,54.749,211.086,54.749
	 M83.464,54.744h-4.35c-0.667,0-1.207-0.54-1.207-1.205c0-0.666,0.539-1.206,1.207-1.206h4.139l0.409-0.149
	c0.625-0.222,1.317,0.107,1.539,0.734c0.222,0.628-0.106,1.317-0.734,1.54l-0.582,0.211C83.75,54.719,83.608,54.744,83.464,54.744
	 M74.125,54.743h-4.989c-0.666,0-1.206-0.54-1.206-1.205c0-0.666,0.541-1.206,1.206-1.206h4.989c0.666,0,1.206,0.541,1.206,1.206
	C75.331,54.203,74.791,54.743,74.125,54.743 M64.146,54.743h-4.988c-0.667,0-1.206-0.54-1.206-1.205
	c0-0.666,0.539-1.206,1.206-1.206h4.988c0.666,0,1.207,0.541,1.207,1.206C65.353,54.203,64.812,54.743,64.146,54.743
	 M447.942,54.742h-4.988c-0.665,0-1.205-0.54-1.205-1.206c0-0.665,0.54-1.206,1.205-1.206h4.988c0.665,0,1.206,0.541,1.206,1.206
	C449.148,54.202,448.607,54.742,447.942,54.742 M437.965,54.742h-4.989c-0.666,0-1.206-0.54-1.206-1.206
	c0-0.665,0.54-1.206,1.206-1.206h4.989c0.666,0,1.206,0.541,1.206,1.206C439.171,54.202,438.631,54.742,437.965,54.742
	 M427.988,54.742h-4.99c-0.665,0-1.205-0.54-1.205-1.206c0-0.665,0.54-1.206,1.205-1.206h4.99c0.664,0,1.204,0.541,1.204,1.206
	C429.192,54.202,428.652,54.742,427.988,54.742 M379.694,54.742h-3.043c-0.665,0-1.205-0.54-1.205-1.206
	c0-0.665,0.54-1.206,1.205-1.206l4.979-0.015h0.01c0.661,0,1.2,0.533,1.204,1.196c0.006,0.666-0.53,1.21-1.196,1.215L379.694,54.742
	z M371.662,54.742h-4.989c-0.665,0-1.205-0.54-1.205-1.206c0-0.665,0.54-1.206,1.205-1.206h4.989c0.666,0,1.206,0.541,1.206,1.206
	C372.868,54.202,372.328,54.742,371.662,54.742 M361.684,54.742h-4.988c-0.666,0-1.206-0.54-1.206-1.206
	c0-0.665,0.54-1.206,1.206-1.206h4.988c0.665,0,1.206,0.541,1.206,1.206C362.89,54.202,362.349,54.742,361.684,54.742
	 M351.706,54.742h-4.989c-0.665,0-1.205-0.54-1.205-1.206c0-0.665,0.54-1.206,1.205-1.206h4.989c0.665,0,1.204,0.541,1.204,1.206
	C352.91,54.202,352.371,54.742,351.706,54.742 M341.729,54.742h-4.988c-0.668,0-1.207-0.54-1.207-1.206
	c0-0.665,0.539-1.206,1.207-1.206h4.988c0.666,0,1.206,0.541,1.206,1.206C342.935,54.202,342.395,54.742,341.729,54.742
	 M291.567,54.731c-0.666,0-1.207-0.54-1.207-1.206v-4.989c0-0.666,0.542-1.206,1.207-1.206c0.665,0,1.206,0.54,1.206,1.206v4.989
	C292.772,54.191,292.232,54.731,291.567,54.731 M501.508,54.667c-0.649,0-1.187-0.518-1.205-1.172c-0.001-0.042,0-0.085,0.004-0.126
	l-0.339-0.282c-0.058-0.047-0.111-0.1-0.16-0.159l-1.407-1.697c-0.425-0.512-0.354-1.272,0.16-1.697
	c0.512-0.424,1.273-0.353,1.697,0.159l1.334,1.609l1.461,1.21c0.387,0.32,0.535,0.846,0.373,1.321
	c-0.165,0.475-0.606,0.798-1.108,0.813l-0.774,0.021H501.508z M386.627,54.626c-0.625,0-1.153-0.481-1.201-1.115
	c-0.05-0.664,0.448-1.243,1.112-1.292c1.357-0.103,3.154-0.221,5.008-0.32c0.683-0.036,1.233,0.476,1.269,1.14
	c0.035,0.666-0.475,1.233-1.14,1.269c-1.836,0.097-3.612,0.215-4.956,0.316C386.688,54.625,386.657,54.626,386.627,54.626
	 M477.403,54.424c-0.112,0-0.227-0.016-0.341-0.05c-1.498-0.441-3.027-0.826-4.548-1.14l-0.174-0.034
	c-0.655-0.124-1.085-0.755-0.961-1.409c0.124-0.654,0.759-1.085,1.409-0.959l0.2,0.037c1.6,0.333,3.194,0.732,4.755,1.193
	c0.64,0.188,1.004,0.858,0.815,1.497C478.405,54.085,477.925,54.424,477.403,54.424 M149.975,54.348
	c-0.13,0-0.264-0.021-0.395-0.067c-0.962-0.334-1.922-0.622-2.934-0.88c-0.549-0.131-1.12-0.249-1.695-0.35
	c-0.656-0.115-1.095-0.74-0.979-1.395c0.114-0.656,0.736-1.095,1.394-0.98c0.623,0.11,1.243,0.237,1.858,0.383
	c1.097,0.282,2.12,0.589,3.144,0.944c0.63,0.218,0.963,0.904,0.745,1.534C150.943,54.034,150.474,54.348,149.975,54.348
	 M196.164,54.307c-0.621,0-1.147-0.476-1.2-1.104c-0.055-0.664,0.437-1.248,1.101-1.302c1.749-0.148,3.45-0.237,5.061-0.266
	c0.664-0.001,1.216,0.518,1.227,1.183c0.012,0.666-0.517,1.215-1.183,1.228c-1.557,0.028-3.206,0.115-4.903,0.257
	C196.233,54.306,196.198,54.307,196.164,54.307 M401.583,54.297c-0.035,0-0.07-0.001-0.105-0.005
	c-0.76-0.066-1.521-0.123-2.283-0.167c-0.665-0.029-1.569-0.03-2.573-0.012c-0.658,0.015-1.215-0.519-1.228-1.185
	c-0.011-0.666,0.518-1.215,1.185-1.227c1.069-0.019,2.013-0.02,2.74,0.016c0.799,0.045,1.584,0.105,2.369,0.172
	c0.663,0.059,1.154,0.643,1.097,1.306C402.729,53.824,402.201,54.297,401.583,54.297 M553.229,53.98
	c-0.534,0-1.021-0.357-1.166-0.898c-0.168-0.644,0.216-1.304,0.859-1.474c1.401-0.37,2.828-0.691,4.239-0.955l0.81-0.103
	c0.671-0.082,1.26,0.396,1.336,1.059c0.077,0.662-0.398,1.26-1.059,1.336l-0.708,0.088c-1.289,0.243-2.657,0.551-4.003,0.907
	C553.435,53.967,553.33,53.98,553.229,53.98 M526.643,53.958c-0.5,0-0.948-0.308-1.126-0.777c-0.184-0.479-0.042-1.021,0.351-1.352
	l0.671-0.564l0.89-1.096c0.419-0.516,1.179-0.597,1.696-0.178c0.461,0.375,0.574,1.022,0.293,1.524
	c0.506,0.132,0.885,0.584,0.901,1.133c0.018,0.666-0.506,1.22-1.172,1.239l-2.47,0.07H526.643z M103.715,53.529
	c-0.091,0-0.185-0.01-0.277-0.031c-1.548-0.366-3.149-0.627-4.757-0.779c-0.663-0.062-1.15-0.651-1.087-1.314
	c0.063-0.663,0.666-1.157,1.314-1.086c1.717,0.163,3.426,0.442,5.083,0.832c0.647,0.153,1.049,0.802,0.896,1.45
	C104.758,53.154,104.261,53.529,103.715,53.529 M257.291,53.251c-0.573,0-1.08-0.41-1.185-0.993
	c-0.116-0.655,0.319-1.282,0.974-1.401c1.051-0.188,2.018-0.326,2.956-0.42c0.72-0.065,1.428-0.119,2.137-0.16
	c0.671-0.036,1.235,0.467,1.276,1.131c0.04,0.665-0.467,1.236-1.131,1.276c-0.685,0.041-1.368,0.093-2.051,0.154
	c-0.864,0.087-1.771,0.217-2.76,0.394C257.434,53.246,257.362,53.251,257.291,53.251 M88.861,53.182
	c-0.567,0-1.072-0.402-1.183-0.979c-0.124-0.654,0.305-1.286,0.959-1.411c0.894-0.171,1.784-0.314,2.688-0.439
	c0.834-0.087,1.635-0.144,2.436-0.176c0.661-0.04,1.227,0.489,1.254,1.156c0.027,0.665-0.49,1.226-1.156,1.253
	c-0.752,0.03-1.501,0.084-2.246,0.16c-0.823,0.115-1.671,0.253-2.525,0.416C89.014,53.175,88.937,53.182,88.861,53.182
	 M272.212,52.929c-0.047,0-0.093-0.002-0.14-0.008c-1.578-0.179-3.215-0.29-4.865-0.328c-0.668-0.016-1.196-0.567-1.179-1.234
	c0.015-0.666,0.565-1.21,1.233-1.177c1.723,0.039,3.434,0.155,5.084,0.344c0.662,0.076,1.138,0.673,1.062,1.334
	C273.337,52.475,272.815,52.929,272.212,52.929 M135.217,52.825c-0.604,0-1.125-0.453-1.195-1.068
	c-0.077-0.662,0.399-1.26,1.06-1.335c1.726-0.198,3.451-0.282,5.143-0.245c0.667,0.015,1.195,0.566,1.179,1.233
	c-0.014,0.666-0.548,1.156-1.231,1.178c-1.588-0.037-3.199,0.045-4.815,0.229C135.31,52.822,135.264,52.825,135.217,52.825
	 M568.066,52.797c-0.034,0-0.07-0.001-0.106-0.005c-0.604-0.053-1.205-0.1-1.805-0.14c-0.773-0.046-1.56-0.062-2.342-0.064
	c-0.236,0-0.471,0.002-0.707,0.008h-0.023c-0.655,0-1.191-0.525-1.205-1.182c-0.014-0.665,0.515-1.215,1.182-1.229
	c0.289-0.006,0.58-0.009,0.869-0.009c0.789,0,1.583,0.023,2.378,0.069c0.626,0.042,1.246,0.089,1.865,0.144
	c0.662,0.059,1.153,0.644,1.095,1.307C569.212,52.324,568.685,52.797,568.066,52.797 M462.626,52.719
	c-0.618,0-1.146-0.474-1.199-1.101c-0.057-0.662,0.433-1.249,1.097-1.306c1.242-0.108,2.58-0.141,3.996-0.117
	c0.399,0.015,0.779,0.031,1.156,0.052c0.666,0.036,1.176,0.604,1.139,1.269c-0.035,0.665-0.652,1.195-1.269,1.138
	c-0.364-0.019-0.729-0.035-1.093-0.048c-0.277-0.005-0.573-0.008-0.867-0.008c-1.022,0-1.956,0.039-2.854,0.116
	C462.696,52.718,462.661,52.719,462.626,52.719 M531.048,47.955c-0.192,0-0.389-0.046-0.57-0.145
	c-0.586-0.315-0.805-1.046-0.488-1.633l0.282-0.526l1.022-3.308l0.045-0.45c0.068-0.662,0.671-1.125,1.321-1.079
	c0.662,0.068,1.146,0.659,1.08,1.32l-0.059,0.57c-0.008,0.08-0.024,0.159-0.048,0.235l-1.094,3.536
	c-0.022,0.074-0.052,0.146-0.09,0.215l-0.34,0.631C531.893,47.726,531.479,47.955,531.048,47.955 M496.666,47.422
	c-0.411,0-0.806-0.212-1.02-0.606l-0.035-0.064c-0.037-0.068-0.067-0.139-0.091-0.213l-1.121-3.556
	c-0.024-0.078-0.042-0.158-0.05-0.238l-0.123-1.181c-0.068-0.663,0.412-1.255,1.074-1.324c0.672-0.071,1.255,0.412,1.324,1.074
	l0.11,1.059l1.077,3.413c0.19,0.552-0.023,1.197-0.548,1.482C497.073,47.371,496.867,47.422,496.666,47.422 M324.744,45.216
	c-0.664,0-1.205-0.54-1.205-1.206v-4.989c0-0.666,0.541-1.206,1.205-1.206c0.665,0,1.205,0.541,1.205,1.206v4.989
	C325.949,44.676,325.409,45.216,324.744,45.216 M291.567,44.752c-0.666,0-1.207-0.541-1.207-1.206v-4.988
	c0-0.665,0.542-1.206,1.207-1.206c0.665,0,1.206,0.541,1.206,1.206v4.988C292.772,44.212,292.232,44.752,291.567,44.752
	 M532.682,38.256c-0.611,0-1.134-0.463-1.197-1.085l-0.19-1.892l-0.847-2.712c-0.198-0.636,0.155-1.312,0.791-1.51
	c0.639-0.203,1.311,0.156,1.51,0.791l0.885,2.83c0.024,0.078,0.04,0.158,0.049,0.239l0.203,2.014
	c0.066,0.662-0.416,1.253-1.079,1.321C532.764,38.254,532.724,38.256,532.682,38.256 M495.397,37.683
	c-0.041,0-0.083-0.003-0.125-0.007c-0.662-0.067-1.144-0.661-1.075-1.323l0.152-1.473c0.008-0.082,0.025-0.164,0.05-0.241
	l1.065-3.342c0.201-0.634,0.879-0.982,1.514-0.784c0.635,0.203,0.986,0.881,0.784,1.515l-1.027,3.226l-0.141,1.349
	C496.532,37.221,496.008,37.683,495.397,37.683 M324.744,35.238c-0.664,0-1.205-0.541-1.205-1.206v-4.989
	c0-0.666,0.541-1.206,1.205-1.206c0.665,0,1.205,0.541,1.205,1.206v4.989C325.949,34.698,325.409,35.238,324.744,35.238
	 M291.567,34.774c-0.666,0-1.207-0.54-1.207-1.205v-4.988c0-0.667,0.542-1.207,1.207-1.207c0.665,0,1.206,0.54,1.206,1.207v4.988
	C292.772,34.234,292.232,34.774,291.567,34.774 M529.252,29.039c-0.349,0-0.692-0.148-0.933-0.439l-1.817-2.206l-1.465-1.208
	c-0.515-0.424-0.587-1.184-0.164-1.698c0.424-0.515,1.185-0.586,1.699-0.164l1.553,1.282c0.06,0.05,0.113,0.104,0.164,0.164
	l1.892,2.295c0.423,0.513,0.351,1.272-0.163,1.697C529.793,28.949,529.521,29.039,529.252,29.039 M499.17,28.609
	c-0.274,0-0.549-0.092-0.775-0.283c-0.509-0.43-0.574-1.189-0.146-1.7l1.608-1.909c0.05-0.058,0.104-0.111,0.161-0.158l1.934-1.573
	c0.517-0.422,1.277-0.341,1.696,0.174c0.421,0.517,0.343,1.276-0.173,1.696l-1.846,1.502l-1.535,1.823
	C499.854,28.463,499.514,28.609,499.17,28.609 M324.744,25.261c-0.631,0-1.148-0.487-1.201-1.105h-2.682
	c-0.668,0-1.207-0.54-1.207-1.205c0-0.666,0.539-1.207,1.207-1.207h3.883c0.665,0,1.205,0.541,1.205,1.207v1.104
	C325.949,24.719,325.409,25.261,324.744,25.261 M291.567,24.796c-0.666,0-1.207-0.54-1.207-1.205v-0.64
	c0-0.666,0.542-1.207,1.207-1.207h4.348c0.665,0,1.206,0.541,1.206,1.207c0,0.665-0.541,1.205-1.206,1.205h-3.282
	C292.429,24.537,292.029,24.796,291.567,24.796 M315.87,24.155h-4.988c-0.665,0-1.206-0.54-1.206-1.205
	c0-0.666,0.541-1.207,1.206-1.207h4.988c0.665,0,1.206,0.541,1.206,1.207C317.076,23.615,316.535,24.155,315.87,24.155
	 M305.893,24.155h-4.99c-0.665,0-1.207-0.54-1.207-1.205c0-0.666,0.542-1.207,1.207-1.207h4.99c0.665,0,1.207,0.541,1.207,1.207
	C307.1,23.615,306.558,24.155,305.893,24.155 M521.589,22.83c-0.196,0-0.394-0.047-0.576-0.147l-0.097-0.053l-3.307-1.031
	l-0.929-0.094c-0.663-0.068-1.146-0.659-1.079-1.321c0.068-0.663,0.673-1.128,1.321-1.08l1.05,0.106
	c0.082,0.009,0.161,0.024,0.238,0.048l3.536,1.103c0.076,0.024,0.149,0.055,0.219,0.092l0.201,0.109
	c0.584,0.319,0.799,1.051,0.481,1.636C522.43,22.603,522.016,22.83,521.589,22.83 M507.012,22.638c-0.516,0-0.992-0.332-1.151-0.85
	c-0.197-0.636,0.158-1.312,0.794-1.507l3.302-1.021c0.077-0.024,0.157-0.041,0.235-0.048l1.527-0.153
	c0.669-0.055,1.252,0.417,1.319,1.079c0.067,0.663-0.417,1.254-1.079,1.322l-1.406,0.14l-3.186,0.984
	C507.249,22.621,507.129,22.638,507.012,22.638"/>
</svg>
